<?xml version="1.0" encoding="UTF-8" standalone="no"?>
<svg
  xmlns="http://www.w3.org/2000/svg"
  version="1.0"
  width="512"
  height="512"
  viewBox="0 0 512 512">
  <path
    d="m 128,152.20312 c -35.32954,0 -63.79688,28.46734 -63.79688,63.79688 0,35.32954 28.46734,63.79688 63.79688,63.79688 35.32954,-3e-5 63.79688,-28.46734 63.79688,-63.79688 -2e-5,-35.32954 -28.46734,-63.79688 -63.79688,-63.79688 z m 164,0 c -35.32954,0 -63.79688,28.46734 -63.79688,63.79688 0,35.32954 28.46734,63.79688 63.79688,63.79688 35.32954,-3e-5 63.79688,-28.46734 63.79688,-63.79688 C 355.79685,180.67046 327.32954,152.20312 292,152.20312 Z M 108,184 a 12,12 0 0 1 12,12 12,12 0 0 1 -12,12 12,12 0 0 1 -12,-12 12,12 0 0 1 12,-12 z m 40,0 a 12,12 0 0 1 12,12 12,12 0 0 1 -12,12 12,12 0 0 1 -12,-12 12,12 0 0 1 12,-12 z m 124,0 a 12,12 0 0 1 12,12 12,12 0 0 1 -12,12 12,12 0 0 1 -12,-12 12,12 0 0 1 12,-12 z m 40,0 a 12,12 0 0 1 12,12 12,12 0 0 1 -12,12 12,12 0 0 1 -12,-12 12,12 0 0 1 12,-12 z m 72,0.20312 c -6.11324,0 -12.01313,0.87015 -17.60352,2.4629 C 369.99744,195.75747 372,205.64815 372,216 c 0,1.01029 -0.0251,2.01428 -0.0625,3.01562 A 12,12 0 0 1 376,228 a 12,12 0 0 1 -7.41211,11.07617 c -5.91356,19.5661 -19.14037,35.98641 -36.48242,46.08789 11.55716,16.13833 30.45515,26.6328 51.89453,26.63282 35.32954,-3e-5 63.79688,-28.46734 63.79688,-63.79688 C 447.79685,212.67046 419.32954,184.20312 384,184.20312 Z M 404,216 a 12,12 0 0 1 12,12 12,12 0 0 1 -12,12 12,12 0 0 1 -12,-12 12,12 0 0 1 12,-12 z m -196,16.20312 c -0.55824,0 -1.10933,0.0269 -1.66406,0.041 -2.47766,11.94808 -7.64078,22.92291 -14.8125,32.28516 A 12,12 0 0 1 200,276 a 12,12 0 0 1 -12,12 12,12 0 0 1 -11.46094,-8.48438 c -9.36441,7.17569 -20.34261,12.34179 -32.29492,14.82032 -0.0141,0.55473 -0.041,1.10582 -0.041,1.66406 0,35.32954 28.46734,63.79688 63.79688,63.79688 35.32954,-3e-5 63.79688,-28.46734 63.79688,-63.79688 -10e-6,-0.87668 -0.0297,-1.74538 -0.0645,-2.61328 -11.89032,-3.1204 -22.69968,-8.92718 -31.76562,-16.71484 A 12,12 0 0 1 228,288 a 12,12 0 0 1 -12,-12 12,12 0 0 1 12,-12 12,12 0 0 1 0.0625,0.004 c -6.91614,-9.18565 -11.8996,-19.9004 -14.34766,-31.53516 -1.88355,-0.16603 -3.78691,-0.26559 -5.71484,-0.26563 z"
    style="fill:#ffffff"/>
</svg>
