<?xml version="1.0" encoding="UTF-8" standalone="no"?>
<svg
  xmlns="http://www.w3.org/2000/svg"
  version="1.1"
  width="512"
  height="512"
  viewBox="0 0 512 512">
  <path
    d="M 346.5 85.5625 C 326.00159 85.562511 305.50905 93.334703 289.9375 108.90625 L 287.6875 111.1875 L 233.375 165.5 L 256 188.125 L 312.5625 131.53125 C 331.56141 112.53234 361.46872 112.53198 380.46875 131.53125 C 399.46766 150.53016 399.46802 180.43747 380.46875 199.4375 L 312.5625 267.3125 C 293.56359 286.31141 263.68753 286.31177 244.6875 267.3125 C 240.03887 262.66387 236.59335 257.40619 234.25 251.78125 L 204.71875 264.0625 C 208.6394 273.47356 214.44213 282.31713 222.0625 289.9375 C 253.20647 321.08023 304.04441 321.08059 335.1875 289.9375 L 403.09375 222.0625 C 434.23648 190.91853 434.23684 140.04934 403.09375 108.90625 C 387.52176 93.334884 366.99841 85.562489 346.5 85.5625 z M 233.375 198.71875 C 212.87659 198.71876 192.38405 206.49095 176.8125 222.0625 L 108.90625 289.9375 C 77.763518 321.08147 77.763155 371.95066 108.90625 403.09375 C 140.05022 434.23648 190.91941 434.23684 222.0625 403.09375 L 278.625 346.5 L 256 323.875 L 199.4375 380.46875 C 180.43859 399.46766 150.53128 399.46802 131.53125 380.46875 C 112.53234 361.46984 112.53198 331.56253 131.53125 312.5625 L 188.125 256 L 199.4375 244.6875 C 218.43641 225.68859 248.31247 225.68823 267.3125 244.6875 C 271.96113 249.33613 275.40665 254.59381 277.75 260.21875 L 307.28125 247.9375 C 303.3606 238.52644 297.55787 229.68287 289.9375 222.0625 C 274.36551 206.49113 253.87341 198.71874 233.375 198.71875 z"
    style="fill:#ffffff"/>
</svg>
