<?xml version="1.0" encoding="UTF-8" standalone="no"?>
<svg
  xmlns="http://www.w3.org/2000/svg"
  version="1.1"
  width="512"
  height="512"
  viewBox="0 0 512 512">
  <path
    d="M 108 64 C 84 64 64 84 64 108 L 64 404 C 64 428 84 448 108 448 L 404 448 C 428 448 448 428 448 404 L 448 108 C 448 84 428 64 404 64 L 108 64 z M 344 108 L 388 108 C 397 108 404 116 404 124 L 404 168 C 404 176 396 180 388 180 L 344 180 C 336 180 328 172 328 164 L 328 124 C 328 116 336 108 344 108 z M 256 176 A 76 76 0 0 1 332 252 A 76 76 0 0 1 256 328 A 76 76 0 0 1 180 252 A 76 76 0 0 1 256 176 z M 108 224 L 144.5957 224 A 116 116 0 0 0 140 256 A 116 116 0 0 0 256 372 A 116 116 0 0 0 372 256 A 116 116 0 0 0 367.33398 224 L 404 224 L 404 388 C 404 396 396 404 388 404 L 124 404 C 116 404 108 396 108 388 L 108 224 z"
    style="fill:#ffffff"/>
</svg>
