<?xml version="1.0" encoding="UTF-8" standalone="no"?>
<svg
  xmlns="http://www.w3.org/2000/svg"
  version="1.1"
  width="512"
  height="512"
  viewBox="0 0 512 512">
  <path
    d="m 64,256.00001 c 0,63.80464 51.78345,115.58811 115.58805,115.58811 36.145,0 68.45345,-16.6751 89.6633,-42.68505 l -16.63763,-35.17181 c -13.61981,26.05093 -41.59044,43.84094 -73.02567,43.84094 -45.05384,0 -81.654698,-36.51833 -81.654698,-81.57219 0,-44.17808 37.225058,-81.65477 81.654698,-81.65477 31.4137,0 61.13007,16.93376 75.67452,50.23793 10.27949,23.53812 25.108,57.96202 43.1618,97.90833 17.97133,39.76387 48.82703,48.10587 78.81924,48.10587 C 399.06737,370.59734 448,353.35844 448,300.83168 c 0,-36.987 -21.46028,-50.5422 -42.18964,-57.7115 -15.23461,-5.26895 -23.92693,-7.72559 -44.58395,-15.43927 -12.46225,-4.65359 -21.30122,-12.81319 -21.30122,-27.32834 -4e-5,-30.87441 43.89986,-34.97131 63.24316,-9.49474 l 24.52118,-13.21007 c -11.20499,-18.28181 -24.78846,-33.43799 -58.04171,-33.43799 -34.11042,0 -60.35347,20.98277 -60.35347,57.54637 0,33.58843 20.71663,46.93771 43.42807,56.55563 14.2835,6.04875 32.01069,12.26965 47.14341,17.99871 29.44194,11.14637 15.44202,61.75708 -25.01655,61.75708 -27.74862,0 -39.84909,-12.91234 -45.53439,-25.33515 C 316.80974,285.40787 295.35497,236.82092 281.55808,204.37469 266.84039,169.76299 229.19274,140.41187 179.58805,140.41187 117.13788,140.41187 64,192.03078 64,256.00001 Z"
    style="fill:#ffffff"/>
</svg>
