<?xml version="1.0" encoding="UTF-8" standalone="no"?>
<svg
   xmlns="http://www.w3.org/2000/svg"
   version="1.1"
   width="512"
   height="512"
   viewBox="0 0 512 512">
  <path
    d="M 287 96.09375 L 287 96.1875 C 281.98953 96.30992 276.74355 97.88935 272.1875 101.59375 L 272.1875 157.09375 C 255.33186 190.11118 236.31818 221.88973 212.84375 251.125 L 202.03125 258.65625 L 202.03125 258.625 L 190.6875 266.34375 L 190.75 395.0625 L 190.75 395.125 L 202.03125 395.125 L 206.03125 395.125 C 206.03125 395.125 226.37072 407.53339 227.4375 407 C 228.66128 407.61189 301.65331 407.60384 348.03125 407.53125 C 348.00475 407.55905 347.9639 407.5973 347.9375 407.625 L 386.8125 407.71875 C 392.86076 408.02189 414.54342 393.13778 411.625 377.96875 C 411.6125 377.89795 411.60735 377.82081 411.59375 377.75 C 411.48983 377.25083 411.34654 376.74916 411.1875 376.25 C 411.1608 376.1626 411.12225 376.05613 411.09375 375.96875 C 411.07325 375.90815 411.05265 375.87314 411.03125 375.8125 C 410.85137 375.28458 410.65335 374.7446 410.40625 374.21875 C 410.18439 373.75494 409.93177 373.30543 409.65625 372.84375 C 409.58865 372.72967 409.50851 372.61388 409.4375 372.5 C 409.3842 372.4153 409.3364 372.30336 409.28125 372.21875 C 408.31288 370.72351 407.05023 369.2249 405.4375 367.78125 C 405.3415 367.72235 405.2755 367.66102 405.1875 367.59375 C 405.0923 367.50965 405.00372 367.42767 404.90625 367.34375 C 404.80078 367.25295 404.71516 367.19681 404.625 367.09375 C 404.5926 367.05405 404.56205 366.97858 404.53125 366.9375 C 404.45035 366.83464 404.3802 366.70599 404.3125 366.59375 C 404.09153 366.22176 403.91945 365.81139 403.8125 365.375 C 403.55096 364.12646 403.75146 362.69004 404.1875 361.59375 C 404.50515 360.89739 404.97651 360.28925 405.5625 359.875 C 405.5925 359.866 405.62605 359.84915 405.65625 359.84375 C 406.39101 359.7119 407.16943 359.48068 407.96875 359.15625 C 408.23351 359.05665 408.48506 358.96016 408.75 358.84375 C 408.86666 358.78915 408.97632 358.71448 409.09375 358.65625 C 412.39746 357.10934 415.70015 354.28921 418.3125 350.8125 C 418.46116 350.62413 418.60502 350.44235 418.75 350.25 C 418.7809 350.2067 418.7817 350.16848 418.8125 350.125 C 424.78859 342.11421 427.45516 330.81975 417.125 322.4375 C 415.95647 321.48931 414.96755 316.84301 419.25 314.78125 C 419.3364 314.76475 419.44277 314.72845 419.53125 314.71875 C 420.10132 314.44348 420.70051 314.13552 421.3125 313.78125 C 430.44459 309.07796 436.82035 300.58787 435.75 290.65625 C 435.71 290.19253 435.63897 289.75326 435.5625 289.28125 C 435.5453 289.18375 435.54985 289.06651 435.53125 288.96875 C 435.46435 288.59446 435.34093 288.22296 435.25 287.84375 C 435.218 287.71314 435.19085 287.5685 435.15625 287.4375 C 435.07075 287.11019 434.97906 286.76826 434.875 286.4375 C 434.8164 286.2512 434.75144 286.062 434.6875 285.875 C 434.6581 285.7898 434.62445 285.67915 434.59375 285.59375 C 433.67134 282.99319 432.22601 280.31714 430.1875 277.625 C 428.67172 276.77113 427.93209 275.44954 427.875 274.125 C 427.878 273.78355 427.94757 273.43761 428.03125 273.09375 C 428.26301 272.00197 428.89905 271.02715 429.90625 270.40625 C 430.1747 270.32625 430.42504 270.2112 430.6875 270.125 C 431.80205 269.87004 432.90934 269.40463 434.03125 268.8125 C 434.25587 268.70568 434.46831 268.58046 434.6875 268.46875 C 434.78898 268.40965 434.89879 268.374 435 268.3125 C 453.32115 258.67217 452.21554 232.04499 432.125 229.53125 L 383.71875 229.46875 C 383.76335 229.51115 383.83082 229.55107 383.875 229.59375 L 309.0625 229.53125 C 309.62412 226.99232 310.2373 224.38055 310.8125 221.75 C 310.97263 221.04215 311.12421 220.30578 311.28125 219.59375 C 315.61829 199.63606 319.90545 177.85035 320.46875 161.1875 C 320.64748 158.45058 320.66871 155.90184 320.4375 153.4375 C 320.4143 152.99377 320.4062 152.52589 320.375 152.09375 C 320.24971 151.42913 320.10816 150.71288 319.96875 150.03125 C 318.62871 142.69919 316.57329 135.69724 314.125 128.875 C 311.19419 120.28971 307.34787 110.89098 302.46875 100.71875 C 297.01895 97.02181 292.48682 96.09375 287 96.09375 z M 64 256.59375 L 76.46875 420 L 175.4375 420 L 175.1875 256.59375 L 64 256.59375 z"
     style="fill:#ffffff"/>
</svg>
