<svg version="1.1" viewBox="0.0 0.0 1236.0 765.0" fill="none" stroke="none" stroke-linecap="square" stroke-miterlimit="10" width="1236" height="765" xmlns:xlink="http://www.w3.org/1999/xlink" xmlns="http://www.w3.org/2000/svg"><path fill="#ffffff" d="M0 0L1236.0 0L1236.0 765.0L0 765.0L0 0Z" fill-rule="nonzero"/><path fill="#4285f4" d="M618.0 38.25C708.719 38.25 795.771 74.0596 860.23114 137.89392L618.0 382.5Z" fill-rule="nonzero"/><path fill="#34a853" d="M538.1264 47.6444C564.2924 41.402977 591.09985 38.25 618.0 38.25L618.0 382.5Z" fill-rule="nonzero"/><path fill="#fbbc04" d="M422.23114 665.66534C310.4614 588.39233 254.60318 452.60287 279.64786 319.05005C304.69257 185.49721 405.9537 79.17175 538.1264 47.6444L618.0 382.5Z" fill-rule="nonzero"/><path fill="#ea4335" d="M860.23114 137.89392C987.00977 263.4416 996.85236 465.04684 882.9063 602.347C768.96027 739.64716 568.9949 767.1318 422.23114 665.66534L618.0 382.5Z" fill-rule="nonzero"/><path fill="#1a1a1a" d="M38.59375 50.763836L39.625 50.62321Q39.65625 51.607586 39.984375 51.96696Q40.3125 52.326336 40.90625 52.326336Q41.328125 52.326336 41.640625 52.138836Q41.953125 51.93571 42.0625 51.607586Q42.1875 51.263836 42.1875 50.52946L42.1875 44.607586L43.3125 44.607586L43.3125 50.46696Q43.3125 51.545086 43.046875 52.138836Q42.796875 52.732586 42.234375 53.045086Q41.671875 53.34196 40.90625 53.34196Q39.78125 53.34196 39.171875 52.701336Q38.578125 52.045086 38.59375 50.763836ZM44.796875 50.43571L45.859375 50.34196Q45.9375 50.99821 46.21875 51.40446Q46.5 51.81071 47.078125 52.076336Q47.671875 52.326336 48.40625 52.326336Q49.046875 52.326336 49.546875 52.138836Q50.046875 51.93571 50.28125 51.607586Q50.53125 51.263836 50.53125 50.87321Q50.53125 50.46696 50.296875 50.170086Q50.0625 49.857586 49.53125 49.65446Q49.171875 49.513836 47.984375 49.232586Q46.8125 48.951336 46.34375 48.701336Q45.71875 48.37321 45.421875 47.90446Q45.125 47.420086 45.125 46.826336Q45.125 46.18571 45.484375 45.62321Q45.859375 45.045086 46.5625 44.763836Q47.28125 44.46696 48.140625 44.46696Q49.09375 44.46696 49.828125 44.77946Q50.5625 45.076336 50.953125 45.68571Q51.34375 46.27946 51.375 47.02946L50.28125 47.107586Q50.1875 46.295086 49.671875 45.888836Q49.171875 45.46696 48.1875 45.46696Q47.15625 45.46696 46.6875 45.84196Q46.21875 46.21696 46.21875 46.74821Q46.21875 47.21696 46.546875 47.513836Q46.875 47.81071 48.25 48.12321Q49.640625 48.43571 50.15625 48.670086Q50.90625 49.02946 51.265625 49.56071Q51.625 50.076336 51.625 50.77946Q51.625 51.46696 51.234375 52.076336Q50.84375 52.670086 50.109375 53.013836Q49.375 53.34196 48.453125 53.34196Q47.28125 53.34196 46.484375 53.013836Q45.703125 52.670086 45.25 51.982586Q44.8125 51.295086 44.796875 50.43571ZM57.296875 51.201336L58.390625 51.326336Q58.140625 52.27946 57.4375 52.81071Q56.734375 53.34196 55.65625 53.34196Q54.296875 53.34196 53.484375 52.49821Q52.6875 51.65446 52.6875 50.138836Q52.6875 48.576336 53.5 47.71696Q54.3125 46.84196 55.59375 46.84196Q56.84375 46.84196 57.625 47.68571Q58.421875 48.52946 58.421875 50.076336Q58.421875 50.170086 58.421875 50.357586L53.78125 50.357586Q53.84375 51.388836 54.359375 51.93571Q54.875 52.46696 55.65625 52.46696Q56.234375 52.46696 56.640625 52.170086Q57.0625 51.857586 57.296875 51.201336ZM53.84375 49.49821L57.3125 49.49821Q57.25 48.701336 56.921875 48.31071Q56.40625 47.701336 55.609375 47.701336Q54.875 47.701336 54.375 48.18571Q53.890625 48.670086 53.84375 49.49821ZM60.03125 53.201336L60.03125 46.982586L60.984375 46.982586L60.984375 47.920086Q61.34375 47.263836 61.640625 47.06071Q61.953125 46.84196 62.328125 46.84196Q62.859375 46.84196 63.40625 47.170086L63.046875 48.15446Q62.65625 47.920086 62.28125 47.920086Q61.921875 47.920086 61.640625 48.138836Q61.375 48.34196 61.265625 48.71696Q61.078125 49.27946 61.078125 49.93571L61.078125 53.201336L60.03125 53.201336ZM64.34375 53.201336L64.34375 51.99821L65.546875 51.99821L65.546875 53.201336L64.34375 53.201336ZM67.046875 45.826336L67.046875 44.607586L68.109375 44.607586L68.109375 45.826336L67.046875 45.826336ZM67.046875 53.201336L67.046875 46.982586L68.109375 46.982586L68.109375 53.201336L67.046875 53.201336ZM70.046875 53.201336L70.046875 46.982586L70.984375 46.982586L70.984375 47.857586Q71.671875 46.84196 72.96875 46.84196Q73.53125 46.84196 74.0 47.045086Q74.484375 47.24821 74.71875 47.576336Q74.953125 47.90446 75.046875 48.34196Q75.09375 48.638836 75.09375 49.37321L75.09375 53.201336L74.046875 53.201336L74.046875 49.420086Q74.046875 48.763836 73.921875 48.451336Q73.796875 48.138836 73.484375 47.951336Q73.171875 47.74821 72.75 47.74821Q72.078125 47.74821 71.578125 48.18571Q71.09375 48.607586 71.09375 49.795086L71.09375 53.201336L70.046875 53.201336ZM77.296875 53.201336L77.296875 47.795086L76.359375 47.795086L76.359375 46.982586L77.296875 46.982586L77.296875 46.31071Q77.296875 45.68571 77.40625 45.388836Q77.5625 44.96696 77.9375 44.71696Q78.328125 44.46696 79.015625 44.46696Q79.46875 44.46696 80.0 44.576336L79.84375 45.482586Q79.515625 45.43571 79.21875 45.43571Q78.734375 45.43571 78.53125 45.638836Q78.34375 45.84196 78.34375 46.40446L78.34375 46.982586L79.5625 46.982586L79.5625 47.795086L78.34375 47.795086L78.34375 53.201336L77.296875 53.201336ZM79.65625 50.09196Q79.65625 48.357586 80.609375 47.52946Q81.40625 46.84196 82.5625 46.84196Q83.84375 46.84196 84.65625 47.68571Q85.484375 48.513836 85.484375 49.99821Q85.484375 51.201336 85.125 51.888836Q84.765625 52.576336 84.0625 52.96696Q83.375 53.34196 82.5625 53.34196Q81.265625 53.34196 80.453125 52.513836Q79.65625 51.670086 79.65625 50.09196ZM80.734375 50.09196Q80.734375 51.27946 81.25 51.87321Q81.78125 52.46696 82.5625 52.46696Q83.359375 52.46696 83.875 51.87321Q84.390625 51.27946 84.390625 50.06071Q84.390625 48.90446 83.859375 48.31071Q83.34375 47.71696 82.5625 47.71696Q81.78125 47.71696 81.25 48.31071Q80.734375 48.888836 80.734375 50.09196Z" fill-rule="nonzero"/><path fill="#1a1a1a" d="M99.375 45.84196Q97.734375 45.84196 96.796875 46.170086Q95.765625 46.545086 94.875 47.43571Q93.984375 48.326336 93.984375 49.732586Q93.984375 50.857586 94.6875 51.56071Q95.625 52.49821 98.296875 52.59196L97.921875 53.62321Q95.15625 53.482586 94.078125 52.40446Q93.0 51.326336 93.0 49.77946Q93.0 47.576336 94.734375 46.31071Q92.53125 46.638836 90.234375 46.96696L89.953125 45.888836Q94.546875 45.56071 99.1875 44.763836L99.375 45.84196ZM98.34375 49.49821Q97.3125 48.74821 96.5625 48.326336L97.03125 47.763836Q97.734375 48.18571 98.8125 48.93571L98.34375 49.49821ZM99.28125 48.37321Q98.15625 47.576336 97.5 47.201336L97.96875 46.638836Q98.625 47.013836 99.75 47.81071L99.28125 48.37321ZM106.0625 48.795086Q105.640625 49.170086 105.171875 49.545086Q105.640625 49.87321 106.109375 50.295086L105.453125 51.18571Q104.75 50.388836 103.859375 49.59196L103.859375 54.27946L102.921875 54.27946L102.921875 49.59196Q102.21875 50.295086 101.375 50.951336L100.90625 49.96696Q102.96875 48.420086 104.234375 46.451336L101.28125 46.451336L101.28125 45.56071L102.921875 45.56071L102.921875 43.357586L103.8125 43.357586Q104.1875 43.40446 103.859375 43.638836L103.859375 45.56071L104.75 45.56071L105.03125 45.27946L105.640625 45.888836Q105.828125 46.21696 105.453125 46.21696Q104.84375 47.482586 103.8125 48.65446L104.515625 49.076336Q105.078125 48.513836 105.453125 47.99821L106.296875 48.65446Q106.34375 48.888836 106.0625 48.795086ZM110.234375 45.701336L108.359375 45.701336L108.359375 48.46696Q108.359375 52.170086 105.125 54.045086L104.515625 53.15446Q107.421875 51.701336 107.421875 48.607586L107.421875 45.701336L105.96875 45.701336L105.96875 44.81071L111.171875 44.81071L111.171875 50.62321Q111.171875 54.045086 109.484375 54.045086L108.125 54.045086L107.984375 53.15446L109.25 53.15446Q110.234375 53.15446 110.234375 50.62321L110.234375 45.701336ZM119.1875 45.888836Q120.921875 45.982586 121.953125 47.013836Q122.984375 48.045086 122.984375 49.77946Q122.984375 51.37321 122.046875 52.31071Q121.203125 53.15446 119.703125 53.670086L119.09375 52.77946Q120.640625 52.263836 121.296875 51.607586Q122.0 50.90446 122.0 49.732586Q122.0 48.420086 121.296875 47.71696Q120.40625 46.826336 119.0 46.732586Q118.484375 48.701336 117.453125 50.763836L118.34375 51.795086L117.59375 52.357586L116.9375 51.607586Q116.5625 52.21696 116.140625 52.638836Q115.53125 53.24821 114.921875 53.24821Q114.265625 53.24821 113.703125 52.68571Q113.09375 52.076336 113.09375 50.951336Q113.09375 49.263836 114.921875 47.388836Q114.59375 45.982586 114.453125 44.71696L115.34375 44.71696Q115.765625 44.81071 115.4375 45.09196Q115.53125 46.12321 115.71875 46.826336Q116.9375 46.076336 118.203125 45.888836Q118.390625 45.18571 118.578125 43.77946L119.515625 44.013836Q119.984375 44.201336 119.515625 44.388836L119.1875 45.888836ZM116.28125 50.857586Q115.671875 49.87321 115.203125 48.420086Q114.03125 49.826336 114.03125 51.045086Q114.03125 51.701336 114.40625 52.076336Q114.640625 52.31071 114.921875 52.31071Q115.15625 52.31071 115.484375 51.982586Q115.765625 51.701336 116.28125 50.857586ZM118.015625 46.826336Q116.890625 47.013836 115.953125 47.763836Q116.421875 49.357586 116.84375 49.96696Q117.640625 48.420086 118.015625 46.826336ZM134.375 45.84196Q132.73438 45.84196 131.79688 46.170086Q130.76562 46.545086 129.875 47.43571Q128.98438 48.326336 128.98438 49.732586Q128.98438 50.857586 129.6875 51.56071Q130.625 52.49821 133.29688 52.59196L132.92188 53.62321Q130.15625 53.482586 129.07812 52.40446Q128.0 51.326336 128.0 49.77946Q128.0 47.576336 129.73438 46.31071Q127.53125 46.638836 125.234375 46.96696L124.953125 45.888836Q129.54688 45.56071 134.1875 44.763836L134.375 45.84196ZM136.04688 49.076336L136.04688 48.18571L138.48438 48.18571L138.48438 46.263836L137.875 46.263836Q137.45312 47.107586 136.70312 47.763836L136.0 47.06071Q137.40625 45.888836 137.96875 43.59196L138.90625 43.87321Q139.1875 44.013836 138.76562 44.15446Q138.57812 44.71696 138.25 45.37321L141.20312 45.37321L141.20312 46.263836L139.42188 46.263836L139.42188 48.18571L141.76562 48.18571L141.76562 49.076336L139.42188 49.076336Q139.42188 49.68571 139.32812 50.295086Q140.3125 50.99821 141.67188 52.49821L141.01562 53.388836Q139.70312 51.74821 139.09375 51.09196Q138.57812 52.732586 136.70312 53.951336L136.04688 53.107586Q138.48438 51.93571 138.48438 49.076336L136.04688 49.076336ZM146.03125 45.045086L146.03125 53.482586L145.09375 53.482586L145.09375 52.732586L143.125 52.732586L143.125 53.62321L142.1875 53.62321L142.1875 45.045086L146.03125 45.045086ZM145.09375 45.93571L143.125 45.93571L143.125 51.84196L145.09375 51.84196L145.09375 45.93571ZM153.85938 52.96696Q154.60938 52.87321 155.125 52.357586Q155.6875 51.795086 155.6875 50.857586Q155.6875 49.826336 155.07812 49.21696Q154.46875 48.607586 153.15625 48.607586Q151.60938 48.607586 150.76562 49.21696Q149.96875 49.77946 148.70312 51.232586L147.90625 50.52946Q151.28125 47.15446 153.01562 44.90446Q151.46875 45.09196 149.92188 45.232586L149.59375 44.15446Q151.89062 44.15446 153.67188 43.920086L154.09375 43.732586L154.60938 44.24821Q155.125 44.71696 154.375 44.857586Q152.96875 46.451336 151.5625 47.99821Q152.54688 47.763836 153.20312 47.763836Q154.98438 47.763836 155.82812 48.607586Q156.67188 49.451336 156.67188 50.763836Q156.67188 52.12321 155.92188 52.87321Q154.79688 53.99821 153.0625 53.99821Q151.42188 53.99821 150.67188 53.24821Q150.0625 52.638836 150.0625 51.795086Q150.0625 51.232586 150.48438 50.81071Q150.95312 50.34196 151.5625 50.34196Q152.40625 50.34196 152.96875 50.90446Q153.625 51.56071 153.85938 52.96696ZM152.92188 53.107586Q152.78125 51.888836 152.35938 51.46696Q152.03125 51.138836 151.70312 51.138836Q151.32812 51.138836 151.14062 51.326336Q150.90625 51.56071 150.90625 51.84196Q150.90625 52.263836 151.28125 52.638836Q151.75 53.107586 152.5 53.107586Q152.6875 53.107586 152.92188 53.107586ZM161.1875 45.420086Q161.51562 45.888836 161.70312 46.77946L160.90625 47.15446Q160.71875 46.31071 160.48438 45.84196L161.1875 45.420086ZM159.07812 46.263836Q158.98438 47.90446 158.65625 49.40446L157.71875 49.21696Q158.09375 47.388836 158.14062 45.84196L159.03125 45.982586Q159.45312 46.076336 159.07812 46.263836ZM160.34375 54.27946L159.40625 54.27946L159.40625 43.451336L160.29688 43.451336Q160.76562 43.545086 160.34375 43.826336L160.34375 54.27946ZM168.3125 44.52946L168.3125 45.27946L165.45312 45.27946L165.45312 45.888836L167.75 45.888836L167.75 46.638836L165.45312 46.638836L165.45312 47.295086L168.64062 47.295086L168.64062 48.045086L161.46875 48.045086L161.46875 47.295086L164.51562 47.295086L164.51562 46.638836L162.21875 46.638836L162.21875 45.888836L164.51562 45.888836L164.51562 45.27946L161.70312 45.27946L161.70312 44.52946L164.51562 44.52946L164.51562 43.40446L165.40625 43.40446Q165.78125 43.451336 165.45312 43.68571L165.45312 44.52946L168.3125 44.52946ZM167.60938 48.65446L167.60938 53.576336Q167.60938 54.18571 166.95312 54.18571L166.15625 54.18571L165.875 53.295086L166.48438 53.295086Q166.67188 53.295086 166.67188 53.107586L166.67188 52.21696L163.4375 52.21696L163.4375 54.326336L162.5 54.326336L162.5 48.65446L167.60938 48.65446ZM166.67188 49.40446L163.4375 49.40446L163.4375 50.06071L166.67188 50.06071L166.67188 49.40446ZM166.67188 50.81071L163.4375 50.81071L163.4375 51.46696L166.67188 51.46696L166.67188 50.81071ZM179.89062 46.263836Q179.89062 47.06071 179.14062 47.06071L178.0625 47.06071L177.875 46.170086L178.8125 46.170086Q178.95312 46.170086 178.95312 46.02946L178.95312 44.951336L176.51562 44.951336L176.51562 47.71696L179.51562 47.71696L179.65625 47.52946L180.40625 47.99821Q180.59375 48.18571 180.26562 48.232586Q179.98438 50.15446 179.14062 51.795086Q179.70312 52.59196 180.78125 53.24821L180.21875 54.138836Q179.32812 53.52946 178.625 52.638836Q177.92188 53.62321 177.125 54.232586L176.5625 53.34196Q177.35938 52.732586 178.01562 51.888836Q177.26562 50.482586 176.9375 48.607586L176.51562 48.607586L176.51562 54.232586L175.57812 54.232586L175.57812 44.06071L179.89062 44.06071L179.89062 46.263836ZM174.82812 45.74821L173.14062 45.74821L173.14062 46.826336L175.29688 46.826336L175.29688 47.71696L174.5 47.71696L173.84375 49.076336L175.0625 49.076336L175.0625 49.96696L173.14062 49.96696L173.14062 51.045086L175.0625 51.045086L175.0625 51.93571L173.14062 51.93571L173.14062 54.27946L172.20312 54.27946L172.20312 51.93571L170.14062 51.93571L170.14062 51.045086L172.20312 51.045086L172.20312 49.96696L170.14062 49.96696L170.14062 49.076336L171.45312 49.076336L170.84375 47.71696L169.8125 47.71696L169.8125 46.826336L172.20312 46.826336L172.20312 45.74821L170.42188 45.74821L170.42188 44.857586L172.20312 44.857586L172.20312 43.49821L173.09375 43.49821Q173.46875 43.545086 173.14062 43.77946L173.14062 44.857586L174.82812 44.857586L174.82812 45.74821ZM172.39062 49.076336L173.0 49.076336L173.51562 47.71696L171.82812 47.71696L172.39062 49.076336ZM177.73438 48.607586Q177.875 49.732586 178.57812 51.045086Q179.14062 49.920086 179.32812 48.607586L177.73438 48.607586ZM189.875 47.201336Q189.96875 48.982586 189.875 50.763836Q191.28125 51.27946 192.59375 52.21696L192.03125 53.107586Q191.04688 52.357586 189.875 51.795086Q189.875 52.638836 189.35938 53.15446Q188.79688 53.71696 187.71875 53.71696Q186.64062 53.71696 186.07812 53.15446Q185.60938 52.68571 185.60938 51.93571Q185.60938 51.27946 185.98438 50.90446Q186.54688 50.34196 187.67188 50.34196Q188.28125 50.34196 188.89062 50.482586Q188.98438 48.888836 188.89062 47.24821L185.42188 47.482586L185.42188 46.49821L188.79688 46.31071Q188.75 44.99821 188.60938 43.96696L189.59375 43.96696Q190.10938 44.06071 189.6875 44.34196Q189.73438 45.326336 189.78125 46.263836L192.3125 46.12321L192.3125 47.107586L189.875 47.201336ZM182.79688 53.482586Q182.60938 52.170086 182.60938 50.43571Q182.60938 46.638836 183.17188 44.34196L184.20312 44.52946Q184.53125 44.670086 184.15625 44.857586Q183.64062 46.49821 183.64062 50.43571Q183.64062 52.21696 183.875 53.295086L182.79688 53.482586ZM188.89062 51.420086Q188.09375 51.18571 187.67188 51.18571Q187.01562 51.18571 186.73438 51.46696Q186.5 51.701336 186.5 51.93571Q186.5 52.31071 186.6875 52.49821Q187.01562 52.826336 187.67188 52.826336Q188.32812 52.826336 188.60938 52.49821Q188.9375 52.12321 188.89062 51.420086ZM203.84375 49.170086Q202.4375 47.295086 201.125 46.21696L201.78125 45.513836Q203.42188 46.451336 204.73438 48.326336L203.84375 49.170086ZM194.70312 53.107586Q199.85938 53.06071 202.29688 48.74821L203.14062 49.545086Q203.46875 49.87321 202.90625 49.87321Q200.04688 54.09196 195.125 54.232586L194.70312 53.107586ZM194.0 49.40446Q195.40625 48.18571 196.29688 45.607586L197.375 46.076336Q197.5625 46.263836 197.23438 46.31071Q196.48438 48.84196 194.79688 50.34196L194.0 49.40446ZM199.76562 50.576336Q199.76562 51.18571 199.10938 51.18571L197.75 51.18571L197.60938 50.15446L198.5 50.15446Q198.6875 50.15446 198.6875 49.96696L198.6875 43.732586L199.71875 43.732586Q200.1875 43.826336 199.76562 44.107586L199.76562 50.576336ZM212.89062 47.90446Q213.40625 47.99821 212.98438 48.27946L212.98438 50.99821Q214.15625 51.37321 215.42188 52.02946L214.85938 52.920086Q213.82812 52.31071 212.98438 52.02946Q212.84375 53.013836 212.375 53.482586Q211.8125 54.045086 210.82812 54.045086Q209.51562 54.045086 209.0 53.52946Q208.53125 53.06071 208.53125 52.31071Q208.53125 51.701336 209.0 51.232586Q209.60938 50.62321 210.78125 50.62321Q211.57812 50.62321 212.04688 50.763836L212.04688 47.90446L212.89062 47.90446ZM207.875 46.77946Q207.125 46.87321 206.0 46.87321L205.85938 45.888836Q207.03125 45.888836 208.20312 45.795086Q208.4375 44.951336 208.76562 43.545086L209.60938 43.826336Q210.07812 44.013836 209.60938 44.201336L209.1875 45.701336Q209.98438 45.607586 210.82812 45.37321L211.0625 46.357586Q209.75 46.638836 208.90625 46.68571Q208.15625 49.076336 206.70312 51.888836L205.76562 51.420086Q207.21875 48.84196 207.875 46.77946ZM212.375 45.37321Q213.6875 45.795086 215.51562 46.49821L215.09375 47.482586Q213.125 46.638836 212.0 46.31071L212.375 45.37321ZM212.04688 51.65446Q211.48438 51.46696 210.78125 51.46696Q210.03125 51.46696 209.75 51.74821Q209.51562 51.982586 209.51562 52.31071Q209.51562 52.638836 209.70312 52.826336Q209.98438 53.107586 210.6875 53.107586Q211.34375 53.107586 211.625 52.826336Q212.04688 52.40446 212.04688 51.65446ZM221.5 50.857586Q221.07812 51.93571 220.60938 52.49821Q219.95312 53.295086 219.29688 53.295086Q218.125 53.295086 217.5625 51.93571Q217.23438 51.138836 217.23438 48.513836Q217.23438 46.638836 217.42188 44.71696L218.40625 44.951336Q218.96875 45.09196 218.45312 45.420086Q218.26562 47.15446 218.26562 48.56071Q218.26562 50.482586 218.5 51.27946Q218.73438 52.076336 219.20312 52.076336Q219.71875 52.076336 220.09375 51.326336Q220.32812 50.857586 220.5625 50.201336L221.5 50.857586ZM224.26562 45.37321Q226.375 47.576336 226.84375 50.71696L225.57812 51.045086Q225.01562 47.763836 223.28125 45.93571L224.26562 45.37321Z" fill-rule="nonzero"/><path fill="#9e9e9e" d="M38.75 67.93571L39.8125 67.79508Q39.984375 68.68571 40.421875 69.09196Q40.859375 69.48258 41.484375 69.48258Q42.234375 69.48258 42.75 68.96696Q43.265625 68.45133 43.265625 67.68571Q43.265625 66.96696 42.78125 66.49821Q42.3125 66.01383 41.578125 66.01383Q41.28125 66.01383 40.828125 66.13883L40.953125 65.20133Q41.0625 65.21696 41.125 65.21696Q41.796875 65.21696 42.328125 64.87321Q42.875 64.51383 42.875 63.779457Q42.875 63.201332 42.484375 62.826332Q42.09375 62.435707 41.46875 62.435707Q40.859375 62.435707 40.4375 62.826332Q40.03125 63.216957 39.921875 63.982582L38.859375 63.795082Q39.046875 62.748207 39.734375 62.170082Q40.421875 61.576332 41.4375 61.576332Q42.140625 61.576332 42.734375 61.888832Q43.328125 62.185707 43.640625 62.701332Q43.953125 63.216957 43.953125 63.810707Q43.953125 64.35758 43.65625 64.82633Q43.359375 65.27946 42.78125 65.54508Q43.53125 65.71696 43.953125 66.27946Q44.375 66.82633 44.375 67.67008Q44.375 68.79508 43.546875 69.57633Q42.734375 70.35758 41.484375 70.35758Q40.359375 70.35758 39.609375 69.68571Q38.859375 68.99821 38.75 67.93571ZM46.34375 70.20133L46.34375 68.99821L47.546875 68.99821L47.546875 70.20133L46.34375 70.20133ZM48.8125 62.732582L48.8125 61.716957L54.375 61.716957L54.375 62.545082Q53.5625 63.420082 52.75 64.87321Q51.953125 66.31071 51.515625 67.84196Q51.1875 68.92008 51.109375 70.20133L50.015625 70.20133Q50.03125 69.18571 50.40625 67.74821Q50.796875 66.31071 51.5 64.98258Q52.21875 63.654457 53.03125 62.732582L48.8125 62.732582ZM55.953125 63.670082Q55.953125 62.748207 56.40625 62.107582Q56.875 61.466957 57.75 61.466957Q58.5625 61.466957 59.09375 62.045082Q59.625 62.623207 59.625 63.732582Q59.625 64.82633 59.078125 65.42008Q58.546875 65.99821 57.765625 65.99821Q56.984375 65.99821 56.46875 65.42008Q55.953125 64.84196 55.953125 63.670082ZM57.78125 62.185707Q57.390625 62.185707 57.125 62.529457Q56.875 62.873207 56.875 63.779457Q56.875 64.60758 57.125 64.95133Q57.390625 65.27946 57.78125 65.27946Q58.1875 65.27946 58.4375 64.93571Q58.703125 64.59196 58.703125 63.701332Q58.703125 62.857582 58.4375 62.529457Q58.171875 62.185707 57.78125 62.185707ZM57.78125 70.51383L62.484375 61.466957L63.34375 61.466957L58.65625 70.51383L57.78125 70.51383ZM61.5 68.18571Q61.5 67.26383 61.953125 66.62321Q62.421875 65.98258 63.3125 65.98258Q64.125 65.98258 64.65625 66.56071Q65.1875 67.12321 65.1875 68.24821Q65.1875 69.34196 64.640625 69.93571Q64.109375 70.51383 63.3125 70.51383Q62.546875 70.51383 62.015625 69.93571Q61.5 69.35758 61.5 68.18571ZM63.34375 66.70133Q62.9375 66.70133 62.671875 67.04508Q62.421875 67.38883 62.421875 68.29508Q62.421875 69.10758 62.6875 69.45133Q62.953125 69.79508 63.34375 69.79508Q63.734375 69.79508 64.0 69.45133Q64.265625 69.10758 64.265625 68.20133Q64.265625 67.37321 64.0 67.04508Q63.734375 66.70133 63.34375 66.70133Z" fill-rule="nonzero"/><path stroke="#757575" stroke-width="1.0" stroke-linecap="butt" d="M38.25 57.701336L267.75 57.701336L579.7985 57.701336" fill-rule="nonzero"/><path fill="#9e9e9e" d="M581.7985 57.701336C581.7985 56.596764 580.9031 55.701336 579.7985 55.701336C578.694 55.701336 577.7985 56.596764 577.7985 57.701336C577.7985 58.805904 578.694 59.701336 579.7985 59.701336C580.9031 59.701336 581.7985 58.805904 581.7985 57.701336" fill-rule="nonzero"/><path fill="#1a1a1a" d="M38.59375 315.28503L39.625 315.1444Q39.65625 316.12878 39.984375 316.48816Q40.3125 316.84753 40.90625 316.84753Q41.328125 316.84753 41.640625 316.66003Q41.953125 316.4569 42.0625 316.12878Q42.1875 315.78503 42.1875 315.05066L42.1875 309.12878L43.3125 309.12878L43.3125 314.98816Q43.3125 316.06628 43.046875 316.66003Q42.796875 317.25378 42.234375 317.56628Q41.671875 317.86316 40.90625 317.86316Q39.78125 317.86316 39.171875 317.22253Q38.578125 316.56628 38.59375 315.28503ZM44.796875 314.9569L45.859375 314.86316Q45.9375 315.5194 46.21875 315.92566Q46.5 316.3319 47.078125 316.59753Q47.671875 316.84753 48.40625 316.84753Q49.046875 316.84753 49.546875 316.66003Q50.046875 316.4569 50.28125 316.12878Q50.53125 315.78503 50.53125 315.3944Q50.53125 314.98816 50.296875 314.69128Q50.0625 314.37878 49.53125 314.17566Q49.171875 314.03503 47.984375 313.75378Q46.8125 313.47253 46.34375 313.22253Q45.71875 312.8944 45.421875 312.42566Q45.125 311.94128 45.125 311.34753Q45.125 310.7069 45.484375 310.1444Q45.859375 309.56628 46.5625 309.28503Q47.28125 308.98816 48.140625 308.98816Q49.09375 308.98816 49.828125 309.30066Q50.5625 309.59753 50.953125 310.2069Q51.34375 310.80066 51.375 311.55066L50.28125 311.62878Q50.1875 310.81628 49.671875 310.41003Q49.171875 309.98816 48.1875 309.98816Q47.15625 309.98816 46.6875 310.36316Q46.21875 310.73816 46.21875 311.2694Q46.21875 311.73816 46.546875 312.03503Q46.875 312.3319 48.25 312.6444Q49.640625 312.9569 50.15625 313.19128Q50.90625 313.55066 51.265625 314.0819Q51.625 314.59753 51.625 315.30066Q51.625 315.98816 51.234375 316.59753Q50.84375 317.19128 50.109375 317.53503Q49.375 317.86316 48.453125 317.86316Q47.28125 317.86316 46.484375 317.53503Q45.703125 317.19128 45.25 316.50378Q44.8125 315.81628 44.796875 314.9569ZM57.296875 315.72253L58.390625 315.84753Q58.140625 316.80066 57.4375 317.3319Q56.734375 317.86316 55.65625 317.86316Q54.296875 317.86316 53.484375 317.0194Q52.6875 316.17566 52.6875 314.66003Q52.6875 313.09753 53.5 312.23816Q54.3125 311.36316 55.59375 311.36316Q56.84375 311.36316 57.625 312.2069Q58.421875 313.05066 58.421875 314.59753Q58.421875 314.69128 58.421875 314.87878L53.78125 314.87878Q53.84375 315.91003 54.359375 316.4569Q54.875 316.98816 55.65625 316.98816Q56.234375 316.98816 56.640625 316.69128Q57.0625 316.37878 57.296875 315.72253ZM53.84375 314.0194L57.3125 314.0194Q57.25 313.22253 56.921875 312.8319Q56.40625 312.22253 55.609375 312.22253Q54.875 312.22253 54.375 312.7069Q53.890625 313.19128 53.84375 314.0194ZM60.03125 317.72253L60.03125 311.50378L60.984375 311.50378L60.984375 312.44128Q61.34375 311.78503 61.640625 311.5819Q61.953125 311.36316 62.328125 311.36316Q62.859375 311.36316 63.40625 311.69128L63.046875 312.67566Q62.65625 312.44128 62.28125 312.44128Q61.921875 312.44128 61.640625 312.66003Q61.375 312.86316 61.265625 313.23816Q61.078125 313.80066 61.078125 314.4569L61.078125 317.72253L60.03125 317.72253ZM64.34375 317.72253L64.34375 316.5194L65.546875 316.5194L65.546875 317.72253L64.34375 317.72253ZM67.046875 310.34753L67.046875 309.12878L68.109375 309.12878L68.109375 310.34753L67.046875 310.34753ZM67.046875 317.72253L67.046875 311.50378L68.109375 311.50378L68.109375 317.72253L67.046875 317.72253ZM70.046875 317.72253L70.046875 311.50378L70.984375 311.50378L70.984375 312.37878Q71.671875 311.36316 72.96875 311.36316Q73.53125 311.36316 74.0 311.56628Q74.484375 311.7694 74.71875 312.09753Q74.953125 312.42566 75.046875 312.86316Q75.09375 313.16003 75.09375 313.8944L75.09375 317.72253L74.046875 317.72253L74.046875 313.94128Q74.046875 313.28503 73.921875 312.97253Q73.796875 312.66003 73.484375 312.47253Q73.171875 312.2694 72.75 312.2694Q72.078125 312.2694 71.578125 312.7069Q71.09375 313.12878 71.09375 314.31628L71.09375 317.72253L70.046875 317.72253ZM77.296875 317.72253L77.296875 312.31628L76.359375 312.31628L76.359375 311.50378L77.296875 311.50378L77.296875 310.8319Q77.296875 310.2069 77.40625 309.91003Q77.5625 309.48816 77.9375 309.23816Q78.328125 308.98816 79.015625 308.98816Q79.46875 308.98816 80.0 309.09753L79.84375 310.00378Q79.515625 309.9569 79.21875 309.9569Q78.734375 309.9569 78.53125 310.16003Q78.34375 310.36316 78.34375 310.92566L78.34375 311.50378L79.5625 311.50378L79.5625 312.31628L78.34375 312.31628L78.34375 317.72253L77.296875 317.72253ZM79.65625 314.61316Q79.65625 312.87878 80.609375 312.05066Q81.40625 311.36316 82.5625 311.36316Q83.84375 311.36316 84.65625 312.2069Q85.484375 313.03503 85.484375 314.5194Q85.484375 315.72253 85.125 316.41003Q84.765625 317.09753 84.0625 317.48816Q83.375 317.86316 82.5625 317.86316Q81.265625 317.86316 80.453125 317.03503Q79.65625 316.19128 79.65625 314.61316ZM80.734375 314.61316Q80.734375 315.80066 81.25 316.3944Q81.78125 316.98816 82.5625 316.98816Q83.359375 316.98816 83.875 316.3944Q84.390625 315.80066 84.390625 314.5819Q84.390625 313.42566 83.859375 312.8319Q83.34375 312.23816 82.5625 312.23816Q81.78125 312.23816 81.25 312.8319Q80.734375 313.41003 80.734375 314.61316Z" fill-rule="nonzero"/><path fill="#1a1a1a" d="M99.375 310.36316Q97.734375 310.36316 96.796875 310.69128Q95.765625 311.06628 94.875 311.9569Q93.984375 312.84753 93.984375 314.25378Q93.984375 315.37878 94.6875 316.0819Q95.625 317.0194 98.296875 317.11316L97.921875 318.1444Q95.15625 318.00378 94.078125 316.92566Q93.0 315.84753 93.0 314.30066Q93.0 312.09753 94.734375 310.8319Q92.53125 311.16003 90.234375 311.48816L89.953125 310.41003Q94.546875 310.0819 99.1875 309.28503L99.375 310.36316ZM98.34375 314.0194Q97.3125 313.2694 96.5625 312.84753L97.03125 312.28503Q97.734375 312.7069 98.8125 313.4569L98.34375 314.0194ZM99.28125 312.8944Q98.15625 312.09753 97.5 311.72253L97.96875 311.16003Q98.625 311.53503 99.75 312.3319L99.28125 312.8944ZM106.0625 313.31628Q105.640625 313.69128 105.171875 314.06628Q105.640625 314.3944 106.109375 314.81628L105.453125 315.7069Q104.75 314.91003 103.859375 314.11316L103.859375 318.80066L102.921875 318.80066L102.921875 314.11316Q102.21875 314.81628 101.375 315.47253L100.90625 314.48816Q102.96875 312.94128 104.234375 310.97253L101.28125 310.97253L101.28125 310.0819L102.921875 310.0819L102.921875 307.87878L103.8125 307.87878Q104.1875 307.92566 103.859375 308.16003L103.859375 310.0819L104.75 310.0819L105.03125 309.80066L105.640625 310.41003Q105.828125 310.73816 105.453125 310.73816Q104.84375 312.00378 103.8125 313.17566L104.515625 313.59753Q105.078125 313.03503 105.453125 312.5194L106.296875 313.17566Q106.34375 313.41003 106.0625 313.31628ZM110.234375 310.22253L108.359375 310.22253L108.359375 312.98816Q108.359375 316.69128 105.125 318.56628L104.515625 317.67566Q107.421875 316.22253 107.421875 313.12878L107.421875 310.22253L105.96875 310.22253L105.96875 309.3319L111.171875 309.3319L111.171875 315.1444Q111.171875 318.56628 109.484375 318.56628L108.125 318.56628L107.984375 317.67566L109.25 317.67566Q110.234375 317.67566 110.234375 315.1444L110.234375 310.22253ZM119.1875 310.41003Q120.921875 310.50378 121.953125 311.53503Q122.984375 312.56628 122.984375 314.30066Q122.984375 315.8944 122.046875 316.8319Q121.203125 317.67566 119.703125 318.19128L119.09375 317.30066Q120.640625 316.78503 121.296875 316.12878Q122.0 315.42566 122.0 314.25378Q122.0 312.94128 121.296875 312.23816Q120.40625 311.34753 119.0 311.25378Q118.484375 313.22253 117.453125 315.28503L118.34375 316.31628L117.59375 316.87878L116.9375 316.12878Q116.5625 316.73816 116.140625 317.16003Q115.53125 317.7694 114.921875 317.7694Q114.265625 317.7694 113.703125 317.2069Q113.09375 316.59753 113.09375 315.47253Q113.09375 313.78503 114.921875 311.91003Q114.59375 310.50378 114.453125 309.23816L115.34375 309.23816Q115.765625 309.3319 115.4375 309.61316Q115.53125 310.6444 115.71875 311.34753Q116.9375 310.59753 118.203125 310.41003Q118.390625 309.7069 118.578125 308.30066L119.515625 308.53503Q119.984375 308.72253 119.515625 308.91003L119.1875 310.41003ZM116.28125 315.37878Q115.671875 314.3944 115.203125 312.94128Q114.03125 314.34753 114.03125 315.56628Q114.03125 316.22253 114.40625 316.59753Q114.640625 316.8319 114.921875 316.8319Q115.15625 316.8319 115.484375 316.50378Q115.765625 316.22253 116.28125 315.37878ZM118.015625 311.34753Q116.890625 311.53503 115.953125 312.28503Q116.421875 313.87878 116.84375 314.48816Q117.640625 312.94128 118.015625 311.34753ZM134.375 310.36316Q132.73438 310.36316 131.79688 310.69128Q130.76562 311.06628 129.875 311.9569Q128.98438 312.84753 128.98438 314.25378Q128.98438 315.37878 129.6875 316.0819Q130.625 317.0194 133.29688 317.11316L132.92188 318.1444Q130.15625 318.00378 129.07812 316.92566Q128.0 315.84753 128.0 314.30066Q128.0 312.09753 129.73438 310.8319Q127.53125 311.16003 125.234375 311.48816L124.953125 310.41003Q129.54688 310.0819 134.1875 309.28503L134.375 310.36316ZM136.04688 313.59753L136.04688 312.7069L138.48438 312.7069L138.48438 310.78503L137.875 310.78503Q137.45312 311.62878 136.70312 312.28503L136.0 311.5819Q137.40625 310.41003 137.96875 308.11316L138.90625 308.3944Q139.1875 308.53503 138.76562 308.67566Q138.57812 309.23816 138.25 309.8944L141.20312 309.8944L141.20312 310.78503L139.42188 310.78503L139.42188 312.7069L141.76562 312.7069L141.76562 313.59753L139.42188 313.59753Q139.42188 314.2069 139.32812 314.81628Q140.3125 315.5194 141.67188 317.0194L141.01562 317.91003Q139.70312 316.2694 139.09375 315.61316Q138.57812 317.25378 136.70312 318.47253L136.04688 317.62878Q138.48438 316.4569 138.48438 313.59753L136.04688 313.59753ZM146.03125 309.56628L146.03125 318.00378L145.09375 318.00378L145.09375 317.25378L143.125 317.25378L143.125 318.1444L142.1875 318.1444L142.1875 309.56628L146.03125 309.56628ZM145.09375 310.4569L143.125 310.4569L143.125 316.36316L145.09375 316.36316L145.09375 310.4569ZM153.85938 317.48816Q154.60938 317.3944 155.125 316.87878Q155.6875 316.31628 155.6875 315.37878Q155.6875 314.34753 155.07812 313.73816Q154.46875 313.12878 153.15625 313.12878Q151.60938 313.12878 150.76562 313.73816Q149.96875 314.30066 148.70312 315.75378L147.90625 315.05066Q151.28125 311.67566 153.01562 309.42566Q151.46875 309.61316 149.92188 309.75378L149.59375 308.67566Q151.89062 308.67566 153.67188 308.44128L154.09375 308.25378L154.60938 308.7694Q155.125 309.23816 154.375 309.37878Q152.96875 310.97253 151.5625 312.5194Q152.54688 312.28503 153.20312 312.28503Q154.98438 312.28503 155.82812 313.12878Q156.67188 313.97253 156.67188 315.28503Q156.67188 316.6444 155.92188 317.3944Q154.79688 318.5194 153.0625 318.5194Q151.42188 318.5194 150.67188 317.7694Q150.0625 317.16003 150.0625 316.31628Q150.0625 315.75378 150.48438 315.3319Q150.95312 314.86316 151.5625 314.86316Q152.40625 314.86316 152.96875 315.42566Q153.625 316.0819 153.85938 317.48816ZM152.92188 317.62878Q152.78125 316.41003 152.35938 315.98816Q152.03125 315.66003 151.70312 315.66003Q151.32812 315.66003 151.14062 315.84753Q150.90625 316.0819 150.90625 316.36316Q150.90625 316.78503 151.28125 317.16003Q151.75 317.62878 152.5 317.62878Q152.6875 317.62878 152.92188 317.62878ZM161.1875 309.94128Q161.51562 310.41003 161.70312 311.30066L160.90625 311.67566Q160.71875 310.8319 160.48438 310.36316L161.1875 309.94128ZM159.07812 310.78503Q158.98438 312.42566 158.65625 313.92566L157.71875 313.73816Q158.09375 311.91003 158.14062 310.36316L159.03125 310.50378Q159.45312 310.59753 159.07812 310.78503ZM160.34375 318.80066L159.40625 318.80066L159.40625 307.97253L160.29688 307.97253Q160.76562 308.06628 160.34375 308.34753L160.34375 318.80066ZM168.3125 309.05066L168.3125 309.80066L165.45312 309.80066L165.45312 310.41003L167.75 310.41003L167.75 311.16003L165.45312 311.16003L165.45312 311.81628L168.64062 311.81628L168.64062 312.56628L161.46875 312.56628L161.46875 311.81628L164.51562 311.81628L164.51562 311.16003L162.21875 311.16003L162.21875 310.41003L164.51562 310.41003L164.51562 309.80066L161.70312 309.80066L161.70312 309.05066L164.51562 309.05066L164.51562 307.92566L165.40625 307.92566Q165.78125 307.97253 165.45312 308.2069L165.45312 309.05066L168.3125 309.05066ZM167.60938 313.17566L167.60938 318.09753Q167.60938 318.7069 166.95312 318.7069L166.15625 318.7069L165.875 317.81628L166.48438 317.81628Q166.67188 317.81628 166.67188 317.62878L166.67188 316.73816L163.4375 316.73816L163.4375 318.84753L162.5 318.84753L162.5 313.17566L167.60938 313.17566ZM166.67188 313.92566L163.4375 313.92566L163.4375 314.5819L166.67188 314.5819L166.67188 313.92566ZM166.67188 315.3319L163.4375 315.3319L163.4375 315.98816L166.67188 315.98816L166.67188 315.3319ZM179.89062 310.78503Q179.89062 311.5819 179.14062 311.5819L178.0625 311.5819L177.875 310.69128L178.8125 310.69128Q178.95312 310.69128 178.95312 310.55066L178.95312 309.47253L176.51562 309.47253L176.51562 312.23816L179.51562 312.23816L179.65625 312.05066L180.40625 312.5194Q180.59375 312.7069 180.26562 312.75378Q179.98438 314.67566 179.14062 316.31628Q179.70312 317.11316 180.78125 317.7694L180.21875 318.66003Q179.32812 318.05066 178.625 317.16003Q177.92188 318.1444 177.125 318.75378L176.5625 317.86316Q177.35938 317.25378 178.01562 316.41003Q177.26562 315.00378 176.9375 313.12878L176.51562 313.12878L176.51562 318.75378L175.57812 318.75378L175.57812 308.5819L179.89062 308.5819L179.89062 310.78503ZM174.82812 310.2694L173.14062 310.2694L173.14062 311.34753L175.29688 311.34753L175.29688 312.23816L174.5 312.23816L173.84375 313.59753L175.0625 313.59753L175.0625 314.48816L173.14062 314.48816L173.14062 315.56628L175.0625 315.56628L175.0625 316.4569L173.14062 316.4569L173.14062 318.80066L172.20312 318.80066L172.20312 316.4569L170.14062 316.4569L170.14062 315.56628L172.20312 315.56628L172.20312 314.48816L170.14062 314.48816L170.14062 313.59753L171.45312 313.59753L170.84375 312.23816L169.8125 312.23816L169.8125 311.34753L172.20312 311.34753L172.20312 310.2694L170.42188 310.2694L170.42188 309.37878L172.20312 309.37878L172.20312 308.0194L173.09375 308.0194Q173.46875 308.06628 173.14062 308.30066L173.14062 309.37878L174.82812 309.37878L174.82812 310.2694ZM172.39062 313.59753L173.0 313.59753L173.51562 312.23816L171.82812 312.23816L172.39062 313.59753ZM177.73438 313.12878Q177.875 314.25378 178.57812 315.56628Q179.14062 314.44128 179.32812 313.12878L177.73438 313.12878ZM189.875 311.72253Q189.96875 313.50378 189.875 315.28503Q191.28125 315.80066 192.59375 316.73816L192.03125 317.62878Q191.04688 316.87878 189.875 316.31628Q189.875 317.16003 189.35938 317.67566Q188.79688 318.23816 187.71875 318.23816Q186.64062 318.23816 186.07812 317.67566Q185.60938 317.2069 185.60938 316.4569Q185.60938 315.80066 185.98438 315.42566Q186.54688 314.86316 187.67188 314.86316Q188.28125 314.86316 188.89062 315.00378Q188.98438 313.41003 188.89062 311.7694L185.42188 312.00378L185.42188 311.0194L188.79688 310.8319Q188.75 309.5194 188.60938 308.48816L189.59375 308.48816Q190.10938 308.5819 189.6875 308.86316Q189.73438 309.84753 189.78125 310.78503L192.3125 310.6444L192.3125 311.62878L189.875 311.72253ZM182.79688 318.00378Q182.60938 316.69128 182.60938 314.9569Q182.60938 311.16003 183.17188 308.86316L184.20312 309.05066Q184.53125 309.19128 184.15625 309.37878Q183.64062 311.0194 183.64062 314.9569Q183.64062 316.73816 183.875 317.81628L182.79688 318.00378ZM188.89062 315.94128Q188.09375 315.7069 187.67188 315.7069Q187.01562 315.7069 186.73438 315.98816Q186.5 316.22253 186.5 316.4569Q186.5 316.8319 186.6875 317.0194Q187.01562 317.34753 187.67188 317.34753Q188.32812 317.34753 188.60938 317.0194Q188.9375 316.6444 188.89062 315.94128ZM199.4375 317.7694Q201.35938 317.5819 202.01562 316.92566Q202.53125 316.41003 202.53125 315.47253Q202.53125 314.44128 202.01562 313.92566Q201.40625 313.31628 200.32812 313.22253Q199.57812 315.66003 198.64062 316.6444L198.92188 317.25378L198.03125 317.91003L197.79688 317.3944Q196.57812 318.42566 195.73438 318.42566Q195.17188 318.42566 194.70312 317.9569Q194.1875 317.44128 194.1875 316.55066Q194.1875 314.9569 195.26562 313.87878Q195.92188 313.22253 196.625 312.84753L196.71875 311.06628L194.75 311.16003L194.5625 310.12878L196.76562 310.0819Q196.8125 309.00378 196.90625 308.0194L197.79688 308.0194Q198.26562 308.11316 197.89062 308.3944Q197.79688 309.23816 197.75 310.03503Q200.0 309.8944 201.59375 309.61316L201.78125 310.6444Q199.8125 310.87878 197.70312 310.97253L197.60938 312.47253Q198.26562 312.23816 199.4375 312.19128L199.57812 311.44128L200.46875 311.5819Q200.89062 311.67566 200.5625 311.9569L200.51562 312.28503Q201.96875 312.42566 202.76562 313.22253Q203.65625 314.11316 203.65625 315.5194Q203.65625 316.8319 202.85938 317.62878Q202.01562 318.47253 200.04688 318.80066L199.4375 317.7694ZM196.76562 313.8319Q196.39062 314.0194 195.92188 314.48816Q195.07812 315.3319 195.07812 316.69128Q195.07812 317.06628 195.35938 317.34753Q195.45312 317.44128 195.73438 317.44128Q196.4375 317.44128 197.32812 316.55066Q196.85938 315.1444 196.76562 313.8319ZM197.70312 313.36316Q197.75 314.5819 198.17188 315.7069Q198.92188 314.67566 199.25 313.12878Q198.40625 313.12878 197.70312 313.36316ZM210.85938 317.48816Q211.60938 317.3944 212.125 316.87878Q212.6875 316.31628 212.6875 315.37878Q212.6875 314.34753 212.07812 313.73816Q211.46875 313.12878 210.15625 313.12878Q208.60938 313.12878 207.76562 313.73816Q206.96875 314.30066 205.70312 315.75378L204.90625 315.05066Q208.28125 311.67566 210.01562 309.42566Q208.46875 309.61316 206.92188 309.75378L206.59375 308.67566Q208.89062 308.67566 210.67188 308.44128L211.09375 308.25378L211.60938 308.7694Q212.125 309.23816 211.375 309.37878Q209.96875 310.97253 208.5625 312.5194Q209.54688 312.28503 210.20312 312.28503Q211.98438 312.28503 212.82812 313.12878Q213.67188 313.97253 213.67188 315.28503Q213.67188 316.6444 212.92188 317.3944Q211.79688 318.5194 210.0625 318.5194Q208.42188 318.5194 207.67188 317.7694Q207.0625 317.16003 207.0625 316.31628Q207.0625 315.75378 207.48438 315.3319Q207.95312 314.86316 208.5625 314.86316Q209.40625 314.86316 209.96875 315.42566Q210.625 316.0819 210.85938 317.48816ZM209.92188 317.62878Q209.78125 316.41003 209.35938 315.98816Q209.03125 315.66003 208.70312 315.66003Q208.32812 315.66003 208.14062 315.84753Q207.90625 316.0819 207.90625 316.36316Q207.90625 316.78503 208.28125 317.16003Q208.75 317.62878 209.5 317.62878Q209.6875 317.62878 209.92188 317.62878Z" fill-rule="nonzero"/><path fill="#9e9e9e" d="M38.75 332.4569L39.8125 332.31628Q39.984375 333.2069 40.421875 333.61316Q40.859375 334.00378 41.484375 334.00378Q42.234375 334.00378 42.75 333.48816Q43.265625 332.97253 43.265625 332.2069Q43.265625 331.48816 42.78125 331.0194Q42.3125 330.53503 41.578125 330.53503Q41.28125 330.53503 40.828125 330.66003L40.953125 329.72253Q41.0625 329.73816 41.125 329.73816Q41.796875 329.73816 42.328125 329.3944Q42.875 329.03503 42.875 328.30066Q42.875 327.72253 42.484375 327.34753Q42.09375 326.9569 41.46875 326.9569Q40.859375 326.9569 40.4375 327.34753Q40.03125 327.73816 39.921875 328.50378L38.859375 328.31628Q39.046875 327.2694 39.734375 326.69128Q40.421875 326.09753 41.4375 326.09753Q42.140625 326.09753 42.734375 326.41003Q43.328125 326.7069 43.640625 327.22253Q43.953125 327.73816 43.953125 328.3319Q43.953125 328.87878 43.65625 329.34753Q43.359375 329.80066 42.78125 330.06628Q43.53125 330.23816 43.953125 330.80066Q44.375 331.34753 44.375 332.19128Q44.375 333.31628 43.546875 334.09753Q42.734375 334.87878 41.484375 334.87878Q40.359375 334.87878 39.609375 334.2069Q38.859375 333.5194 38.75 332.4569ZM51.21875 328.23816L50.171875 328.31628Q50.03125 327.69128 49.78125 327.41003Q49.34375 326.9569 48.71875 326.9569Q48.21875 326.9569 47.828125 327.23816Q47.34375 327.61316 47.046875 328.31628Q46.765625 329.00378 46.75 330.28503Q47.125 329.7069 47.671875 329.42566Q48.234375 329.1444 48.84375 329.1444Q49.890625 329.1444 50.625 329.92566Q51.375 330.7069 51.375 331.92566Q51.375 332.73816 51.015625 333.44128Q50.671875 334.12878 50.0625 334.50378Q49.453125 334.86316 48.6875 334.86316Q47.359375 334.86316 46.53125 333.8944Q45.703125 332.92566 45.703125 330.7069Q45.703125 328.2069 46.625 327.0819Q47.421875 326.09753 48.78125 326.09753Q49.796875 326.09753 50.4375 326.67566Q51.09375 327.23816 51.21875 328.23816ZM46.921875 331.94128Q46.921875 332.48816 47.140625 332.98816Q47.375 333.47253 47.78125 333.73816Q48.203125 334.00378 48.671875 334.00378Q49.328125 334.00378 49.8125 333.47253Q50.296875 332.92566 50.296875 332.00378Q50.296875 331.11316 49.8125 330.59753Q49.34375 330.0819 48.625 330.0819Q47.90625 330.0819 47.40625 330.59753Q46.921875 331.11316 46.921875 331.94128ZM53.34375 334.72253L53.34375 333.5194L54.546875 333.5194L54.546875 334.72253L53.34375 334.72253ZM61.21875 328.23816L60.171875 328.31628Q60.03125 327.69128 59.78125 327.41003Q59.34375 326.9569 58.71875 326.9569Q58.21875 326.9569 57.828125 327.23816Q57.34375 327.61316 57.046875 328.31628Q56.765625 329.00378 56.75 330.28503Q57.125 329.7069 57.671875 329.42566Q58.234375 329.1444 58.84375 329.1444Q59.890625 329.1444 60.625 329.92566Q61.375 330.7069 61.375 331.92566Q61.375 332.73816 61.015625 333.44128Q60.671875 334.12878 60.0625 334.50378Q59.453125 334.86316 58.6875 334.86316Q57.359375 334.86316 56.53125 333.8944Q55.703125 332.92566 55.703125 330.7069Q55.703125 328.2069 56.625 327.0819Q57.421875 326.09753 58.78125 326.09753Q59.796875 326.09753 60.4375 326.67566Q61.09375 327.23816 61.21875 328.23816ZM56.921875 331.94128Q56.921875 332.48816 57.140625 332.98816Q57.375 333.47253 57.78125 333.73816Q58.203125 334.00378 58.671875 334.00378Q59.328125 334.00378 59.8125 333.47253Q60.296875 332.92566 60.296875 332.00378Q60.296875 331.11316 59.8125 330.59753Q59.34375 330.0819 58.625 330.0819Q57.90625 330.0819 57.40625 330.59753Q56.921875 331.11316 56.921875 331.94128ZM62.953125 328.19128Q62.953125 327.2694 63.40625 326.62878Q63.875 325.98816 64.75 325.98816Q65.5625 325.98816 66.09375 326.56628Q66.625 327.1444 66.625 328.25378Q66.625 329.34753 66.078125 329.94128Q65.546875 330.5194 64.765625 330.5194Q63.984375 330.5194 63.46875 329.94128Q62.953125 329.36316 62.953125 328.19128ZM64.78125 326.7069Q64.390625 326.7069 64.125 327.05066Q63.875 327.3944 63.875 328.30066Q63.875 329.12878 64.125 329.47253Q64.390625 329.80066 64.78125 329.80066Q65.1875 329.80066 65.4375 329.4569Q65.703125 329.11316 65.703125 328.22253Q65.703125 327.37878 65.4375 327.05066Q65.171875 326.7069 64.78125 326.7069ZM64.78125 335.03503L69.484375 325.98816L70.34375 325.98816L65.65625 335.03503L64.78125 335.03503ZM68.5 332.7069Q68.5 331.78503 68.953125 331.1444Q69.421875 330.50378 70.3125 330.50378Q71.125 330.50378 71.65625 331.0819Q72.1875 331.6444 72.1875 332.7694Q72.1875 333.86316 71.640625 334.4569Q71.109375 335.03503 70.3125 335.03503Q69.546875 335.03503 69.015625 334.4569Q68.5 333.87878 68.5 332.7069ZM70.34375 331.22253Q69.9375 331.22253 69.671875 331.56628Q69.421875 331.91003 69.421875 332.81628Q69.421875 333.62878 69.6875 333.97253Q69.953125 334.31628 70.34375 334.31628Q70.734375 334.31628 71.0 333.97253Q71.265625 333.62878 71.265625 332.72253Q71.265625 331.8944 71.0 331.56628Q70.734375 331.22253 70.34375 331.22253Z" fill-rule="nonzero"/><path stroke="#757575" stroke-width="1.0" stroke-linecap="butt" d="M38.25 322.22253L267.75 322.22253L296.5655 322.22253" fill-rule="nonzero"/><path fill="#9e9e9e" d="M298.5655 322.22253C298.5655 321.11795 297.67004 320.22253 296.5655 320.22253C295.4609 320.22253 294.5655 321.11795 294.5655 322.22253C294.5655 323.3271 295.4609 324.22253 296.5655 324.22253C297.67004 324.22253 298.5655 323.3271 298.5655 322.22253" fill-rule="nonzero"/><path fill="#1a1a1a" d="M973.09375 73.11488L974.125 72.97426Q974.15625 73.95863 974.4844 74.31801Q974.8125 74.67738 975.40625 74.67738Q975.8281 74.67738 976.1406 74.48988Q976.4531 74.28676 976.5625 73.95863Q976.6875 73.61488 976.6875 72.88051L976.6875 66.95863L977.8125 66.95863L977.8125 72.81801Q977.8125 73.89613 977.5469 74.48988Q977.2969 75.08363 976.7344 75.39613Q976.1719 75.69301 975.40625 75.69301Q974.28125 75.69301 973.6719 75.05238Q973.0781 74.39613 973.09375 73.11488ZM979.2969 72.78676L980.3594 72.69301Q980.4375 73.34926 980.71875 73.75551Q981.0 74.16176 981.5781 74.42738Q982.1719 74.67738 982.90625 74.67738Q983.5469 74.67738 984.0469 74.48988Q984.5469 74.28676 984.78125 73.95863Q985.03125 73.61488 985.03125 73.22426Q985.03125 72.81801 984.7969 72.52113Q984.5625 72.20863 984.03125 72.00551Q983.6719 71.86488 982.4844 71.58363Q981.3125 71.30238 980.84375 71.05238Q980.21875 70.72426 979.9219 70.25551Q979.625 69.77113 979.625 69.17738Q979.625 68.53676 979.9844 67.97426Q980.3594 67.39613 981.0625 67.11488Q981.78125 66.81801 982.6406 66.81801Q983.59375 66.81801 984.3281 67.13051Q985.0625 67.42738 985.4531 68.03676Q985.84375 68.63051 985.875 69.38051L984.78125 69.45863Q984.6875 68.64613 984.1719 68.23988Q983.6719 67.81801 982.6875 67.81801Q981.65625 67.81801 981.1875 68.19301Q980.71875 68.56801 980.71875 69.09926Q980.71875 69.56801 981.0469 69.86488Q981.375 70.16176 982.75 70.47426Q984.1406 70.78676 984.65625 71.02113Q985.40625 71.38051 985.7656 71.91176Q986.125 72.42738 986.125 73.13051Q986.125 73.81801 985.7344 74.42738Q985.34375 75.02113 984.6094 75.36488Q983.875 75.69301 982.9531 75.69301Q981.78125 75.69301 980.9844 75.36488Q980.2031 75.02113 979.75 74.33363Q979.3125 73.64613 979.2969 72.78676ZM991.7969 73.55238L992.8906 73.67738Q992.6406 74.63051 991.9375 75.16176Q991.2344 75.69301 990.15625 75.69301Q988.7969 75.69301 987.9844 74.84926Q987.1875 74.00551 987.1875 72.48988Q987.1875 70.92738 988.0 70.06801Q988.8125 69.19301 990.09375 69.19301Q991.34375 69.19301 992.125 70.03676Q992.9219 70.88051 992.9219 72.42738Q992.9219 72.52113 992.9219 72.70863L988.28125 72.70863Q988.34375 73.73988 988.8594 74.28676Q989.375 74.81801 990.15625 74.81801Q990.7344 74.81801 991.1406 74.52113Q991.5625 74.20863 991.7969 73.55238ZM988.34375 71.84926L991.8125 71.84926Q991.75 71.05238 991.4219 70.66176Q990.90625 70.05238 990.1094 70.05238Q989.375 70.05238 988.875 70.53676Q988.3906 71.02113 988.34375 71.84926ZM994.53125 75.55238L994.53125 69.33363L995.4844 69.33363L995.4844 70.27113Q995.84375 69.61488 996.1406 69.41176Q996.4531 69.19301 996.8281 69.19301Q997.3594 69.19301 997.90625 69.52113L997.5469 70.50551Q997.15625 70.27113 996.78125 70.27113Q996.4219 70.27113 996.1406 70.48988Q995.875 70.69301 995.7656 71.06801Q995.5781 71.63051 995.5781 72.28676L995.5781 75.55238L994.53125 75.55238ZM998.84375 75.55238L998.84375 74.34926L1000.0469 74.34926L1000.0469 75.55238L998.84375 75.55238ZM1001.5469 68.17738L1001.5469 66.95863L1002.6094 66.95863L1002.6094 68.17738L1001.5469 68.17738ZM1001.5469 75.55238L1001.5469 69.33363L1002.6094 69.33363L1002.6094 75.55238L1001.5469 75.55238ZM1004.5469 75.55238L1004.5469 69.33363L1005.4844 69.33363L1005.4844 70.20863Q1006.1719 69.19301 1007.46875 69.19301Q1008.03125 69.19301 1008.5 69.39613Q1008.9844 69.59926 1009.21875 69.92738Q1009.4531 70.25551 1009.5469 70.69301Q1009.59375 70.98988 1009.59375 71.72426L1009.59375 75.55238L1008.5469 75.55238L1008.5469 71.77113Q1008.5469 71.11488 1008.4219 70.80238Q1008.2969 70.48988 1007.9844 70.30238Q1007.6719 70.09926 1007.25 70.09926Q1006.5781 70.09926 1006.0781 70.53676Q1005.59375 70.95863 1005.59375 72.14613L1005.59375 75.55238L1004.5469 75.55238ZM1011.7969 75.55238L1011.7969 70.14613L1010.8594 70.14613L1010.8594 69.33363L1011.7969 69.33363L1011.7969 68.66176Q1011.7969 68.03676 1011.90625 67.73988Q1012.0625 67.31801 1012.4375 67.06801Q1012.8281 66.81801 1013.5156 66.81801Q1013.96875 66.81801 1014.5 66.92738L1014.34375 67.83363Q1014.0156 67.78676 1013.71875 67.78676Q1013.2344 67.78676 1013.03125 67.98988Q1012.84375 68.19301 1012.84375 68.75551L1012.84375 69.33363L1014.0625 69.33363L1014.0625 70.14613L1012.84375 70.14613L1012.84375 75.55238L1011.7969 75.55238ZM1014.15625 72.44301Q1014.15625 70.70863 1015.1094 69.88051Q1015.90625 69.19301 1017.0625 69.19301Q1018.34375 69.19301 1019.15625 70.03676Q1019.9844 70.86488 1019.9844 72.34926Q1019.9844 73.55238 1019.625 74.23988Q1019.2656 74.92738 1018.5625 75.31801Q1017.875 75.69301 1017.0625 75.69301Q1015.7656 75.69301 1014.9531 74.86488Q1014.15625 74.02113 1014.15625 72.44301ZM1015.2344 72.44301Q1015.2344 73.63051 1015.75 74.22426Q1016.28125 74.81801 1017.0625 74.81801Q1017.8594 74.81801 1018.375 74.22426Q1018.8906 73.63051 1018.8906 72.41176Q1018.8906 71.25551 1018.3594 70.66176Q1017.84375 70.06801 1017.0625 70.06801Q1016.28125 70.06801 1015.75 70.66176Q1015.2344 71.23988 1015.2344 72.44301Z" fill-rule="nonzero"/><path fill="#1a1a1a" d="M1033.875 68.19301Q1032.2344 68.19301 1031.2969 68.52113Q1030.2656 68.89613 1029.375 69.78676Q1028.4844 70.67738 1028.4844 72.08363Q1028.4844 73.20863 1029.1875 73.91176Q1030.125 74.84926 1032.7969 74.94301L1032.4219 75.97426Q1029.6562 75.83363 1028.5781 74.75551Q1027.5 73.67738 1027.5 72.13051Q1027.5 69.92738 1029.2344 68.66176Q1027.0312 68.98988 1024.7344 69.31801L1024.4531 68.23988Q1029.0469 67.91176 1033.6875 67.11488L1033.875 68.19301ZM1032.8438 71.84926Q1031.8125 71.09926 1031.0625 70.67738L1031.5312 70.11488Q1032.2344 70.53676 1033.3125 71.28676L1032.8438 71.84926ZM1033.7812 70.72426Q1032.6562 69.92738 1032.0 69.55238L1032.4688 68.98988Q1033.125 69.36488 1034.25 70.16176L1033.7812 70.72426ZM1040.5625 71.14613Q1040.1406 71.52113 1039.6719 71.89613Q1040.1406 72.22426 1040.6094 72.64613L1039.9531 73.53676Q1039.25 72.73988 1038.3594 71.94301L1038.3594 76.63051L1037.4219 76.63051L1037.4219 71.94301Q1036.7188 72.64613 1035.875 73.30238L1035.4062 72.31801Q1037.4688 70.77113 1038.7344 68.80238L1035.7812 68.80238L1035.7812 67.91176L1037.4219 67.91176L1037.4219 65.70863L1038.3125 65.70863Q1038.6875 65.75551 1038.3594 65.98988L1038.3594 67.91176L1039.25 67.91176L1039.5312 67.63051L1040.1406 68.23988Q1040.3281 68.56801 1039.9531 68.56801Q1039.3438 69.83363 1038.3125 71.00551L1039.0156 71.42738Q1039.5781 70.86488 1039.9531 70.34926L1040.7969 71.00551Q1040.8438 71.23988 1040.5625 71.14613ZM1044.7344 68.05238L1042.8594 68.05238L1042.8594 70.81801Q1042.8594 74.52113 1039.625 76.39613L1039.0156 75.50551Q1041.9219 74.05238 1041.9219 70.95863L1041.9219 68.05238L1040.4688 68.05238L1040.4688 67.16176L1045.6719 67.16176L1045.6719 72.97426Q1045.6719 76.39613 1043.9844 76.39613L1042.625 76.39613L1042.4844 75.50551L1043.75 75.50551Q1044.7344 75.50551 1044.7344 72.97426L1044.7344 68.05238ZM1053.6875 68.23988Q1055.4219 68.33363 1056.4531 69.36488Q1057.4844 70.39613 1057.4844 72.13051Q1057.4844 73.72426 1056.5469 74.66176Q1055.7031 75.50551 1054.2031 76.02113L1053.5938 75.13051Q1055.1406 74.61488 1055.7969 73.95863Q1056.5 73.25551 1056.5 72.08363Q1056.5 70.77113 1055.7969 70.06801Q1054.9062 69.17738 1053.5 69.08363Q1052.9844 71.05238 1051.9531 73.11488L1052.8438 74.14613L1052.0938 74.70863L1051.4375 73.95863Q1051.0625 74.56801 1050.6406 74.98988Q1050.0312 75.59926 1049.4219 75.59926Q1048.7656 75.59926 1048.2031 75.03676Q1047.5938 74.42738 1047.5938 73.30238Q1047.5938 71.61488 1049.4219 69.73988Q1049.0938 68.33363 1048.9531 67.06801L1049.8438 67.06801Q1050.2656 67.16176 1049.9375 67.44301Q1050.0312 68.47426 1050.2188 69.17738Q1051.4375 68.42738 1052.7031 68.23988Q1052.8906 67.53676 1053.0781 66.13051L1054.0156 66.36488Q1054.4844 66.55238 1054.0156 66.73988L1053.6875 68.23988ZM1050.7812 73.20863Q1050.1719 72.22426 1049.7031 70.77113Q1048.5312 72.17738 1048.5312 73.39613Q1048.5312 74.05238 1048.9062 74.42738Q1049.1406 74.66176 1049.4219 74.66176Q1049.6562 74.66176 1049.9844 74.33363Q1050.2656 74.05238 1050.7812 73.20863ZM1052.5156 69.17738Q1051.3906 69.36488 1050.4531 70.11488Q1050.9219 71.70863 1051.3438 72.31801Q1052.1406 70.77113 1052.5156 69.17738ZM1068.875 68.19301Q1067.2344 68.19301 1066.2969 68.52113Q1065.2656 68.89613 1064.375 69.78676Q1063.4844 70.67738 1063.4844 72.08363Q1063.4844 73.20863 1064.1875 73.91176Q1065.125 74.84926 1067.7969 74.94301L1067.4219 75.97426Q1064.6562 75.83363 1063.5781 74.75551Q1062.5 73.67738 1062.5 72.13051Q1062.5 69.92738 1064.2344 68.66176Q1062.0312 68.98988 1059.7344 69.31801L1059.4531 68.23988Q1064.0469 67.91176 1068.6875 67.11488L1068.875 68.19301ZM1070.5469 71.42738L1070.5469 70.53676L1072.9844 70.53676L1072.9844 68.61488L1072.375 68.61488Q1071.9531 69.45863 1071.2031 70.11488L1070.5 69.41176Q1071.9062 68.23988 1072.4688 65.94301L1073.4062 66.22426Q1073.6875 66.36488 1073.2656 66.50551Q1073.0781 67.06801 1072.75 67.72426L1075.7031 67.72426L1075.7031 68.61488L1073.9219 68.61488L1073.9219 70.53676L1076.2656 70.53676L1076.2656 71.42738L1073.9219 71.42738Q1073.9219 72.03676 1073.8281 72.64613Q1074.8125 73.34926 1076.1719 74.84926L1075.5156 75.73988Q1074.2031 74.09926 1073.5938 73.44301Q1073.0781 75.08363 1071.2031 76.30238L1070.5469 75.45863Q1072.9844 74.28676 1072.9844 71.42738L1070.5469 71.42738ZM1080.5312 67.39613L1080.5312 75.83363L1079.5938 75.83363L1079.5938 75.08363L1077.625 75.08363L1077.625 75.97426L1076.6875 75.97426L1076.6875 67.39613L1080.5312 67.39613ZM1079.5938 68.28676L1077.625 68.28676L1077.625 74.19301L1079.5938 74.19301L1079.5938 68.28676ZM1088.3594 75.31801Q1089.1094 75.22426 1089.625 74.70863Q1090.1875 74.14613 1090.1875 73.20863Q1090.1875 72.17738 1089.5781 71.56801Q1088.9688 70.95863 1087.6562 70.95863Q1086.1094 70.95863 1085.2656 71.56801Q1084.4688 72.13051 1083.2031 73.58363L1082.4062 72.88051Q1085.7812 69.50551 1087.5156 67.25551Q1085.9688 67.44301 1084.4219 67.58363L1084.0938 66.50551Q1086.3906 66.50551 1088.1719 66.27113L1088.5938 66.08363L1089.1094 66.59926Q1089.625 67.06801 1088.875 67.20863Q1087.4688 68.80238 1086.0625 70.34926Q1087.0469 70.11488 1087.7031 70.11488Q1089.4844 70.11488 1090.3281 70.95863Q1091.1719 71.80238 1091.1719 73.11488Q1091.1719 74.47426 1090.4219 75.22426Q1089.2969 76.34926 1087.5625 76.34926Q1085.9219 76.34926 1085.1719 75.59926Q1084.5625 74.98988 1084.5625 74.14613Q1084.5625 73.58363 1084.9844 73.16176Q1085.4531 72.69301 1086.0625 72.69301Q1086.9062 72.69301 1087.4688 73.25551Q1088.125 73.91176 1088.3594 75.31801ZM1087.4219 75.45863Q1087.2812 74.23988 1086.8594 73.81801Q1086.5312 73.48988 1086.2031 73.48988Q1085.8281 73.48988 1085.6406 73.67738Q1085.4062 73.91176 1085.4062 74.19301Q1085.4062 74.61488 1085.7812 74.98988Q1086.25 75.45863 1087.0 75.45863Q1087.1875 75.45863 1087.4219 75.45863ZM1095.6875 67.77113Q1096.0156 68.23988 1096.2031 69.13051L1095.4062 69.50551Q1095.2188 68.66176 1094.9844 68.19301L1095.6875 67.77113ZM1093.5781 68.61488Q1093.4844 70.25551 1093.1562 71.75551L1092.2188 71.56801Q1092.5938 69.73988 1092.6406 68.19301L1093.5312 68.33363Q1093.9531 68.42738 1093.5781 68.61488ZM1094.8438 76.63051L1093.9062 76.63051L1093.9062 65.80238L1094.7969 65.80238Q1095.2656 65.89613 1094.8438 66.17738L1094.8438 76.63051ZM1102.8125 66.88051L1102.8125 67.63051L1099.9531 67.63051L1099.9531 68.23988L1102.25 68.23988L1102.25 68.98988L1099.9531 68.98988L1099.9531 69.64613L1103.1406 69.64613L1103.1406 70.39613L1095.9688 70.39613L1095.9688 69.64613L1099.0156 69.64613L1099.0156 68.98988L1096.7188 68.98988L1096.7188 68.23988L1099.0156 68.23988L1099.0156 67.63051L1096.2031 67.63051L1096.2031 66.88051L1099.0156 66.88051L1099.0156 65.75551L1099.9062 65.75551Q1100.2812 65.80238 1099.9531 66.03676L1099.9531 66.88051L1102.8125 66.88051ZM1102.1094 71.00551L1102.1094 75.92738Q1102.1094 76.53676 1101.4531 76.53676L1100.6562 76.53676L1100.375 75.64613L1100.9844 75.64613Q1101.1719 75.64613 1101.1719 75.45863L1101.1719 74.56801L1097.9375 74.56801L1097.9375 76.67738L1097.0 76.67738L1097.0 71.00551L1102.1094 71.00551ZM1101.1719 71.75551L1097.9375 71.75551L1097.9375 72.41176L1101.1719 72.41176L1101.1719 71.75551ZM1101.1719 73.16176L1097.9375 73.16176L1097.9375 73.81801L1101.1719 73.81801L1101.1719 73.16176ZM1114.3906 68.61488Q1114.3906 69.41176 1113.6406 69.41176L1112.5625 69.41176L1112.375 68.52113L1113.3125 68.52113Q1113.4531 68.52113 1113.4531 68.38051L1113.4531 67.30238L1111.0156 67.30238L1111.0156 70.06801L1114.0156 70.06801L1114.1562 69.88051L1114.9062 70.34926Q1115.0938 70.53676 1114.7656 70.58363Q1114.4844 72.50551 1113.6406 74.14613Q1114.2031 74.94301 1115.2812 75.59926L1114.7188 76.48988Q1113.8281 75.88051 1113.125 74.98988Q1112.4219 75.97426 1111.625 76.58363L1111.0625 75.69301Q1111.8594 75.08363 1112.5156 74.23988Q1111.7656 72.83363 1111.4375 70.95863L1111.0156 70.95863L1111.0156 76.58363L1110.0781 76.58363L1110.0781 66.41176L1114.3906 66.41176L1114.3906 68.61488ZM1109.3281 68.09926L1107.6406 68.09926L1107.6406 69.17738L1109.7969 69.17738L1109.7969 70.06801L1109.0 70.06801L1108.3438 71.42738L1109.5625 71.42738L1109.5625 72.31801L1107.6406 72.31801L1107.6406 73.39613L1109.5625 73.39613L1109.5625 74.28676L1107.6406 74.28676L1107.6406 76.63051L1106.7031 76.63051L1106.7031 74.28676L1104.6406 74.28676L1104.6406 73.39613L1106.7031 73.39613L1106.7031 72.31801L1104.6406 72.31801L1104.6406 71.42738L1105.9531 71.42738L1105.3438 70.06801L1104.3125 70.06801L1104.3125 69.17738L1106.7031 69.17738L1106.7031 68.09926L1104.9219 68.09926L1104.9219 67.20863L1106.7031 67.20863L1106.7031 65.84926L1107.5938 65.84926Q1107.9688 65.89613 1107.6406 66.13051L1107.6406 67.20863L1109.3281 67.20863L1109.3281 68.09926ZM1106.8906 71.42738L1107.5 71.42738L1108.0156 70.06801L1106.3281 70.06801L1106.8906 71.42738ZM1112.2344 70.95863Q1112.375 72.08363 1113.0781 73.39613Q1113.6406 72.27113 1113.8281 70.95863L1112.2344 70.95863ZM1124.375 68.05238Q1126.2969 70.02113 1127.0 72.78676L1125.9688 73.20863Q1125.125 70.16176 1123.5312 68.66176L1124.375 68.05238ZM1122.9688 71.80238Q1122.9688 74.52113 1122.1719 75.31801Q1121.7031 75.78676 1121.0938 75.78676Q1120.2031 75.78676 1119.3125 74.75551L1119.9219 73.91176Q1120.6719 74.66176 1121.0469 74.66176Q1121.2812 74.66176 1121.4688 74.47426Q1121.9844 73.95863 1121.9844 71.61488Q1121.9844 70.30238 1121.7031 70.02113Q1121.5625 69.88051 1121.1406 69.88051Q1120.7188 69.88051 1119.9688 69.97426Q1118.9844 73.44301 1117.625 75.92738L1116.5469 75.55238Q1117.9062 73.44301 1118.9375 70.06801Q1117.9062 70.20863 1116.9219 70.30238L1116.8281 69.27113Q1117.6719 69.27113 1119.1719 69.13051Q1119.5938 67.67738 1119.875 66.17738L1120.8594 66.50551Q1121.4219 66.73988 1120.8125 66.92738Q1120.5312 67.91176 1120.25 69.03676Q1120.8125 68.94301 1121.4219 68.94301Q1122.0781 68.94301 1122.4062 69.27113Q1122.9688 69.83363 1122.9688 71.80238ZM1125.5938 65.61488Q1126.4375 66.08363 1127.4688 66.92738L1126.9062 67.48988Q1125.875 66.69301 1125.0312 66.17738L1125.5938 65.61488ZM1125.9219 68.61488Q1124.8438 67.72426 1124.0938 67.25551L1124.6562 66.69301Q1125.5 67.16176 1126.5312 68.00551L1125.9219 68.61488ZM1128.5 75.31801Q1132.8125 73.81801 1133.0469 69.55238L1128.8281 69.55238L1128.8281 68.52113L1133.1406 68.52113L1133.1406 66.03676L1134.1719 66.03676Q1134.6406 66.13051 1134.2188 66.41176L1134.2188 68.52113L1138.7188 68.52113L1138.7188 69.55238L1134.3125 69.55238Q1135.2969 73.44301 1139.0938 75.08363L1138.4844 76.20863Q1135.2031 74.70863 1133.8438 71.14613Q1133.0469 74.98988 1128.9219 76.44301L1128.5 75.31801ZM1148.8906 75.08363L1148.7031 74.05238L1149.4531 74.05238Q1150.1094 74.05238 1149.9688 72.97426Q1149.7812 71.66176 1148.7969 70.67738L1149.6406 67.53676L1148.0938 67.53676L1148.0938 76.63051L1147.1562 76.63051L1147.1562 66.64613L1149.9219 66.64613L1150.0156 66.50551L1150.8594 67.20863L1150.6719 67.34926L1149.6406 70.48988Q1151.0469 72.03676 1151.0 73.25551Q1150.9531 75.08363 1149.7344 75.08363L1148.8906 75.08363ZM1141.3438 71.84926L1145.7969 71.84926L1145.7969 76.11488L1144.8594 76.11488L1144.8594 75.59926L1142.2812 75.59926L1142.2812 76.34926L1141.3438 76.34926L1141.3438 71.84926ZM1142.2812 72.73988L1142.2812 74.70863L1144.8594 74.70863L1144.8594 72.73988L1142.2812 72.73988ZM1143.0781 65.84926L1144.1094 65.84926Q1144.5781 65.94301 1144.1562 66.22426L1144.1562 67.25551L1146.3594 67.25551L1146.3594 68.14613L1145.7031 68.14613L1145.0469 70.11488L1146.8281 70.11488L1146.8281 71.00551L1140.4062 71.00551L1140.4062 70.11488L1142.1875 70.11488L1141.625 68.14613L1141.0156 68.14613L1141.0156 67.25551L1143.0781 67.25551L1143.0781 65.84926ZM1144.625 68.14613L1142.7031 68.14613L1143.1719 70.11488L1144.0625 70.11488L1144.625 68.14613ZM1160.9375 70.58363L1160.75 74.38051Q1160.6562 76.34926 1159.3906 76.34926L1157.9844 76.34926L1157.8438 75.31801L1159.0156 75.31801Q1159.625 75.31801 1159.6719 74.52113L1159.8594 71.47426L1157.2812 71.47426L1157.2344 71.84926Q1156.9062 74.42738 1153.5312 76.58363L1152.8281 75.69301Q1155.875 73.95863 1156.2031 72.03676L1156.2969 71.47426L1154.5156 71.47426L1154.5156 70.58363L1160.9375 70.58363ZM1156.7188 66.88051Q1155.5938 69.31801 1153.1094 71.33363L1152.3594 70.44301Q1154.7969 68.75551 1155.9219 66.08363L1156.8125 66.64613Q1157.0938 66.83363 1156.7188 66.88051ZM1162.5312 71.33363Q1159.9531 69.83363 1158.7344 66.41176L1159.625 66.03676Q1160.75 69.03676 1163.2344 70.34926L1162.5312 71.33363ZM1167.4531 70.11488Q1168.0156 69.92738 1168.5312 69.92738Q1169.1406 69.92738 1169.5156 70.30238Q1169.7969 70.58363 1169.8438 71.33363Q1171.25 70.81801 1173.0312 70.25551L1173.3594 71.38051Q1171.5312 71.66176 1169.9375 72.27113L1169.9375 74.33363L1169.0 74.33363L1169.0 72.64613Q1167.5938 73.30238 1167.1719 73.72426Q1166.6562 74.23988 1166.6562 74.75551Q1166.6562 75.03676 1166.9375 75.31801Q1167.2656 75.64613 1168.2031 75.64613L1172.1406 75.64613L1172.1406 76.53676L1168.1562 76.53676Q1166.6562 76.53676 1166.0469 75.92738Q1165.5781 75.45863 1165.5781 74.75551Q1165.5781 74.00551 1166.1875 73.39613Q1167.125 72.45863 1168.9531 71.70863Q1168.9062 71.14613 1168.7188 70.95863Q1168.5312 70.77113 1167.9219 70.77113Q1166.9844 70.77113 1165.0625 72.45863L1164.2656 71.66176Q1166.4688 70.30238 1167.2656 68.66176Q1165.9531 68.75551 1164.6406 68.84926L1164.4531 67.91176Q1166.1406 67.86488 1167.6406 67.77113Q1167.875 67.20863 1168.2031 65.89613L1169.0938 66.13051Q1169.5625 66.31801 1169.0938 66.50551Q1168.9062 67.11488 1168.6719 67.72426Q1170.3594 67.58363 1171.9062 67.34926L1172.0469 68.33363Q1170.2188 68.47426 1168.3906 68.61488Q1167.9219 69.55238 1167.4531 70.11488ZM1179.9844 70.91176L1183.7344 70.91176L1183.7344 76.34926L1182.6562 76.34926L1182.6562 75.78676L1176.7969 75.78676L1176.7969 76.48988L1175.7188 76.48988L1175.7188 70.91176L1178.9062 70.91176L1178.9062 65.94301L1179.9375 65.94301Q1180.4062 66.03676 1179.9844 66.31801L1179.9844 67.77113L1184.2031 67.77113L1184.2031 68.80238L1179.9844 68.80238L1179.9844 70.91176ZM1176.7969 74.89613L1182.6562 74.89613L1182.6562 71.80238L1176.7969 71.80238L1176.7969 74.89613ZM1192.6875 68.23988Q1194.4219 68.33363 1195.4531 69.36488Q1196.4844 70.39613 1196.4844 72.13051Q1196.4844 73.72426 1195.5469 74.66176Q1194.7031 75.50551 1193.2031 76.02113L1192.5938 75.13051Q1194.1406 74.61488 1194.7969 73.95863Q1195.5 73.25551 1195.5 72.08363Q1195.5 70.77113 1194.7969 70.06801Q1193.9062 69.17738 1192.5 69.08363Q1191.9844 71.05238 1190.9531 73.11488L1191.8438 74.14613L1191.0938 74.70863L1190.4375 73.95863Q1190.0625 74.56801 1189.6406 74.98988Q1189.0312 75.59926 1188.4219 75.59926Q1187.7656 75.59926 1187.2031 75.03676Q1186.5938 74.42738 1186.5938 73.30238Q1186.5938 71.61488 1188.4219 69.73988Q1188.0938 68.33363 1187.9531 67.06801L1188.8438 67.06801Q1189.2656 67.16176 1188.9375 67.44301Q1189.0312 68.47426 1189.2188 69.17738Q1190.4375 68.42738 1191.7031 68.23988Q1191.8906 67.53676 1192.0781 66.13051L1193.0156 66.36488Q1193.4844 66.55238 1193.0156 66.73988L1192.6875 68.23988ZM1189.7812 73.20863Q1189.1719 72.22426 1188.7031 70.77113Q1187.5312 72.17738 1187.5312 73.39613Q1187.5312 74.05238 1187.9062 74.42738Q1188.1406 74.66176 1188.4219 74.66176Q1188.6562 74.66176 1188.9844 74.33363Q1189.2656 74.05238 1189.7812 73.20863ZM1191.5156 69.17738Q1190.3906 69.36488 1189.4531 70.11488Q1189.9219 71.70863 1190.3438 72.31801Q1191.1406 70.77113 1191.5156 69.17738Z" fill-rule="nonzero"/><path fill="#9e9e9e" d="M1167.2188 92.55238L1166.1719 92.55238L1166.1719 85.83363Q1165.7812 86.19301 1165.1562 86.56801Q1164.5469 86.92738 1164.0625 87.09926L1164.0625 86.08363Q1164.9375 85.66176 1165.5938 85.08363Q1166.2656 84.48988 1166.5469 83.92738L1167.2188 83.92738L1167.2188 92.55238ZM1175.7969 91.53676L1175.7969 92.55238L1170.1094 92.55238Q1170.1094 92.17738 1170.2344 91.81801Q1170.4531 91.23988 1170.9219 90.67738Q1171.4062 90.11488 1172.3125 89.38051Q1173.7188 88.22426 1174.2031 87.55238Q1174.7031 86.88051 1174.7031 86.28676Q1174.7031 85.66176 1174.25 85.23988Q1173.7969 84.80238 1173.0781 84.80238Q1172.3125 84.80238 1171.8594 85.25551Q1171.4062 85.70863 1171.3906 86.52113L1170.3125 86.41176Q1170.4219 85.19301 1171.1406 84.56801Q1171.875 83.92738 1173.1094 83.92738Q1174.3438 83.92738 1175.0625 84.61488Q1175.7812 85.30238 1175.7812 86.31801Q1175.7812 86.83363 1175.5625 87.33363Q1175.3594 87.81801 1174.8594 88.38051Q1174.375 88.92738 1173.25 89.88051Q1172.2969 90.67738 1172.0156 90.97426Q1171.75 91.25551 1171.5781 91.53676L1175.7969 91.53676ZM1177.8438 92.55238L1177.8438 91.34926L1179.0469 91.34926L1179.0469 92.55238L1177.8438 92.55238ZM1183.625 92.55238L1183.625 90.48988L1179.9062 90.48988L1179.9062 89.52113L1183.8281 83.95863L1184.6875 83.95863L1184.6875 89.52113L1185.8438 89.52113L1185.8438 90.48988L1184.6875 90.48988L1184.6875 92.55238L1183.625 92.55238ZM1183.625 89.52113L1183.625 85.66176L1180.9375 89.52113L1183.625 89.52113ZM1187.4531 86.02113Q1187.4531 85.09926 1187.9062 84.45863Q1188.375 83.81801 1189.25 83.81801Q1190.0625 83.81801 1190.5938 84.39613Q1191.125 84.97426 1191.125 86.08363Q1191.125 87.17738 1190.5781 87.77113Q1190.0469 88.34926 1189.2656 88.34926Q1188.4844 88.34926 1187.9688 87.77113Q1187.4531 87.19301 1187.4531 86.02113ZM1189.2812 84.53676Q1188.8906 84.53676 1188.625 84.88051Q1188.375 85.22426 1188.375 86.13051Q1188.375 86.95863 1188.625 87.30238Q1188.8906 87.63051 1189.2812 87.63051Q1189.6875 87.63051 1189.9375 87.28676Q1190.2031 86.94301 1190.2031 86.05238Q1190.2031 85.20863 1189.9375 84.88051Q1189.6719 84.53676 1189.2812 84.53676ZM1189.2812 92.86488L1193.9844 83.81801L1194.8438 83.81801L1190.1562 92.86488L1189.2812 92.86488ZM1193.0 90.53676Q1193.0 89.61488 1193.4531 88.97426Q1193.9219 88.33363 1194.8125 88.33363Q1195.625 88.33363 1196.1562 88.91176Q1196.6875 89.47426 1196.6875 90.59926Q1196.6875 91.69301 1196.1406 92.28676Q1195.6094 92.86488 1194.8125 92.86488Q1194.0469 92.86488 1193.5156 92.28676Q1193.0 91.70863 1193.0 90.53676ZM1194.8438 89.05238Q1194.4375 89.05238 1194.1719 89.39613Q1193.9219 89.73988 1193.9219 90.64613Q1193.9219 91.45863 1194.1875 91.80238Q1194.4531 92.14613 1194.8438 92.14613Q1195.2344 92.14613 1195.5 91.80238Q1195.7656 91.45863 1195.7656 90.55238Q1195.7656 89.72426 1195.5 89.39613Q1195.2344 89.05238 1194.8438 89.05238Z" fill-rule="nonzero"/><path stroke="#757575" stroke-width="1.0" stroke-linecap="butt" d="M1197.75 80.05238L968.25 80.05238L742.4145 80.05238" fill-rule="nonzero"/><path fill="#9e9e9e" d="M744.4145 80.05238C744.4145 78.947815 743.51904 78.05238 742.4145 78.05238C741.30994 78.05238 740.4145 78.947815 740.4145 80.05238C740.4145 81.15695 741.30994 82.05238 742.4145 82.05238C743.51904 82.05238 744.4145 81.15695 744.4145 80.05238" fill-rule="nonzero"/><path fill="#1a1a1a" d="M1020.09375 584.4172L1021.125 584.27655Q1021.15625 585.2609 1021.4844 585.6203Q1021.8125 585.9797 1022.40625 585.9797Q1022.8281 585.9797 1023.1406 585.7922Q1023.4531 585.58905 1023.5625 585.2609Q1023.6875 584.9172 1023.6875 584.1828L1023.6875 578.2609L1024.8125 578.2609L1024.8125 584.1203Q1024.8125 585.1984 1024.5469 585.7922Q1024.2969 586.3859 1023.7344 586.6984Q1023.1719 586.9953 1022.40625 586.9953Q1021.28125 586.9953 1020.6719 586.3547Q1020.0781 585.6984 1020.09375 584.4172ZM1026.2969 584.08905L1027.3594 583.9953Q1027.4375 584.65155 1027.7188 585.0578Q1028.0 585.46405 1028.5781 585.7297Q1029.1719 585.9797 1029.9062 585.9797Q1030.5469 585.9797 1031.0469 585.7922Q1031.5469 585.58905 1031.7812 585.2609Q1032.0312 584.9172 1032.0312 584.52655Q1032.0312 584.1203 1031.7969 583.8234Q1031.5625 583.5109 1031.0312 583.3078Q1030.6719 583.1672 1029.4844 582.8859Q1028.3125 582.6047 1027.8438 582.3547Q1027.2188 582.02655 1026.9219 581.5578Q1026.625 581.0734 1026.625 580.4797Q1026.625 579.83905 1026.9844 579.27655Q1027.3594 578.6984 1028.0625 578.4172Q1028.7812 578.1203 1029.6406 578.1203Q1030.5938 578.1203 1031.3281 578.4328Q1032.0625 578.7297 1032.4531 579.33905Q1032.8438 579.9328 1032.875 580.6828L1031.7812 580.7609Q1031.6875 579.9484 1031.1719 579.5422Q1030.6719 579.1203 1029.6875 579.1203Q1028.6562 579.1203 1028.1875 579.4953Q1027.7188 579.8703 1027.7188 580.40155Q1027.7188 580.8703 1028.0469 581.1672Q1028.375 581.46405 1029.75 581.77655Q1031.1406 582.08905 1031.6562 582.3234Q1032.4062 582.6828 1032.7656 583.21405Q1033.125 583.7297 1033.125 584.4328Q1033.125 585.1203 1032.7344 585.7297Q1032.3438 586.3234 1031.6094 586.6672Q1030.875 586.9953 1029.9531 586.9953Q1028.7812 586.9953 1027.9844 586.6672Q1027.2031 586.3234 1026.75 585.6359Q1026.3125 584.9484 1026.2969 584.08905ZM1038.7969 584.8547L1039.8906 584.9797Q1039.6406 585.9328 1038.9375 586.46405Q1038.2344 586.9953 1037.1562 586.9953Q1035.7969 586.9953 1034.9844 586.15155Q1034.1875 585.3078 1034.1875 583.7922Q1034.1875 582.2297 1035.0 581.3703Q1035.8125 580.4953 1037.0938 580.4953Q1038.3438 580.4953 1039.125 581.33905Q1039.9219 582.1828 1039.9219 583.7297Q1039.9219 583.8234 1039.9219 584.0109L1035.2812 584.0109Q1035.3438 585.0422 1035.8594 585.58905Q1036.375 586.1203 1037.1562 586.1203Q1037.7344 586.1203 1038.1406 585.8234Q1038.5625 585.5109 1038.7969 584.8547ZM1035.3438 583.15155L1038.8125 583.15155Q1038.75 582.3547 1038.4219 581.96405Q1037.9062 581.3547 1037.1094 581.3547Q1036.375 581.3547 1035.875 581.83905Q1035.3906 582.3234 1035.3438 583.15155ZM1041.5312 586.8547L1041.5312 580.6359L1042.4844 580.6359L1042.4844 581.5734Q1042.8438 580.9172 1043.1406 580.71405Q1043.4531 580.4953 1043.8281 580.4953Q1044.3594 580.4953 1044.9062 580.8234L1044.5469 581.8078Q1044.1562 581.5734 1043.7812 581.5734Q1043.4219 581.5734 1043.1406 581.7922Q1042.875 581.9953 1042.7656 582.3703Q1042.5781 582.9328 1042.5781 583.58905L1042.5781 586.8547L1041.5312 586.8547ZM1045.8438 586.8547L1045.8438 585.65155L1047.0469 585.65155L1047.0469 586.8547L1045.8438 586.8547ZM1048.5469 579.4797L1048.5469 578.2609L1049.6094 578.2609L1049.6094 579.4797L1048.5469 579.4797ZM1048.5469 586.8547L1048.5469 580.6359L1049.6094 580.6359L1049.6094 586.8547L1048.5469 586.8547ZM1051.5469 586.8547L1051.5469 580.6359L1052.4844 580.6359L1052.4844 581.5109Q1053.1719 580.4953 1054.4688 580.4953Q1055.0312 580.4953 1055.5 580.6984Q1055.9844 580.90155 1056.2188 581.2297Q1056.4531 581.5578 1056.5469 581.9953Q1056.5938 582.2922 1056.5938 583.02655L1056.5938 586.8547L1055.5469 586.8547L1055.5469 583.0734Q1055.5469 582.4172 1055.4219 582.1047Q1055.2969 581.7922 1054.9844 581.6047Q1054.6719 581.40155 1054.25 581.40155Q1053.5781 581.40155 1053.0781 581.83905Q1052.5938 582.2609 1052.5938 583.4484L1052.5938 586.8547L1051.5469 586.8547ZM1058.7969 586.8547L1058.7969 581.4484L1057.8594 581.4484L1057.8594 580.6359L1058.7969 580.6359L1058.7969 579.96405Q1058.7969 579.33905 1058.9062 579.0422Q1059.0625 578.6203 1059.4375 578.3703Q1059.8281 578.1203 1060.5156 578.1203Q1060.9688 578.1203 1061.5 578.2297L1061.3438 579.1359Q1061.0156 579.08905 1060.7188 579.08905Q1060.2344 579.08905 1060.0312 579.2922Q1059.8438 579.4953 1059.8438 580.0578L1059.8438 580.6359L1061.0625 580.6359L1061.0625 581.4484L1059.8438 581.4484L1059.8438 586.8547L1058.7969 586.8547ZM1061.1562 583.7453Q1061.1562 582.0109 1062.1094 581.1828Q1062.9062 580.4953 1064.0625 580.4953Q1065.3438 580.4953 1066.1562 581.33905Q1066.9844 582.1672 1066.9844 583.65155Q1066.9844 584.8547 1066.625 585.5422Q1066.2656 586.2297 1065.5625 586.6203Q1064.875 586.9953 1064.0625 586.9953Q1062.7656 586.9953 1061.9531 586.1672Q1061.1562 585.3234 1061.1562 583.7453ZM1062.2344 583.7453Q1062.2344 584.9328 1062.75 585.52655Q1063.2812 586.1203 1064.0625 586.1203Q1064.8594 586.1203 1065.375 585.52655Q1065.8906 584.9328 1065.8906 583.71405Q1065.8906 582.5578 1065.3594 581.96405Q1064.8438 581.3703 1064.0625 581.3703Q1063.2812 581.3703 1062.75 581.96405Q1062.2344 582.5422 1062.2344 583.7453Z" fill-rule="nonzero"/><path fill="#1a1a1a" d="M1080.875 579.4953Q1079.2344 579.4953 1078.2969 579.8234Q1077.2656 580.1984 1076.375 581.08905Q1075.4844 581.9797 1075.4844 583.3859Q1075.4844 584.5109 1076.1875 585.21405Q1077.125 586.15155 1079.7969 586.2453L1079.4219 587.27655Q1076.6562 587.1359 1075.5781 586.0578Q1074.5 584.9797 1074.5 583.4328Q1074.5 581.2297 1076.2344 579.96405Q1074.0312 580.2922 1071.7344 580.6203L1071.4531 579.5422Q1076.0469 579.21405 1080.6875 578.4172L1080.875 579.4953ZM1079.8438 583.15155Q1078.8125 582.40155 1078.0625 581.9797L1078.5312 581.4172Q1079.2344 581.83905 1080.3125 582.58905L1079.8438 583.15155ZM1080.7812 582.02655Q1079.6562 581.2297 1079.0 580.8547L1079.4688 580.2922Q1080.125 580.6672 1081.25 581.46405L1080.7812 582.02655ZM1087.5625 582.4484Q1087.1406 582.8234 1086.6719 583.1984Q1087.1406 583.52655 1087.6094 583.9484L1086.9531 584.83905Q1086.25 584.0422 1085.3594 583.2453L1085.3594 587.9328L1084.4219 587.9328L1084.4219 583.2453Q1083.7188 583.9484 1082.875 584.6047L1082.4062 583.6203Q1084.4688 582.0734 1085.7344 580.1047L1082.7812 580.1047L1082.7812 579.21405L1084.4219 579.21405L1084.4219 577.0109L1085.3125 577.0109Q1085.6875 577.0578 1085.3594 577.2922L1085.3594 579.21405L1086.25 579.21405L1086.5312 578.9328L1087.1406 579.5422Q1087.3281 579.8703 1086.9531 579.8703Q1086.3438 581.1359 1085.3125 582.3078L1086.0156 582.7297Q1086.5781 582.1672 1086.9531 581.65155L1087.7969 582.3078Q1087.8438 582.5422 1087.5625 582.4484ZM1091.7344 579.3547L1089.8594 579.3547L1089.8594 582.1203Q1089.8594 585.8234 1086.625 587.6984L1086.0156 586.8078Q1088.9219 585.3547 1088.9219 582.2609L1088.9219 579.3547L1087.4688 579.3547L1087.4688 578.46405L1092.6719 578.46405L1092.6719 584.27655Q1092.6719 587.6984 1090.9844 587.6984L1089.625 587.6984L1089.4844 586.8078L1090.75 586.8078Q1091.7344 586.8078 1091.7344 584.27655L1091.7344 579.3547ZM1100.6875 579.5422Q1102.4219 579.6359 1103.4531 580.6672Q1104.4844 581.6984 1104.4844 583.4328Q1104.4844 585.02655 1103.5469 585.96405Q1102.7031 586.8078 1101.2031 587.3234L1100.5938 586.4328Q1102.1406 585.9172 1102.7969 585.2609Q1103.5 584.5578 1103.5 583.3859Q1103.5 582.0734 1102.7969 581.3703Q1101.9062 580.4797 1100.5 580.3859Q1099.9844 582.3547 1098.9531 584.4172L1099.8438 585.4484L1099.0938 586.0109L1098.4375 585.2609Q1098.0625 585.8703 1097.6406 586.2922Q1097.0312 586.90155 1096.4219 586.90155Q1095.7656 586.90155 1095.2031 586.33905Q1094.5938 585.7297 1094.5938 584.6047Q1094.5938 582.9172 1096.4219 581.0422Q1096.0938 579.6359 1095.9531 578.3703L1096.8438 578.3703Q1097.2656 578.46405 1096.9375 578.7453Q1097.0312 579.77655 1097.2188 580.4797Q1098.4375 579.7297 1099.7031 579.5422Q1099.8906 578.83905 1100.0781 577.4328L1101.0156 577.6672Q1101.4844 577.8547 1101.0156 578.0422L1100.6875 579.5422ZM1097.7812 584.5109Q1097.1719 583.52655 1096.7031 582.0734Q1095.5312 583.4797 1095.5312 584.6984Q1095.5312 585.3547 1095.9062 585.7297Q1096.1406 585.96405 1096.4219 585.96405Q1096.6562 585.96405 1096.9844 585.6359Q1097.2656 585.3547 1097.7812 584.5109ZM1099.5156 580.4797Q1098.3906 580.6672 1097.4531 581.4172Q1097.9219 583.0109 1098.3438 583.6203Q1099.1406 582.0734 1099.5156 580.4797ZM1115.875 579.4953Q1114.2344 579.4953 1113.2969 579.8234Q1112.2656 580.1984 1111.375 581.08905Q1110.4844 581.9797 1110.4844 583.3859Q1110.4844 584.5109 1111.1875 585.21405Q1112.125 586.15155 1114.7969 586.2453L1114.4219 587.27655Q1111.6562 587.1359 1110.5781 586.0578Q1109.5 584.9797 1109.5 583.4328Q1109.5 581.2297 1111.2344 579.96405Q1109.0312 580.2922 1106.7344 580.6203L1106.4531 579.5422Q1111.0469 579.21405 1115.6875 578.4172L1115.875 579.4953ZM1117.5469 582.7297L1117.5469 581.83905L1119.9844 581.83905L1119.9844 579.9172L1119.375 579.9172Q1118.9531 580.7609 1118.2031 581.4172L1117.5 580.71405Q1118.9062 579.5422 1119.4688 577.2453L1120.4062 577.52655Q1120.6875 577.6672 1120.2656 577.8078Q1120.0781 578.3703 1119.75 579.02655L1122.7031 579.02655L1122.7031 579.9172L1120.9219 579.9172L1120.9219 581.83905L1123.2656 581.83905L1123.2656 582.7297L1120.9219 582.7297Q1120.9219 583.33905 1120.8281 583.9484Q1121.8125 584.65155 1123.1719 586.15155L1122.5156 587.0422Q1121.2031 585.40155 1120.5938 584.7453Q1120.0781 586.3859 1118.2031 587.6047L1117.5469 586.7609Q1119.9844 585.58905 1119.9844 582.7297L1117.5469 582.7297ZM1127.5312 578.6984L1127.5312 587.1359L1126.5938 587.1359L1126.5938 586.3859L1124.625 586.3859L1124.625 587.27655L1123.6875 587.27655L1123.6875 578.6984L1127.5312 578.6984ZM1126.5938 579.58905L1124.625 579.58905L1124.625 585.4953L1126.5938 585.4953L1126.5938 579.58905ZM1135.3594 586.6203Q1136.1094 586.52655 1136.625 586.0109Q1137.1875 585.4484 1137.1875 584.5109Q1137.1875 583.4797 1136.5781 582.8703Q1135.9688 582.2609 1134.6562 582.2609Q1133.1094 582.2609 1132.2656 582.8703Q1131.4688 583.4328 1130.2031 584.8859L1129.4062 584.1828Q1132.7812 580.8078 1134.5156 578.5578Q1132.9688 578.7453 1131.4219 578.8859L1131.0938 577.8078Q1133.3906 577.8078 1135.1719 577.5734L1135.5938 577.3859L1136.1094 577.90155Q1136.625 578.3703 1135.875 578.5109Q1134.4688 580.1047 1133.0625 581.65155Q1134.0469 581.4172 1134.7031 581.4172Q1136.4844 581.4172 1137.3281 582.2609Q1138.1719 583.1047 1138.1719 584.4172Q1138.1719 585.77655 1137.4219 586.52655Q1136.2969 587.65155 1134.5625 587.65155Q1132.9219 587.65155 1132.1719 586.90155Q1131.5625 586.2922 1131.5625 585.4484Q1131.5625 584.8859 1131.9844 584.46405Q1132.4531 583.9953 1133.0625 583.9953Q1133.9062 583.9953 1134.4688 584.5578Q1135.125 585.21405 1135.3594 586.6203ZM1134.4219 586.7609Q1134.2812 585.5422 1133.8594 585.1203Q1133.5312 584.7922 1133.2031 584.7922Q1132.8281 584.7922 1132.6406 584.9797Q1132.4062 585.21405 1132.4062 585.4953Q1132.4062 585.9172 1132.7812 586.2922Q1133.25 586.7609 1134.0 586.7609Q1134.1875 586.7609 1134.4219 586.7609ZM1142.6875 579.0734Q1143.0156 579.5422 1143.2031 580.4328L1142.4062 580.8078Q1142.2188 579.96405 1141.9844 579.4953L1142.6875 579.0734ZM1140.5781 579.9172Q1140.4844 581.5578 1140.1562 583.0578L1139.2188 582.8703Q1139.5938 581.0422 1139.6406 579.4953L1140.5312 579.6359Q1140.9531 579.7297 1140.5781 579.9172ZM1141.8438 587.9328L1140.9062 587.9328L1140.9062 577.1047L1141.7969 577.1047Q1142.2656 577.1984 1141.8438 577.4797L1141.8438 587.9328ZM1149.8125 578.1828L1149.8125 578.9328L1146.9531 578.9328L1146.9531 579.5422L1149.25 579.5422L1149.25 580.2922L1146.9531 580.2922L1146.9531 580.9484L1150.1406 580.9484L1150.1406 581.6984L1142.9688 581.6984L1142.9688 580.9484L1146.0156 580.9484L1146.0156 580.2922L1143.7188 580.2922L1143.7188 579.5422L1146.0156 579.5422L1146.0156 578.9328L1143.2031 578.9328L1143.2031 578.1828L1146.0156 578.1828L1146.0156 577.0578L1146.9062 577.0578Q1147.2812 577.1047 1146.9531 577.33905L1146.9531 578.1828L1149.8125 578.1828ZM1149.1094 582.3078L1149.1094 587.2297Q1149.1094 587.83905 1148.4531 587.83905L1147.6562 587.83905L1147.375 586.9484L1147.9844 586.9484Q1148.1719 586.9484 1148.1719 586.7609L1148.1719 585.8703L1144.9375 585.8703L1144.9375 587.9797L1144.0 587.9797L1144.0 582.3078L1149.1094 582.3078ZM1148.1719 583.0578L1144.9375 583.0578L1144.9375 583.71405L1148.1719 583.71405L1148.1719 583.0578ZM1148.1719 584.46405L1144.9375 584.46405L1144.9375 585.1203L1148.1719 585.1203L1148.1719 584.46405ZM1161.3906 579.9172Q1161.3906 580.71405 1160.6406 580.71405L1159.5625 580.71405L1159.375 579.8234L1160.3125 579.8234Q1160.4531 579.8234 1160.4531 579.6828L1160.4531 578.6047L1158.0156 578.6047L1158.0156 581.3703L1161.0156 581.3703L1161.1562 581.1828L1161.9062 581.65155Q1162.0938 581.83905 1161.7656 581.8859Q1161.4844 583.8078 1160.6406 585.4484Q1161.2031 586.2453 1162.2812 586.90155L1161.7188 587.7922Q1160.8281 587.1828 1160.125 586.2922Q1159.4219 587.27655 1158.625 587.8859L1158.0625 586.9953Q1158.8594 586.3859 1159.5156 585.5422Q1158.7656 584.1359 1158.4375 582.2609L1158.0156 582.2609L1158.0156 587.8859L1157.0781 587.8859L1157.0781 577.71405L1161.3906 577.71405L1161.3906 579.9172ZM1156.3281 579.40155L1154.6406 579.40155L1154.6406 580.4797L1156.7969 580.4797L1156.7969 581.3703L1156.0 581.3703L1155.3438 582.7297L1156.5625 582.7297L1156.5625 583.6203L1154.6406 583.6203L1154.6406 584.6984L1156.5625 584.6984L1156.5625 585.58905L1154.6406 585.58905L1154.6406 587.9328L1153.7031 587.9328L1153.7031 585.58905L1151.6406 585.58905L1151.6406 584.6984L1153.7031 584.6984L1153.7031 583.6203L1151.6406 583.6203L1151.6406 582.7297L1152.9531 582.7297L1152.3438 581.3703L1151.3125 581.3703L1151.3125 580.4797L1153.7031 580.4797L1153.7031 579.40155L1151.9219 579.40155L1151.9219 578.5109L1153.7031 578.5109L1153.7031 577.15155L1154.5938 577.15155Q1154.9688 577.1984 1154.6406 577.4328L1154.6406 578.5109L1156.3281 578.5109L1156.3281 579.40155ZM1153.8906 582.7297L1154.5 582.7297L1155.0156 581.3703L1153.3281 581.3703L1153.8906 582.7297ZM1159.2344 582.2609Q1159.375 583.3859 1160.0781 584.6984Q1160.6406 583.5734 1160.8281 582.2609L1159.2344 582.2609ZM1171.375 580.8547Q1171.4688 582.6359 1171.375 584.4172Q1172.7812 584.9328 1174.0938 585.8703L1173.5312 586.7609Q1172.5469 586.0109 1171.375 585.4484Q1171.375 586.2922 1170.8594 586.8078Q1170.2969 587.3703 1169.2188 587.3703Q1168.1406 587.3703 1167.5781 586.8078Q1167.1094 586.33905 1167.1094 585.58905Q1167.1094 584.9328 1167.4844 584.5578Q1168.0469 583.9953 1169.1719 583.9953Q1169.7812 583.9953 1170.3906 584.1359Q1170.4844 582.5422 1170.3906 580.90155L1166.9219 581.1359L1166.9219 580.15155L1170.2969 579.96405Q1170.25 578.65155 1170.1094 577.6203L1171.0938 577.6203Q1171.6094 577.71405 1171.1875 577.9953Q1171.2344 578.9797 1171.2812 579.9172L1173.8125 579.77655L1173.8125 580.7609L1171.375 580.8547ZM1164.2969 587.1359Q1164.1094 585.8234 1164.1094 584.08905Q1164.1094 580.2922 1164.6719 577.9953L1165.7031 578.1828Q1166.0312 578.3234 1165.6562 578.5109Q1165.1406 580.15155 1165.1406 584.08905Q1165.1406 585.8703 1165.375 586.9484L1164.2969 587.1359ZM1170.3906 585.0734Q1169.5938 584.83905 1169.1719 584.83905Q1168.5156 584.83905 1168.2344 585.1203Q1168.0 585.3547 1168.0 585.58905Q1168.0 585.96405 1168.1875 586.15155Q1168.5156 586.4797 1169.1719 586.4797Q1169.8281 586.4797 1170.1094 586.15155Q1170.4375 585.77655 1170.3906 585.0734ZM1177.0469 584.46405Q1180.5156 583.4797 1181.8281 581.3703L1182.8594 581.6047Q1183.0469 581.7922 1182.7188 581.83905L1182.2969 582.40155L1184.7344 582.40155L1184.8281 582.21405L1185.5781 582.77655Q1185.9531 583.0109 1185.5781 583.1047Q1182.9531 587.3234 1176.7188 587.9328L1176.4375 586.90155Q1179.5312 586.6203 1180.9844 585.8234Q1180.5625 585.1672 1179.625 584.5578Q1178.5 585.0734 1177.5156 585.40155L1177.0469 584.46405ZM1176.2031 582.5422Q1178.5 582.1203 1179.7188 581.3703Q1179.25 580.8547 1178.4062 580.2453Q1177.9844 580.5734 1176.7188 581.08905L1176.25 580.1984Q1178.9688 579.1203 1179.8125 577.15155L1180.75 577.4328Q1180.8906 577.6203 1180.6094 577.6672L1180.3281 578.08905L1183.2812 578.08905L1183.375 577.8547L1184.125 578.4172Q1184.5 578.65155 1184.125 578.7453Q1181.7812 582.3078 1176.6719 583.4797L1176.2031 582.5422ZM1180.6562 580.8078Q1181.7812 580.1984 1182.7188 578.9797L1179.7656 578.9797Q1179.4375 579.3547 1179.1094 579.6359Q1179.9531 580.1984 1180.6562 580.8078ZM1180.5156 584.0422Q1181.4062 584.6047 1182.0156 585.2609Q1183.2344 584.5109 1184.1719 583.2922L1181.5 583.2922Q1180.9844 583.7609 1180.5156 584.0422ZM1192.0 584.5109Q1191.5781 585.58905 1191.1094 586.15155Q1190.4531 586.9484 1189.7969 586.9484Q1188.625 586.9484 1188.0625 585.58905Q1187.7344 584.7922 1187.7344 582.1672Q1187.7344 580.2922 1187.9219 578.3703L1188.9062 578.6047Q1189.4688 578.7453 1188.9531 579.0734Q1188.7656 580.8078 1188.7656 582.21405Q1188.7656 584.1359 1189.0 584.9328Q1189.2344 585.7297 1189.7031 585.7297Q1190.2188 585.7297 1190.5938 584.9797Q1190.8281 584.5109 1191.0625 583.8547L1192.0 584.5109ZM1194.7656 579.02655Q1196.875 581.2297 1197.3438 584.3703L1196.0781 584.6984Q1195.5156 581.4172 1193.7812 579.58905L1194.7656 579.02655Z" fill-rule="nonzero"/><path fill="#9e9e9e" d="M1166.625 603.8547L1166.625 601.7922L1162.9062 601.7922L1162.9062 600.8234L1166.8281 595.2609L1167.6875 595.2609L1167.6875 600.8234L1168.8438 600.8234L1168.8438 601.7922L1167.6875 601.7922L1167.6875 603.8547L1166.625 603.8547ZM1166.625 600.8234L1166.625 596.96405L1163.9375 600.8234L1166.625 600.8234ZM1170.3125 596.3859L1170.3125 595.3703L1175.875 595.3703L1175.875 596.1984Q1175.0625 597.0734 1174.25 598.52655Q1173.4531 599.96405 1173.0156 601.4953Q1172.6875 602.5734 1172.6094 603.8547L1171.5156 603.8547Q1171.5312 602.83905 1171.9062 601.40155Q1172.2969 599.96405 1173.0 598.6359Q1173.7188 597.3078 1174.5312 596.3859L1170.3125 596.3859ZM1177.8438 603.8547L1177.8438 602.65155L1179.0469 602.65155L1179.0469 603.8547L1177.8438 603.8547ZM1185.7969 602.83905L1185.7969 603.8547L1180.1094 603.8547Q1180.1094 603.4797 1180.2344 603.1203Q1180.4531 602.5422 1180.9219 601.9797Q1181.4062 601.4172 1182.3125 600.6828Q1183.7188 599.52655 1184.2031 598.8547Q1184.7031 598.1828 1184.7031 597.58905Q1184.7031 596.96405 1184.25 596.5422Q1183.7969 596.1047 1183.0781 596.1047Q1182.3125 596.1047 1181.8594 596.5578Q1181.4062 597.0109 1181.3906 597.8234L1180.3125 597.71405Q1180.4219 596.4953 1181.1406 595.8703Q1181.875 595.2297 1183.1094 595.2297Q1184.3438 595.2297 1185.0625 595.9172Q1185.7812 596.6047 1185.7812 597.6203Q1185.7812 598.1359 1185.5625 598.6359Q1185.3594 599.1203 1184.8594 599.6828Q1184.375 600.2297 1183.25 601.1828Q1182.2969 601.9797 1182.0156 602.27655Q1181.75 602.5578 1181.5781 602.83905L1185.7969 602.83905ZM1187.4531 597.3234Q1187.4531 596.40155 1187.9062 595.7609Q1188.375 595.1203 1189.25 595.1203Q1190.0625 595.1203 1190.5938 595.6984Q1191.125 596.27655 1191.125 597.3859Q1191.125 598.4797 1190.5781 599.0734Q1190.0469 599.65155 1189.2656 599.65155Q1188.4844 599.65155 1187.9688 599.0734Q1187.4531 598.4953 1187.4531 597.3234ZM1189.2812 595.83905Q1188.8906 595.83905 1188.625 596.1828Q1188.375 596.52655 1188.375 597.4328Q1188.375 598.2609 1188.625 598.6047Q1188.8906 598.9328 1189.2812 598.9328Q1189.6875 598.9328 1189.9375 598.58905Q1190.2031 598.2453 1190.2031 597.3547Q1190.2031 596.5109 1189.9375 596.1828Q1189.6719 595.83905 1189.2812 595.83905ZM1189.2812 604.1672L1193.9844 595.1203L1194.8438 595.1203L1190.1562 604.1672L1189.2812 604.1672ZM1193.0 601.83905Q1193.0 600.9172 1193.4531 600.27655Q1193.9219 599.6359 1194.8125 599.6359Q1195.625 599.6359 1196.1562 600.21405Q1196.6875 600.77655 1196.6875 601.90155Q1196.6875 602.9953 1196.1406 603.58905Q1195.6094 604.1672 1194.8125 604.1672Q1194.0469 604.1672 1193.5156 603.58905Q1193.0 603.0109 1193.0 601.83905ZM1194.8438 600.3547Q1194.4375 600.3547 1194.1719 600.6984Q1193.9219 601.0422 1193.9219 601.9484Q1193.9219 602.7609 1194.1875 603.1047Q1194.4531 603.4484 1194.8438 603.4484Q1195.2344 603.4484 1195.5 603.1047Q1195.7656 602.7609 1195.7656 601.8547Q1195.7656 601.02655 1195.5 600.6984Q1195.2344 600.3547 1194.8438 600.3547Z" fill-rule="nonzero"/><path stroke="#757575" stroke-width="1.0" stroke-linecap="butt" d="M1197.75 591.3547L968.25 591.3547L869.661 591.3547" fill-rule="nonzero"/><path fill="#9e9e9e" d="M871.661 591.3547C871.661 590.25006 870.76556 589.3547 869.661 589.3547C868.55646 589.3547 867.661 590.25006 867.661 591.3547C867.661 592.4592 868.55646 593.3547 869.661 593.3547C870.76556 593.3547 871.661 592.4592 871.661 591.3547" fill-rule="nonzero"/></svg>