<svg version="1.1" viewBox="0.0 0.0 988.0 612.0" fill="none" stroke="none" stroke-linecap="square" stroke-miterlimit="10" width="988" height="612" xmlns:xlink="http://www.w3.org/1999/xlink" xmlns="http://www.w3.org/2000/svg"><path fill="#ffffff" d="M0 0L988.0 0L988.0 612.0L0 612.0L0 0Z" fill-rule="nonzero"/><path stroke="#333333" stroke-width="1.0" stroke-linecap="butt" d="M110.5 75.5L110.5 561.5" fill-rule="nonzero"/><path stroke="#cccccc" stroke-width="1.0" stroke-linecap="butt" d="M392.5 75.5L392.5 561.5" fill-rule="nonzero"/><path stroke="#cccccc" stroke-width="1.0" stroke-linecap="butt" d="M675.5 75.5L675.5 561.5" fill-rule="nonzero"/><path stroke="#cccccc" stroke-width="1.0" stroke-linecap="butt" d="M957.5 75.5L957.5 561.5" fill-rule="nonzero"/><clipPath id="id_0"><path d="M110.6 75.0L957.4 75.0L957.4 561.4L110.6 561.4L110.6 75.0Z" clip-rule="nonzero"/></clipPath><path stroke="#000000" stroke-width="2.0" stroke-linecap="butt" stroke-opacity="0.0" clip-path="url(#id_0)" d="M111.0 152.0L111.0 102.0L137.0 102.0C138.10457 102.0 139.0 102.89543 139.0 104.0L139.0 150.0C139.0 151.10457 138.10457 152.0 137.0 152.0Z" fill-rule="nonzero"/><path fill="#4285f4" clip-path="url(#id_0)" d="M111.0 152.0L111.0 102.0L137.0 102.0C138.10457 102.0 139.0 102.89543 139.0 104.0L139.0 150.0C139.0 151.10457 138.10457 152.0 137.0 152.0Z" fill-rule="nonzero"/><path stroke="#000000" stroke-width="2.0" stroke-linecap="butt" stroke-opacity="0.0" clip-path="url(#id_0)" d="M111.0 228.0L111.0 178.0L236.0 178.0C237.10457 178.0 238.0 178.89543 238.0 180.0L238.0 226.0C238.0 227.10457 237.10457 228.0 236.0 228.0Z" fill-rule="nonzero"/><path fill="#4285f4" clip-path="url(#id_0)" d="M111.0 228.0L111.0 178.0L236.0 178.0C237.10457 178.0 238.0 178.89543 238.0 180.0L238.0 226.0C238.0 227.10457 237.10457 228.0 236.0 228.0Z" fill-rule="nonzero"/><path stroke="#000000" stroke-width="2.0" stroke-linecap="butt" stroke-opacity="0.0" clip-path="url(#id_0)" d="M111.0 305.0L111.0 255.0L687.0 255.0C688.10455 255.0 689.0 255.89543 689.0 257.0L689.0 303.0C689.0 304.10458 688.10455 305.0 687.0 305.0Z" fill-rule="nonzero"/><path fill="#4285f4" clip-path="url(#id_0)" d="M111.0 305.0L111.0 255.0L687.0 255.0C688.10455 255.0 689.0 255.89543 689.0 257.0L689.0 303.0C689.0 304.10458 688.10455 305.0 687.0 305.0Z" fill-rule="nonzero"/><path stroke="#000000" stroke-width="2.0" stroke-linecap="butt" stroke-opacity="0.0" clip-path="url(#id_0)" d="M111.0 381.0L111.0 331.0L955.0 331.0C956.10455 331.0 957.0 331.89542 957.0 333.0L957.0 379.0C957.0 380.10458 956.10455 381.0 955.0 381.0Z" fill-rule="nonzero"/><path fill="#4285f4" clip-path="url(#id_0)" d="M111.0 381.0L111.0 331.0L955.0 331.0C956.10455 331.0 957.0 331.89542 957.0 333.0L957.0 379.0C957.0 380.10458 956.10455 381.0 955.0 381.0Z" fill-rule="nonzero"/><path stroke="#000000" stroke-width="2.0" stroke-linecap="butt" stroke-opacity="0.0" clip-path="url(#id_0)" d="M111.0 458.0L111.0 408.0L715.0 408.0C716.10455 408.0 717.0 408.89542 717.0 410.0L717.0 456.0C717.0 457.10458 716.10455 458.0 715.0 458.0Z" fill-rule="nonzero"/><path fill="#4285f4" clip-path="url(#id_0)" d="M111.0 458.0L111.0 408.0L715.0 408.0C716.10455 408.0 717.0 408.89542 717.0 410.0L717.0 456.0C717.0 457.10458 716.10455 458.0 715.0 458.0Z" fill-rule="nonzero"/><path stroke="#000000" stroke-width="2.0" stroke-linecap="butt" stroke-opacity="0.0" clip-path="url(#id_0)" d="M111.0 535.0L111.0 485.0L179.0 485.0C180.10457 485.0 181.0 485.89542 181.0 487.0L181.0 533.0C181.0 534.10455 180.10457 535.0 179.0 535.0Z" fill-rule="nonzero"/><path fill="#4285f4" clip-path="url(#id_0)" d="M111.0 535.0L111.0 485.0L179.0 485.0C180.10457 485.0 181.0 485.89542 181.0 487.0L181.0 533.0C181.0 534.10455 180.10457 535.0 179.0 535.0Z" fill-rule="nonzero"/><path stroke="#4285f4" stroke-width="3.0" stroke-linejoin="round" stroke-linecap="round" d="M133.32355 131.5L127.72979 131.5L127.72979 130.71875L130.68292 127.4375Q131.33917 126.6875 131.58917 126.234375Q131.83917 125.765625 131.83917 125.265625Q131.83917 124.59375 131.43292 124.171875Q131.0423 123.734375 130.3548 123.734375Q129.55792 123.734375 129.1048 124.203125Q128.65167 124.65625 128.65167 125.484375L127.57354 125.484375Q127.57354 124.296875 128.32355 123.578125Q129.08917 122.84375 130.3548 122.84375Q131.55792 122.84375 132.24542 123.46875Q132.93292 124.09375 132.93292 125.140625Q132.93292 126.390625 131.32355 128.14062L129.0423 130.60938L133.32355 130.60938L133.32355 131.5Z" fill-rule="nonzero"/><path fill="#ffffff" d="M133.32355 131.5L127.72979 131.5L127.72979 130.71875L130.68292 127.4375Q131.33917 126.6875 131.58917 126.234375Q131.83917 125.765625 131.83917 125.265625Q131.83917 124.59375 131.43292 124.171875Q131.0423 123.734375 130.3548 123.734375Q129.55792 123.734375 129.1048 124.203125Q128.65167 124.65625 128.65167 125.484375L127.57354 125.484375Q127.57354 124.296875 128.32355 123.578125Q129.08917 122.84375 130.3548 122.84375Q131.55792 122.84375 132.24542 123.46875Q132.93292 124.09375 132.93292 125.140625Q132.93292 126.390625 131.32355 128.14062L129.0423 130.60938L133.32355 130.60938L133.32355 131.5Z" fill-rule="nonzero"/><path stroke="#4285f4" stroke-width="3.0" stroke-linejoin="round" stroke-linecap="round" d="M230.67938 203.75Q230.35126 204.15625 229.86688 204.40625Q229.39813 204.64062 228.83563 204.64062Q228.10126 204.64062 227.55438 204.28125Q227.0075 203.92188 226.71063 203.26562Q226.41376 202.59375 226.41376 201.79688Q226.41376 200.95312 226.72626 200.26562Q227.05438 199.57812 227.64813 199.21875Q228.2575 198.84375 229.05438 198.84375Q230.32 198.84375 231.03876 199.79688Q231.77313 200.75 231.77313 202.375L231.77313 202.6875Q231.77313 205.1875 230.78876 206.32812Q229.80438 207.46875 227.82 207.5L227.60126 207.5L227.60126 206.59375L227.83563 206.59375Q229.17938 206.5625 229.89813 205.89062Q230.61688 205.21875 230.67938 203.75ZM229.0075 203.75Q229.55438 203.75 230.0075 203.42188Q230.47626 203.07812 230.695 202.59375L230.695 202.15625Q230.695 201.09375 230.22626 200.42188Q229.7575 199.75 229.05438 199.75Q228.33563 199.75 227.89813 200.29688Q227.47626 200.84375 227.47626 201.75Q227.47626 202.625 227.8825 203.1875Q228.30438 203.75 229.0075 203.75Z" fill-rule="nonzero"/><path fill="#ffffff" d="M230.67938 203.75Q230.35126 204.15625 229.86688 204.40625Q229.39813 204.64062 228.83563 204.64062Q228.10126 204.64062 227.55438 204.28125Q227.0075 203.92188 226.71063 203.26562Q226.41376 202.59375 226.41376 201.79688Q226.41376 200.95312 226.72626 200.26562Q227.05438 199.57812 227.64813 199.21875Q228.2575 198.84375 229.05438 198.84375Q230.32 198.84375 231.03876 199.79688Q231.77313 200.75 231.77313 202.375L231.77313 202.6875Q231.77313 205.1875 230.78876 206.32812Q229.80438 207.46875 227.82 207.5L227.60126 207.5L227.60126 206.59375L227.83563 206.59375Q229.17938 206.5625 229.89813 205.89062Q230.61688 205.21875 230.67938 203.75ZM229.0075 203.75Q229.55438 203.75 230.0075 203.42188Q230.47626 203.07812 230.695 202.59375L230.695 202.15625Q230.695 201.09375 230.22626 200.42188Q229.7575 199.75 229.05438 199.75Q228.33563 199.75 227.89813 200.29688Q227.47626 200.84375 227.47626 201.75Q227.47626 202.625 227.8825 203.1875Q228.30438 203.75 229.0075 203.75Z" fill-rule="nonzero"/><path stroke="#4285f4" stroke-width="3.0" stroke-linejoin="round" stroke-linecap="round" d="M675.7279 281.64062L676.9154 281.64062L676.9154 282.51562L675.7279 282.51562L675.7279 284.5L674.6498 284.5L674.6498 282.51562L670.75916 282.51562L670.75916 281.875L674.57166 275.96875L675.7279 275.96875L675.7279 281.64062ZM671.9935 281.64062L674.6498 281.64062L674.6498 277.45312L674.50916 277.6875L671.9935 281.64062ZM681.7123 284.5L680.63416 284.5L680.63416 277.28125L678.44666 278.07812L678.44666 277.09375L681.556 275.92188L681.7123 275.92188L681.7123 284.5Z" fill-rule="nonzero"/><path fill="#ffffff" d="M675.7279 281.64062L676.9154 281.64062L676.9154 282.51562L675.7279 282.51562L675.7279 284.5L674.6498 284.5L674.6498 282.51562L670.75916 282.51562L670.75916 281.875L674.57166 275.96875L675.7279 275.96875L675.7279 281.64062ZM671.9935 281.64062L674.6498 281.64062L674.6498 277.45312L674.50916 277.6875L671.9935 281.64062ZM681.7123 284.5L680.63416 284.5L680.63416 277.28125L678.44666 278.07812L678.44666 277.09375L681.556 275.92188L681.7123 275.92188L681.7123 284.5Z" fill-rule="nonzero"/><path stroke="#4285f4" stroke-width="3.0" stroke-linejoin="round" stroke-linecap="round" d="M943.5687 351.96875L943.5687 352.875L943.3656 352.875Q942.1 352.90625 941.35 353.64062Q940.6 354.35938 940.475 355.67188Q941.1625 354.90625 942.3187 354.90625Q943.4281 354.90625 944.1 355.6875Q944.77185 356.46875 944.77185 357.71875Q944.77185 359.03125 944.0531 359.82812Q943.33435 360.625 942.1156 360.625Q940.89685 360.625 940.1312 359.6875Q939.3812 358.73438 939.3812 357.25L939.3812 356.84375Q939.3812 354.48438 940.3812 353.23438Q941.3812 351.98438 943.3656 351.96875L943.5687 351.96875ZM942.14685 355.8125Q941.58435 355.8125 941.1156 356.14062Q940.64685 356.46875 940.45935 356.98438L940.45935 357.375Q940.45935 358.4375 940.9281 359.07812Q941.4125 359.71875 942.1156 359.71875Q942.85 359.71875 943.27185 359.1875Q943.6937 358.64062 943.6937 357.76562Q943.6937 356.89062 943.27185 356.35938Q942.85 355.8125 942.14685 355.8125ZM951.6625 356.85938Q951.6625 358.76562 951.0062 359.70312Q950.3656 360.625 948.975 360.625Q947.6156 360.625 946.95935 359.71875Q946.3031 358.8125 946.27185 357.0L946.27185 355.5625Q946.27185 353.67188 946.9125 352.76562Q947.5687 351.84375 948.95935 351.84375Q950.33435 351.84375 950.9906 352.73438Q951.64685 353.60938 951.6625 355.45312L951.6625 356.85938ZM950.5687 355.375Q950.5687 354.0 950.1781 353.375Q949.8031 352.73438 948.95935 352.73438Q948.1312 352.73438 947.7406 353.375Q947.3656 354.0 947.3656 355.29688L947.3656 357.03125Q947.3656 358.40625 947.7562 359.07812Q948.1625 359.73438 948.975 359.73438Q949.77185 359.73438 950.1625 359.10938Q950.5531 358.48438 950.5687 357.15625L950.5687 355.375Z" fill-rule="nonzero"/><path fill="#ffffff" d="M943.5687 351.96875L943.5687 352.875L943.3656 352.875Q942.1 352.90625 941.35 353.64062Q940.6 354.35938 940.475 355.67188Q941.1625 354.90625 942.3187 354.90625Q943.4281 354.90625 944.1 355.6875Q944.77185 356.46875 944.77185 357.71875Q944.77185 359.03125 944.0531 359.82812Q943.33435 360.625 942.1156 360.625Q940.89685 360.625 940.1312 359.6875Q939.3812 358.73438 939.3812 357.25L939.3812 356.84375Q939.3812 354.48438 940.3812 353.23438Q941.3812 351.98438 943.3656 351.96875L943.5687 351.96875ZM942.14685 355.8125Q941.58435 355.8125 941.1156 356.14062Q940.64685 356.46875 940.45935 356.98438L940.45935 357.375Q940.45935 358.4375 940.9281 359.07812Q941.4125 359.71875 942.1156 359.71875Q942.85 359.71875 943.27185 359.1875Q943.6937 358.64062 943.6937 357.76562Q943.6937 356.89062 943.27185 356.35938Q942.85 355.8125 942.14685 355.8125ZM951.6625 356.85938Q951.6625 358.76562 951.0062 359.70312Q950.3656 360.625 948.975 360.625Q947.6156 360.625 946.95935 359.71875Q946.3031 358.8125 946.27185 357.0L946.27185 355.5625Q946.27185 353.67188 946.9125 352.76562Q947.5687 351.84375 948.95935 351.84375Q950.33435 351.84375 950.9906 352.73438Q951.64685 353.60938 951.6625 355.45312L951.6625 356.85938ZM950.5687 355.375Q950.5687 354.0 950.1781 353.375Q949.8031 352.73438 948.95935 352.73438Q948.1312 352.73438 947.7406 353.375Q947.3656 354.0 947.3656 355.29688L947.3656 357.03125Q947.3656 358.40625 947.7562 359.07812Q948.1625 359.73438 948.975 359.73438Q949.77185 359.73438 950.1625 359.10938Q950.5531 358.48438 950.5687 357.15625L950.5687 355.375Z" fill-rule="nonzero"/><path stroke="#4285f4" stroke-width="3.0" stroke-linejoin="round" stroke-linecap="round" d="M703.9546 434.64062L705.1421 434.64062L705.1421 435.51562L703.9546 435.51562L703.9546 437.5L702.87646 437.5L702.87646 435.51562L698.98584 435.51562L698.98584 434.875L702.79834 428.96875L703.9546 428.96875L703.9546 434.64062ZM700.2202 434.64062L702.87646 434.64062L702.87646 430.45312L702.73584 430.6875L700.2202 434.64062ZM707.9546 432.70312L708.7671 432.70312Q709.54834 432.6875 709.98584 432.29688Q710.42334 431.90625 710.42334 431.23438Q710.42334 429.73438 708.92334 429.73438Q708.2202 429.73438 707.79834 430.14062Q707.3921 430.54688 707.3921 431.20312L706.29834 431.20312Q706.29834 430.1875 707.0327 429.51562Q707.7827 428.84375 708.92334 428.84375Q710.12646 428.84375 710.81396 429.48438Q711.50146 430.125 711.50146 431.26562Q711.50146 431.82812 711.1421 432.34375Q710.7827 432.85938 710.1577 433.125Q710.86084 433.34375 711.23584 433.85938Q711.62646 434.375 711.62646 435.125Q711.62646 436.26562 710.87646 436.95312Q710.12646 437.625 708.92334 437.625Q707.73584 437.625 706.9702 436.96875Q706.2202 436.3125 706.2202 435.25L707.31396 435.25Q707.31396 435.92188 707.75146 436.32812Q708.18896 436.73438 708.93896 436.73438Q709.7202 436.73438 710.12646 436.32812Q710.54834 435.90625 710.54834 435.14062Q710.54834 434.40625 710.0952 434.01562Q709.6421 433.60938 708.7671 433.59375L707.9546 433.59375L707.9546 432.70312Z" fill-rule="nonzero"/><path fill="#ffffff" d="M703.9546 434.64062L705.1421 434.64062L705.1421 435.51562L703.9546 435.51562L703.9546 437.5L702.87646 437.5L702.87646 435.51562L698.98584 435.51562L698.98584 434.875L702.79834 428.96875L703.9546 428.96875L703.9546 434.64062ZM700.2202 434.64062L702.87646 434.64062L702.87646 430.45312L702.73584 430.6875L700.2202 434.64062ZM707.9546 432.70312L708.7671 432.70312Q709.54834 432.6875 709.98584 432.29688Q710.42334 431.90625 710.42334 431.23438Q710.42334 429.73438 708.92334 429.73438Q708.2202 429.73438 707.79834 430.14062Q707.3921 430.54688 707.3921 431.20312L706.29834 431.20312Q706.29834 430.1875 707.0327 429.51562Q707.7827 428.84375 708.92334 428.84375Q710.12646 428.84375 710.81396 429.48438Q711.50146 430.125 711.50146 431.26562Q711.50146 431.82812 711.1421 432.34375Q710.7827 432.85938 710.1577 433.125Q710.86084 433.34375 711.23584 433.85938Q711.62646 434.375 711.62646 435.125Q711.62646 436.26562 710.87646 436.95312Q710.12646 437.625 708.92334 437.625Q707.73584 437.625 706.9702 436.96875Q706.2202 436.3125 706.2202 435.25L707.31396 435.25Q707.31396 435.92188 707.75146 436.32812Q708.18896 436.73438 708.93896 436.73438Q709.7202 436.73438 710.12646 436.32812Q710.54834 435.90625 710.54834 435.14062Q710.54834 434.40625 710.0952 434.01562Q709.6421 433.60938 708.7671 433.59375L707.9546 433.59375L707.9546 432.70312Z" fill-rule="nonzero"/><path stroke="#4285f4" stroke-width="3.0" stroke-linejoin="round" stroke-linecap="round" d="M170.5698 510.21875L171.0073 505.96875L175.3823 505.96875L175.3823 506.96875L171.92917 506.96875L171.66354 509.29688Q172.30417 508.92188 173.10104 508.92188Q174.2573 508.92188 174.9448 509.70312Q175.6323 510.46875 175.6323 511.78125Q175.6323 513.09375 174.91354 513.8594Q174.21042 514.625 172.92917 514.625Q171.80417 514.625 171.08542 514.0Q170.36667 513.3594 170.27292 512.25L171.28854 512.25Q171.39792 512.9844 171.8198 513.3594Q172.24167 513.7344 172.92917 513.7344Q173.67917 513.7344 174.11667 513.21875Q174.55417 512.7031 174.55417 511.79688Q174.55417 510.9375 174.08542 510.42188Q173.61667 509.90625 172.83542 509.90625Q172.1323 509.90625 171.72604 510.20312L171.4448 510.4375L170.5698 510.21875Z" fill-rule="nonzero"/><path fill="#ffffff" d="M170.5698 510.21875L171.0073 505.96875L175.3823 505.96875L175.3823 506.96875L171.92917 506.96875L171.66354 509.29688Q172.30417 508.92188 173.10104 508.92188Q174.2573 508.92188 174.9448 509.70312Q175.6323 510.46875 175.6323 511.78125Q175.6323 513.09375 174.91354 513.8594Q174.21042 514.625 172.92917 514.625Q171.80417 514.625 171.08542 514.0Q170.36667 513.3594 170.27292 512.25L171.28854 512.25Q171.39792 512.9844 171.8198 513.3594Q172.24167 513.7344 172.92917 513.7344Q173.67917 513.7344 174.11667 513.21875Q174.55417 512.7031 174.55417 511.79688Q174.55417 510.9375 174.08542 510.42188Q173.61667 509.90625 172.83542 509.90625Q172.1323 509.90625 171.72604 510.20312L171.4448 510.4375L170.5698 510.21875Z" fill-rule="nonzero"/><path fill="#000000" d="M66.06875 130.70393L65.02187 130.70393L65.02187 123.98518Q64.63125 124.34456 64.00625 124.71956Q63.396873 125.07893 62.9125 125.25081L62.9125 124.23518Q63.7875 123.81331 64.44375 123.23518Q65.11562 122.64143 65.39687 122.07893L66.06875 122.07893L66.06875 130.70393Z" fill-rule="nonzero"/><path fill="#000000" d="M72.35 123.39143Q71.45937 124.93831 70.14687 125.96956L69.49062 125.12581Q71.4125 123.71956 72.11562 121.04768L73.19375 121.32893Q73.38125 121.51643 73.05312 121.56331L72.67812 122.50081L79.2875 122.50081L79.2875 123.39143L75.86562 123.39143L75.86562 124.98518L78.67812 124.98518L78.67812 125.87581L75.86562 125.87581L75.86562 127.98518L79.80312 127.98518L79.80312 128.87581L75.86562 128.87581L75.86562 131.68831L74.92812 131.68831L74.92812 128.87581L69.5375 128.87581L69.5375 127.98518L71.64687 127.98518L71.64687 124.98518L74.92812 124.98518L74.92812 123.39143L72.35 123.39143ZM72.58437 127.98518L74.92812 127.98518L74.92812 125.87581L72.58437 125.87581L72.58437 127.98518ZM81.06875 129.76643Q84.11562 128.59456 85.6625 126.34456L81.5375 126.34456L81.5375 125.31331L86.08437 125.31331L86.08437 123.90706L82.475 123.90706L82.475 122.87581L86.08437 122.87581L86.08437 121.18831L86.975 121.18831Q87.44375 121.28206 87.02187 121.56331L87.02187 122.87581L90.5375 122.87581L90.5375 123.90706L87.02187 123.90706L87.02187 125.31331L91.61562 125.31331L91.61562 126.34456L87.44375 126.34456Q88.80312 128.40706 91.94375 129.48518L91.61562 130.61018Q88.75625 129.71956 87.02187 127.23518L87.02187 131.64143L86.08437 131.64143L86.08437 127.37581Q83.83437 130.09456 81.58437 130.75081L81.06875 129.76643ZM93.30312 130.75081Q94.2875 129.15706 94.99062 127.46956L95.83437 128.03206Q95.08437 129.86018 94.2875 131.31331Q94.38125 131.73518 94.14687 131.50081L93.30312 130.75081ZM94.94375 126.29768Q94.2875 125.68831 93.44375 125.12581L94.05312 124.28206Q94.94375 124.75081 95.55312 125.36018L94.94375 126.29768ZM94.475 121.51643Q95.31875 121.93831 95.83437 122.54768L95.13125 123.39143Q94.61562 122.82893 93.77187 122.31331L94.475 121.51643ZM98.50625 127.42268Q98.88125 127.46956 98.55312 127.70393L98.55312 129.15706L99.39687 129.15706L99.39687 126.71956L97.14687 126.71956L97.14687 131.64143L96.20937 131.64143L96.20937 125.96956L99.39687 125.96956L99.39687 124.98518L96.58437 124.98518L96.58437 124.23518L98.0375 124.23518L98.0375 123.06331L95.92812 123.06331L95.92812 122.31331L98.0375 122.31331L98.0375 121.09456L98.7875 121.09456Q99.1625 121.14143 98.83437 121.37581L98.83437 122.31331L100.75625 122.31331L100.75625 121.09456L101.50625 121.09456Q101.88125 121.14143 101.55312 121.37581L101.55312 122.31331L103.85 122.31331L103.85 123.06331L101.55312 123.06331L101.55312 124.23518L103.05312 124.23518L103.05312 124.98518L100.19375 124.98518L100.19375 125.96956L103.52187 125.96956L103.52187 130.79768Q103.52187 131.54768 102.77187 131.54768L101.92812 131.54768L101.7875 130.65706L102.39687 130.65706Q102.58437 130.65706 102.58437 130.46956L102.58437 126.71956L100.19375 126.71956L100.19375 129.15706L101.08437 129.15706L101.08437 127.42268L101.83437 127.42268Q102.20937 127.46956 101.88125 127.70393L101.88125 130.09456L101.08437 130.09456L101.08437 129.90706L98.55312 129.90706L98.55312 130.46956L97.75625 130.46956L97.75625 127.42268L98.50625 127.42268ZM100.75625 123.06331L98.83437 123.06331L98.83437 124.23518L100.75625 124.23518L100.75625 123.06331Z" fill-rule="nonzero"/><path fill="#000000" d="M49.06875 207.30237L48.021873 207.30237L48.021873 200.58362Q47.63125 200.943 47.00625 201.318Q46.396873 201.67737 45.9125 201.84924L45.9125 200.83362Q46.7875 200.41174 47.44375 199.83362Q48.115623 199.23987 48.396873 198.67737L49.06875 198.67737L49.06875 207.30237Z" fill-rule="nonzero"/><path fill="#000000" d="M55.35 199.98987Q54.459373 201.53674 53.146873 202.568L52.490623 201.72424Q54.4125 200.318 55.115623 197.64612L56.19375 197.92737Q56.38125 198.11487 56.053123 198.16174L55.678123 199.09924L62.2875 199.09924L62.2875 199.98987L58.865623 199.98987L58.865623 201.58362L61.678123 201.58362L61.678123 202.47424L58.865623 202.47424L58.865623 204.58362L62.803123 204.58362L62.803123 205.47424L58.865623 205.47424L58.865623 208.28674L57.928123 208.28674L57.928123 205.47424L52.5375 205.47424L52.5375 204.58362L54.646873 204.58362L54.646873 201.58362L57.928123 201.58362L57.928123 199.98987L55.35 199.98987ZM55.584373 204.58362L57.928123 204.58362L57.928123 202.47424L55.584373 202.47424L55.584373 204.58362ZM64.39687 207.30237Q65.75625 205.193 66.7875 201.818Q65.75625 201.95862 64.77187 202.05237L64.67812 201.02112Q65.52187 201.02112 67.02187 200.8805Q67.44375 199.42737 67.725 197.92737L68.70937 198.2555Q69.27187 198.48987 68.6625 198.67737Q68.38125 199.66174 68.1 200.78674Q68.6625 200.693 69.27187 200.693Q69.92812 200.693 70.25625 201.02112Q70.81875 201.58362 70.81875 203.55237Q70.81875 206.27112 70.02187 207.068Q69.55312 207.53674 68.94375 207.53674Q68.05312 207.53674 67.1625 206.5055L67.77187 205.66174Q68.52187 206.41174 68.89687 206.41174Q69.13125 206.41174 69.31875 206.22424Q69.83437 205.70862 69.83437 203.36487Q69.83437 202.05237 69.55312 201.77112Q69.4125 201.6305 68.99062 201.6305Q68.56875 201.6305 67.81875 201.72424Q66.83437 205.193 65.475 207.67737L64.39687 207.30237ZM73.81875 204.95862Q72.975 201.91174 71.38125 200.41174L72.225 199.80237Q74.14687 201.77112 74.85 204.53674L73.81875 204.95862ZM78.69375 206.8805L79.81875 206.8805Q82.1625 206.8805 82.77187 206.27112Q83.2875 205.7555 83.2875 205.09924Q83.2875 204.53674 82.81875 204.068Q82.39687 203.64612 81.4125 203.64612Q79.35 203.64612 77.6625 205.66174L76.725 205.568L77.24062 200.55237L78.225 200.73987Q78.69375 200.92737 78.225 201.11487L77.89687 204.16174Q79.5375 202.7555 81.64687 202.7555Q82.9125 202.7555 83.6625 203.5055Q84.27187 204.11487 84.27187 205.09924Q84.27187 206.17737 83.475 206.97424Q82.5375 207.91174 79.9125 207.91174L79.06875 207.91174L78.69375 206.8805ZM78.13125 197.92737Q79.44375 198.2555 81.69375 199.05237L81.225 199.98987Q79.5375 199.28674 77.70937 198.77112L78.13125 197.92737Z" fill-rule="nonzero"/><path fill="#000000" d="M91.64687 206.28674L91.64687 207.30237L85.95937 207.30237Q85.95937 206.92737 86.08437 206.568Q86.30312 205.98987 86.77187 205.42737Q87.25625 204.86487 88.1625 204.1305Q89.56875 202.97424 90.05312 202.30237Q90.55312 201.6305 90.55312 201.03674Q90.55312 200.41174 90.1 199.98987Q89.64687 199.55237 88.92812 199.55237Q88.1625 199.55237 87.70937 200.0055Q87.25625 200.45862 87.24062 201.27112L86.1625 201.16174Q86.27187 199.943 86.99062 199.318Q87.725 198.67737 88.95937 198.67737Q90.19375 198.67737 90.9125 199.36487Q91.63125 200.05237 91.63125 201.068Q91.63125 201.58362 91.4125 202.08362Q91.20937 202.568 90.70937 203.1305Q90.225 203.67737 89.1 204.6305Q88.14687 205.42737 87.86562 205.72424Q87.6 206.0055 87.42812 206.28674L91.64687 206.28674Z" fill-rule="nonzero"/><path fill="#000000" d="M96.35 199.98987Q95.45937 201.53674 94.14687 202.568L93.49062 201.72424Q95.4125 200.318 96.11562 197.64612L97.19375 197.92737Q97.38125 198.11487 97.05312 198.16174L96.67812 199.09924L103.2875 199.09924L103.2875 199.98987L99.86562 199.98987L99.86562 201.58362L102.67812 201.58362L102.67812 202.47424L99.86562 202.47424L99.86562 204.58362L103.80312 204.58362L103.80312 205.47424L99.86562 205.47424L99.86562 208.28674L98.92812 208.28674L98.92812 205.47424L93.5375 205.47424L93.5375 204.58362L95.64687 204.58362L95.64687 201.58362L98.92812 201.58362L98.92812 199.98987L96.35 199.98987ZM96.58437 204.58362L98.92812 204.58362L98.92812 202.47424L96.58437 202.47424L96.58437 204.58362Z" fill-rule="nonzero"/><path fill="#000000" d="M50.646873 282.88516L50.646873 283.9008L44.959373 283.9008Q44.959373 283.5258 45.084373 283.1664Q45.303123 282.5883 45.771873 282.0258Q46.25625 281.4633 47.1625 280.7289Q48.56875 279.57266 49.053123 278.9008Q49.553123 278.2289 49.553123 277.63516Q49.553123 277.01016 49.1 276.5883Q48.646873 276.1508 47.928123 276.1508Q47.1625 276.1508 46.709373 276.6039Q46.25625 277.05704 46.240623 277.86954L45.1625 277.76016Q45.271873 276.5414 45.990623 275.9164Q46.725 275.2758 47.959373 275.2758Q49.19375 275.2758 49.9125 275.9633Q50.63125 276.6508 50.63125 277.6664Q50.63125 278.18204 50.4125 278.68204Q50.209373 279.1664 49.709373 279.7289Q49.225 280.2758 48.1 281.2289Q47.146873 282.0258 46.865623 282.32266Q46.6 282.6039 46.428123 282.88516L50.646873 282.88516Z" fill-rule="nonzero"/><path fill="#000000" d="M55.35 276.5883Q54.459373 278.13516 53.146873 279.1664L52.490623 278.32266Q54.4125 276.9164 55.115623 274.24454L56.19375 274.5258Q56.38125 274.7133 56.053123 274.76016L55.678123 275.69766L62.2875 275.69766L62.2875 276.5883L58.865623 276.5883L58.865623 278.18204L61.678123 278.18204L61.678123 279.07266L58.865623 279.07266L58.865623 281.18204L62.803123 281.18204L62.803123 282.07266L58.865623 282.07266L58.865623 284.88516L57.928123 284.88516L57.928123 282.07266L52.5375 282.07266L52.5375 281.18204L54.646873 281.18204L54.646873 278.18204L57.928123 278.18204L57.928123 276.5883L55.35 276.5883ZM55.584373 281.18204L57.928123 281.18204L57.928123 279.07266L55.584373 279.07266L55.584373 281.18204ZM64.39687 283.9008Q65.75625 281.7914 66.7875 278.4164Q65.75625 278.55704 64.77187 278.6508L64.67812 277.61954Q65.52187 277.61954 67.02187 277.4789Q67.44375 276.0258 67.725 274.5258L68.70937 274.8539Q69.27187 275.0883 68.6625 275.2758Q68.38125 276.26016 68.1 277.38516Q68.6625 277.2914 69.27187 277.2914Q69.92812 277.2914 70.25625 277.61954Q70.81875 278.18204 70.81875 280.1508Q70.81875 282.86954 70.02187 283.6664Q69.55312 284.13516 68.94375 284.13516Q68.05312 284.13516 67.1625 283.1039L67.77187 282.26016Q68.52187 283.01016 68.89687 283.01016Q69.13125 283.01016 69.31875 282.82266Q69.83437 282.30704 69.83437 279.9633Q69.83437 278.6508 69.55312 278.36954Q69.4125 278.2289 68.99062 278.2289Q68.56875 278.2289 67.81875 278.32266Q66.83437 281.7914 65.475 284.2758L64.39687 283.9008ZM73.81875 281.55704Q72.975 278.51016 71.38125 277.01016L72.225 276.4008Q74.14687 278.36954 74.85 281.13516L73.81875 281.55704ZM78.69375 283.4789L79.81875 283.4789Q82.1625 283.4789 82.77187 282.86954Q83.2875 282.3539 83.2875 281.69766Q83.2875 281.13516 82.81875 280.6664Q82.39687 280.24454 81.4125 280.24454Q79.35 280.24454 77.6625 282.26016L76.725 282.1664L77.24062 277.1508L78.225 277.3383Q78.69375 277.5258 78.225 277.7133L77.89687 280.76016Q79.5375 279.3539 81.64687 279.3539Q82.9125 279.3539 83.6625 280.1039Q84.27187 280.7133 84.27187 281.69766Q84.27187 282.7758 83.475 283.57266Q82.5375 284.51016 79.9125 284.51016L79.06875 284.51016L78.69375 283.4789ZM78.13125 274.5258Q79.44375 274.8539 81.69375 275.6508L81.225 276.5883Q79.5375 275.88516 77.70937 275.36954L78.13125 274.5258Z" fill-rule="nonzero"/><path fill="#000000" d="M86.1 281.6508L87.20937 281.55704Q87.33437 282.36954 87.77187 282.7758Q88.225 283.18204 88.86562 283.18204Q89.61562 283.18204 90.14687 282.6039Q90.67812 282.0258 90.67812 281.0883Q90.67812 280.18204 90.1625 279.6664Q89.6625 279.13516 88.83437 279.13516Q88.33437 279.13516 87.9125 279.36954Q87.50625 279.6039 87.27187 279.9633L86.2875 279.8383L87.11562 275.43204L91.39687 275.43204L91.39687 276.43204L87.95937 276.43204L87.50625 278.74454Q88.27187 278.19766 89.11562 278.19766Q90.24062 278.19766 91.00625 278.9789Q91.7875 279.76016 91.7875 280.99454Q91.7875 282.1508 91.11562 283.01016Q90.2875 284.0414 88.86562 284.0414Q87.69375 284.0414 86.94375 283.38516Q86.20937 282.7289 86.1 281.6508Z" fill-rule="nonzero"/><path fill="#000000" d="M96.35 276.5883Q95.45937 278.13516 94.14687 279.1664L93.49062 278.32266Q95.4125 276.9164 96.11562 274.24454L97.19375 274.5258Q97.38125 274.7133 97.05312 274.76016L96.67812 275.69766L103.2875 275.69766L103.2875 276.5883L99.86562 276.5883L99.86562 278.18204L102.67812 278.18204L102.67812 279.07266L99.86562 279.07266L99.86562 281.18204L103.80312 281.18204L103.80312 282.07266L99.86562 282.07266L99.86562 284.88516L98.92812 284.88516L98.92812 282.07266L93.5375 282.07266L93.5375 281.18204L95.64687 281.18204L95.64687 278.18204L98.92812 278.18204L98.92812 276.5883L96.35 276.5883ZM96.58437 281.18204L98.92812 281.18204L98.92812 279.07266L96.58437 279.07266L96.58437 281.18204Z" fill-rule="nonzero"/><path fill="#000000" d="M38.1 358.2492L39.209373 358.15546Q39.334373 358.96796 39.771873 359.3742Q40.225 359.78046 40.865623 359.78046Q41.615623 359.78046 42.146873 359.20233Q42.678123 358.6242 42.678123 357.6867Q42.678123 356.78046 42.1625 356.26483Q41.6625 355.73358 40.834373 355.73358Q40.334373 355.73358 39.9125 355.96796Q39.50625 356.20233 39.271873 356.5617L38.2875 356.4367L39.115623 352.03046L43.396873 352.03046L43.396873 353.03046L39.959373 353.03046L39.50625 355.34296Q40.271873 354.79608 41.115623 354.79608Q42.240623 354.79608 43.00625 355.57733Q43.7875 356.35858 43.7875 357.59296Q43.7875 358.7492 43.115623 359.60858Q42.2875 360.63983 40.865623 360.63983Q39.69375 360.63983 38.94375 359.98358Q38.209373 359.32733 38.1 358.2492Z" fill-rule="nonzero"/><path fill="#000000" d="M48.35 353.1867Q47.459373 354.73358 46.146873 355.76483L45.490623 354.92108Q47.4125 353.51483 48.115623 350.84296L49.19375 351.1242Q49.38125 351.3117 49.053123 351.35858L48.678123 352.29608L55.2875 352.29608L55.2875 353.1867L51.865623 353.1867L51.865623 354.78046L54.678123 354.78046L54.678123 355.67108L51.865623 355.67108L51.865623 357.78046L55.803123 357.78046L55.803123 358.67108L51.865623 358.67108L51.865623 361.48358L50.928123 361.48358L50.928123 358.67108L45.5375 358.67108L45.5375 357.78046L47.646873 357.78046L47.646873 354.78046L50.928123 354.78046L50.928123 353.1867L48.35 353.1867ZM48.584373 357.78046L50.928123 357.78046L50.928123 355.67108L48.584373 355.67108L48.584373 357.78046ZM57.396873 360.4992Q58.75625 358.38983 59.7875 355.01483Q58.75625 355.15546 57.771873 355.2492L57.678123 354.21796Q58.521873 354.21796 60.021873 354.07733Q60.44375 352.6242 60.725 351.1242L61.709373 351.45233Q62.271873 351.6867 61.6625 351.8742Q61.38125 352.85858 61.1 353.98358Q61.6625 353.88983 62.271873 353.88983Q62.928123 353.88983 63.25625 354.21796Q63.81875 354.78046 63.81875 356.7492Q63.81875 359.46796 63.021873 360.26483Q62.553123 360.73358 61.94375 360.73358Q61.053123 360.73358 60.1625 359.70233L60.771873 358.85858Q61.521873 359.60858 61.896873 359.60858Q62.13125 359.60858 62.31875 359.42108Q62.834373 358.90546 62.834373 356.5617Q62.834373 355.2492 62.553123 354.96796Q62.4125 354.82733 61.990623 354.82733Q61.56875 354.82733 60.81875 354.92108Q59.834373 358.38983 58.475 360.8742L57.396873 360.4992ZM66.81875 358.15546Q65.975 355.10858 64.38125 353.60858L65.225 352.9992Q67.14687 354.96796 67.85 357.73358L66.81875 358.15546ZM71.69375 360.07733L72.81875 360.07733Q75.1625 360.07733 75.77187 359.46796Q76.2875 358.95233 76.2875 358.29608Q76.2875 357.73358 75.81875 357.26483Q75.39687 356.84296 74.4125 356.84296Q72.35 356.84296 70.6625 358.85858L69.725 358.76483L70.24062 353.7492L71.225 353.9367Q71.69375 354.1242 71.225 354.3117L70.89687 357.35858Q72.5375 355.95233 74.64687 355.95233Q75.9125 355.95233 76.6625 356.70233Q77.27187 357.3117 77.27187 358.29608Q77.27187 359.3742 76.475 360.17108Q75.5375 361.10858 72.9125 361.10858L72.06875 361.10858L71.69375 360.07733ZM71.13125 351.1242Q72.44375 351.45233 74.69375 352.2492L74.225 353.1867Q72.5375 352.48358 70.70937 351.96796L71.13125 351.1242Z" fill-rule="nonzero"/><path fill="#000000" d="M83.06875 360.4992L82.02187 360.4992L82.02187 353.78046Q81.63125 354.13983 81.00625 354.51483Q80.39687 354.8742 79.9125 355.04608L79.9125 354.03046Q80.7875 353.60858 81.44375 353.03046Q82.11562 352.4367 82.39687 351.8742L83.06875 351.8742L83.06875 360.4992ZM86.1 356.26483Q86.1 354.73358 86.4125 353.8117Q86.725 352.8742 87.33437 352.3742Q87.95937 351.8742 88.89687 351.8742Q89.58437 351.8742 90.1 352.15546Q90.63125 352.4367 90.975 352.96796Q91.31875 353.48358 91.50625 354.23358Q91.69375 354.98358 91.69375 356.26483Q91.69375 357.78046 91.38125 358.70233Q91.08437 359.6242 90.45937 360.13983Q89.85 360.63983 88.89687 360.63983Q87.6625 360.63983 86.94375 359.7492Q86.1 358.6867 86.1 356.26483ZM87.17812 356.26483Q87.17812 358.3742 87.67812 359.07733Q88.17812 359.78046 88.89687 359.78046Q89.63125 359.78046 90.11562 359.07733Q90.61562 358.3742 90.61562 356.26483Q90.61562 354.13983 90.11562 353.45233Q89.63125 352.7492 88.88125 352.7492Q88.1625 352.7492 87.725 353.35858Q87.17812 354.13983 87.17812 356.26483Z" fill-rule="nonzero"/><path fill="#000000" d="M96.35 353.1867Q95.45937 354.73358 94.14687 355.76483L93.49062 354.92108Q95.4125 353.51483 96.11562 350.84296L97.19375 351.1242Q97.38125 351.3117 97.05312 351.35858L96.67812 352.29608L103.2875 352.29608L103.2875 353.1867L99.86562 353.1867L99.86562 354.78046L102.67812 354.78046L102.67812 355.67108L99.86562 355.67108L99.86562 357.78046L103.80312 357.78046L103.80312 358.67108L99.86562 358.67108L99.86562 361.48358L98.92812 361.48358L98.92812 358.67108L93.5375 358.67108L93.5375 357.78046L95.64687 357.78046L95.64687 354.78046L98.92812 354.78046L98.92812 353.1867L96.35 353.1867ZM96.58437 357.78046L98.92812 357.78046L98.92812 355.67108L96.58437 355.67108L96.58437 357.78046Z" fill-rule="nonzero"/><path fill="#000000" d="M35.06875 437.09763L34.021873 437.09763L34.021873 430.37888Q33.63125 430.73825 33.00625 431.11325Q32.396873 431.47263 31.9125 431.6445L31.9125 430.62888Q32.7875 430.207 33.44375 429.62888Q34.115623 429.03513 34.396873 428.47263L35.06875 428.47263L35.06875 437.09763ZM38.1 432.86325Q38.1 431.332 38.4125 430.41013Q38.725 429.47263 39.334373 428.97263Q39.959373 428.47263 40.896873 428.47263Q41.584373 428.47263 42.1 428.75388Q42.63125 429.03513 42.975 429.56638Q43.31875 430.082 43.50625 430.832Q43.69375 431.582 43.69375 432.86325Q43.69375 434.37888 43.38125 435.30075Q43.084373 436.22263 42.459373 436.73825Q41.85 437.23825 40.896873 437.23825Q39.6625 437.23825 38.94375 436.34763Q38.1 435.28513 38.1 432.86325ZM39.178123 432.86325Q39.178123 434.97263 39.678123 435.67575Q40.178123 436.37888 40.896873 436.37888Q41.63125 436.37888 42.115623 435.67575Q42.615623 434.97263 42.615623 432.86325Q42.615623 430.73825 42.115623 430.05075Q41.63125 429.34763 40.88125 429.34763Q40.1625 429.34763 39.725 429.957Q39.178123 430.73825 39.178123 432.86325Z" fill-rule="nonzero"/><path fill="#000000" d="M48.35 429.78513Q47.459373 431.332 46.146873 432.36325L45.490623 431.5195Q47.4125 430.11325 48.115623 427.44138L49.19375 427.72263Q49.38125 427.91013 49.053123 427.957L48.678123 428.8945L55.2875 428.8945L55.2875 429.78513L51.865623 429.78513L51.865623 431.37888L54.678123 431.37888L54.678123 432.2695L51.865623 432.2695L51.865623 434.37888L55.803123 434.37888L55.803123 435.2695L51.865623 435.2695L51.865623 438.082L50.928123 438.082L50.928123 435.2695L45.5375 435.2695L45.5375 434.37888L47.646873 434.37888L47.646873 431.37888L50.928123 431.37888L50.928123 429.78513L48.35 429.78513ZM48.584373 434.37888L50.928123 434.37888L50.928123 432.2695L48.584373 432.2695L48.584373 434.37888ZM57.396873 437.09763Q58.75625 434.98825 59.7875 431.61325Q58.75625 431.75388 57.771873 431.84763L57.678123 430.81638Q58.521873 430.81638 60.021873 430.67575Q60.44375 429.22263 60.725 427.72263L61.709373 428.05075Q62.271873 428.28513 61.6625 428.47263Q61.38125 429.457 61.1 430.582Q61.6625 430.48825 62.271873 430.48825Q62.928123 430.48825 63.25625 430.81638Q63.81875 431.37888 63.81875 433.34763Q63.81875 436.06638 63.021873 436.86325Q62.553123 437.332 61.94375 437.332Q61.053123 437.332 60.1625 436.30075L60.771873 435.457Q61.521873 436.207 61.896873 436.207Q62.13125 436.207 62.31875 436.0195Q62.834373 435.50388 62.834373 433.16013Q62.834373 431.84763 62.553123 431.56638Q62.4125 431.42575 61.990623 431.42575Q61.56875 431.42575 60.81875 431.5195Q59.834373 434.98825 58.475 437.47263L57.396873 437.09763ZM66.81875 434.75388Q65.975 431.707 64.38125 430.207L65.225 429.59763Q67.14687 431.56638 67.85 434.332L66.81875 434.75388ZM71.69375 436.67575L72.81875 436.67575Q75.1625 436.67575 75.77187 436.06638Q76.2875 435.55075 76.2875 434.8945Q76.2875 434.332 75.81875 433.86325Q75.39687 433.44138 74.4125 433.44138Q72.35 433.44138 70.6625 435.457L69.725 435.36325L70.24062 430.34763L71.225 430.53513Q71.69375 430.72263 71.225 430.91013L70.89687 433.957Q72.5375 432.55075 74.64687 432.55075Q75.9125 432.55075 76.6625 433.30075Q77.27187 433.91013 77.27187 434.8945Q77.27187 435.97263 76.475 436.7695Q75.5375 437.707 72.9125 437.707L72.06875 437.707L71.69375 436.67575ZM71.13125 427.72263Q72.44375 428.05075 74.69375 428.84763L74.225 429.78513Q72.5375 429.082 70.70937 428.56638L71.13125 427.72263Z" fill-rule="nonzero"/><path fill="#000000" d="M84.64687 436.082L84.64687 437.09763L78.95937 437.09763Q78.95937 436.72263 79.08437 436.36325Q79.30312 435.78513 79.77187 435.22263Q80.25625 434.66013 81.1625 433.92575Q82.56875 432.7695 83.05312 432.09763Q83.55312 431.42575 83.55312 430.832Q83.55312 430.207 83.1 429.78513Q82.64687 429.34763 81.92812 429.34763Q81.1625 429.34763 80.70937 429.80075Q80.25625 430.25388 80.24062 431.06638L79.1625 430.957Q79.27187 429.73825 79.99062 429.11325Q80.725 428.47263 81.95937 428.47263Q83.19375 428.47263 83.9125 429.16013Q84.63125 429.84763 84.63125 430.86325Q84.63125 431.37888 84.4125 431.87888Q84.20937 432.36325 83.70937 432.92575Q83.225 433.47263 82.1 434.42575Q81.14687 435.22263 80.86562 435.5195Q80.6 435.80075 80.42812 436.082L84.64687 436.082ZM86.1 432.86325Q86.1 431.332 86.4125 430.41013Q86.725 429.47263 87.33437 428.97263Q87.95937 428.47263 88.89687 428.47263Q89.58437 428.47263 90.1 428.75388Q90.63125 429.03513 90.975 429.56638Q91.31875 430.082 91.50625 430.832Q91.69375 431.582 91.69375 432.86325Q91.69375 434.37888 91.38125 435.30075Q91.08437 436.22263 90.45937 436.73825Q89.85 437.23825 88.89687 437.23825Q87.6625 437.23825 86.94375 436.34763Q86.1 435.28513 86.1 432.86325ZM87.17812 432.86325Q87.17812 434.97263 87.67812 435.67575Q88.17812 436.37888 88.89687 436.37888Q89.63125 436.37888 90.11562 435.67575Q90.61562 434.97263 90.61562 432.86325Q90.61562 430.73825 90.11562 430.05075Q89.63125 429.34763 88.88125 429.34763Q88.1625 429.34763 87.725 429.957Q87.17812 430.73825 87.17812 432.86325Z" fill-rule="nonzero"/><path fill="#000000" d="M96.35 429.78513Q95.45937 431.332 94.14687 432.36325L93.49062 431.5195Q95.4125 430.11325 96.11562 427.44138L97.19375 427.72263Q97.38125 427.91013 97.05312 427.957L96.67812 428.8945L103.2875 428.8945L103.2875 429.78513L99.86562 429.78513L99.86562 431.37888L102.67812 431.37888L102.67812 432.2695L99.86562 432.2695L99.86562 434.37888L103.80312 434.37888L103.80312 435.2695L99.86562 435.2695L99.86562 438.082L98.92812 438.082L98.92812 435.2695L93.5375 435.2695L93.5375 434.37888L95.64687 434.37888L95.64687 431.37888L98.92812 431.37888L98.92812 429.78513L96.35 429.78513ZM96.58437 434.37888L98.92812 434.37888L98.92812 432.2695L96.58437 432.2695L96.58437 434.37888Z" fill-rule="nonzero"/><path fill="#000000" d="M60.646873 512.6804L60.646873 513.69604L54.959373 513.69604Q54.959373 513.32104 55.084373 512.9617Q55.303123 512.38354 55.771873 511.82104Q56.25625 511.25854 57.1625 510.52417Q58.56875 509.36792 59.053123 508.69604Q59.553123 508.02417 59.553123 507.43042Q59.553123 506.80542 59.1 506.38354Q58.646873 505.94604 57.928123 505.94604Q57.1625 505.94604 56.709373 506.39917Q56.25625 506.8523 56.240623 507.6648L55.1625 507.55542Q55.271873 506.33667 55.990623 505.71167Q56.725 505.07104 57.959373 505.07104Q59.19375 505.07104 59.9125 505.75854Q60.63125 506.44604 60.63125 507.46167Q60.63125 507.9773 60.4125 508.4773Q60.209373 508.96167 59.709373 509.52417Q59.225 510.07104 58.1 511.02417Q57.146873 511.82104 56.865623 512.1179Q56.6 512.3992 56.428123 512.6804L60.646873 512.6804ZM62.1 509.46167Q62.1 507.93042 62.4125 507.00854Q62.725 506.07104 63.334373 505.57104Q63.959373 505.07104 64.89687 505.07104Q65.58437 505.07104 66.1 505.3523Q66.63125 505.63354 66.975 506.1648Q67.31875 506.68042 67.50625 507.43042Q67.69375 508.18042 67.69375 509.46167Q67.69375 510.9773 67.38125 511.89917Q67.08437 512.82104 66.45937 513.3367Q65.85 513.8367 64.89687 513.8367Q63.6625 513.8367 62.94375 512.94604Q62.1 511.88354 62.1 509.46167ZM63.178123 509.46167Q63.178123 511.57104 63.678123 512.2742Q64.17812 512.9773 64.89687 512.9773Q65.63125 512.9773 66.11562 512.2742Q66.61562 511.57104 66.61562 509.46167Q66.61562 507.33667 66.11562 506.64917Q65.63125 505.94604 64.88125 505.94604Q64.1625 505.94604 63.725 506.55542Q63.178123 507.33667 63.178123 509.46167Z" fill-rule="nonzero"/><path fill="#000000" d="M72.35 506.38354Q71.45937 507.93042 70.14687 508.96167L69.49062 508.11792Q71.4125 506.71167 72.11562 504.0398L73.19375 504.32104Q73.38125 504.50854 73.05312 504.55542L72.67812 505.49292L79.2875 505.49292L79.2875 506.38354L75.86562 506.38354L75.86562 507.9773L78.67812 507.9773L78.67812 508.86792L75.86562 508.86792L75.86562 510.9773L79.80312 510.9773L79.80312 511.86792L75.86562 511.86792L75.86562 514.6804L74.92812 514.6804L74.92812 511.86792L69.5375 511.86792L69.5375 510.9773L71.64687 510.9773L71.64687 507.9773L74.92812 507.9773L74.92812 506.38354L72.35 506.38354ZM72.58437 510.9773L74.92812 510.9773L74.92812 508.86792L72.58437 508.86792L72.58437 510.9773ZM89.4125 504.88354L90.30312 504.9773Q90.67812 505.02417 90.35 505.25854L90.35 508.63354Q90.35 510.27417 89.7875 511.3523L92.0375 513.1804L91.33437 514.1179L89.36562 512.1492Q88.14687 513.8367 84.95937 514.5867L84.58437 513.5554Q87.02187 513.1804 88.19375 512.00854Q89.4125 510.7898 89.4125 508.30542L89.4125 504.88354ZM87.77187 510.2273Q86.27187 511.44604 82.52187 513.6492Q82.42812 514.0242 82.19375 513.69604L81.725 512.7117Q82.00625 512.6179 82.89687 512.1492L82.61562 505.1648L83.6 505.25854Q83.975 505.30542 83.64687 505.5398L83.88125 511.68042Q85.99062 510.46167 87.30312 509.43042L87.77187 510.2273ZM85.80312 505.39917Q86.74062 506.05542 87.5375 507.13354L86.6 507.83667Q85.75625 506.6648 85.00625 506.14917L85.80312 505.39917ZM97.61562 512.7117L97.61562 504.4148L98.64687 504.4148Q99.11562 504.50854 98.69375 504.7898L98.69375 507.50854L102.49062 507.50854L102.49062 508.5398L98.69375 508.5398L98.69375 512.7117L103.56875 512.7117L103.56875 513.7429L93.39687 513.7429L93.39687 512.7117L97.61562 512.7117Z" fill-rule="nonzero"/><path fill="#000000" d="M107.6 574.16565Q107.6 572.6344 107.9125 571.7125Q108.225 570.775 108.83437 570.275Q109.45937 569.775 110.39687 569.775Q111.08437 569.775 111.6 570.0563Q112.13125 570.3375 112.475 570.8688Q112.81875 571.3844 113.00625 572.1344Q113.19375 572.8844 113.19375 574.16565Q113.19375 575.6813 112.88125 576.60315Q112.58437 577.525 111.95937 578.04065Q111.35 578.54065 110.39687 578.54065Q109.1625 578.54065 108.44375 577.65Q107.6 576.5875 107.6 574.16565ZM108.67812 574.16565Q108.67812 576.275 109.17812 576.97815Q109.67812 577.6813 110.39687 577.6813Q111.13125 577.6813 111.61562 576.97815Q112.11562 576.275 112.11562 574.16565Q112.11562 572.04065 111.61562 571.35315Q111.13125 570.65 110.38125 570.65Q109.6625 570.65 109.225 571.2594Q108.67812 572.04065 108.67812 574.16565Z" fill-rule="nonzero"/><path fill="#000000" d="M391.91354 577.3844L391.91354 578.4L386.22604 578.4Q386.22604 578.025 386.35104 577.66565Q386.5698 577.0875 387.03854 576.525Q387.52292 575.9625 388.42917 575.22815Q389.83542 574.0719 390.3198 573.4Q390.8198 572.72815 390.8198 572.1344Q390.8198 571.5094 390.36667 571.0875Q389.91354 570.65 389.1948 570.65Q388.42917 570.65 387.97604 571.10315Q387.52292 571.5563 387.5073 572.3688L386.42917 572.2594Q386.53854 571.04065 387.2573 570.41565Q387.99167 569.775 389.22604 569.775Q390.46042 569.775 391.17917 570.4625Q391.89792 571.15 391.89792 572.16565Q391.89792 572.6813 391.67917 573.1813Q391.47604 573.66565 390.97604 574.22815Q390.49167 574.775 389.36667 575.72815Q388.41354 576.525 388.1323 576.8219Q387.86667 577.10315 387.6948 577.3844L391.91354 577.3844ZM393.36667 574.16565Q393.36667 572.6344 393.67917 571.7125Q393.99167 570.775 394.60104 570.275Q395.22604 569.775 396.16354 569.775Q396.85104 569.775 397.36667 570.0563Q397.89792 570.3375 398.24167 570.8688Q398.58542 571.3844 398.77292 572.1344Q398.96042 572.8844 398.96042 574.16565Q398.96042 575.6813 398.64792 576.60315Q398.35104 577.525 397.72604 578.04065Q397.11667 578.54065 396.16354 578.54065Q394.92917 578.54065 394.21042 577.65Q393.36667 576.5875 393.36667 574.16565ZM394.4448 574.16565Q394.4448 576.275 394.9448 576.97815Q395.4448 577.6813 396.16354 577.6813Q396.89792 577.6813 397.3823 576.97815Q397.8823 576.275 397.8823 574.16565Q397.8823 572.04065 397.3823 571.35315Q396.89792 570.65 396.14792 570.65Q395.42917 570.65 394.99167 571.2594Q394.4448 572.04065 394.4448 574.16565Z" fill-rule="nonzero"/><path fill="#000000" d="M672.00836 578.4L672.00836 576.3375L668.2896 576.3375L668.2896 575.3688L672.2115 569.8063L673.07086 569.8063L673.07086 575.3688L674.2271 575.3688L674.2271 576.3375L673.07086 576.3375L673.07086 578.4L672.00836 578.4ZM672.00836 575.3688L672.00836 571.5094L669.32086 575.3688L672.00836 575.3688ZM675.63336 574.16565Q675.63336 572.6344 675.94586 571.7125Q676.25836 570.775 676.86774 570.275Q677.49274 569.775 678.43024 569.775Q679.11774 569.775 679.63336 570.0563Q680.1646 570.3375 680.50836 570.8688Q680.8521 571.3844 681.0396 572.1344Q681.2271 572.8844 681.2271 574.16565Q681.2271 575.6813 680.9146 576.60315Q680.61774 577.525 679.99274 578.04065Q679.38336 578.54065 678.43024 578.54065Q677.19586 578.54065 676.4771 577.65Q675.63336 576.5875 675.63336 574.16565ZM676.7115 574.16565Q676.7115 576.275 677.2115 576.97815Q677.7115 577.6813 678.43024 577.6813Q679.1646 577.6813 679.649 576.97815Q680.149 576.275 680.149 574.16565Q680.149 572.04065 679.649 571.35315Q679.1646 570.65 678.4146 570.65Q677.69586 570.65 677.25836 571.2594Q676.7115 572.04065 676.7115 574.16565Z" fill-rule="nonzero"/><path fill="#000000" d="M956.3688 571.91565L955.3219 571.9938Q955.1813 571.3688 954.9313 571.0875Q954.4938 570.6344 953.8688 570.6344Q953.3688 570.6344 952.97815 570.91565Q952.4938 571.29065 952.1969 571.9938Q951.91565 572.6813 951.9 573.9625Q952.275 573.3844 952.8219 573.10315Q953.3844 572.8219 953.9938 572.8219Q955.04065 572.8219 955.775 573.60315Q956.525 574.3844 956.525 575.60315Q956.525 576.41565 956.16565 577.1188Q955.8219 577.8063 955.2125 578.1813Q954.60315 578.54065 953.8375 578.54065Q952.5094 578.54065 951.6813 577.5719Q950.85315 576.60315 950.85315 574.3844Q950.85315 571.8844 951.775 570.7594Q952.5719 569.775 953.9313 569.775Q954.9469 569.775 955.5875 570.35315Q956.2438 570.91565 956.3688 571.91565ZM952.0719 575.6188Q952.0719 576.16565 952.29065 576.66565Q952.525 577.15 952.9313 577.41565Q953.35315 577.6813 953.8219 577.6813Q954.47815 577.6813 954.9625 577.15Q955.4469 576.60315 955.4469 575.6813Q955.4469 574.79065 954.9625 574.275Q954.4938 573.7594 953.775 573.7594Q953.0563 573.7594 952.5563 574.275Q952.0719 574.79065 952.0719 575.6188ZM957.9 574.16565Q957.9 572.6344 958.2125 571.7125Q958.525 570.775 959.1344 570.275Q959.7594 569.775 960.6969 569.775Q961.3844 569.775 961.9 570.0563Q962.4313 570.3375 962.775 570.8688Q963.1188 571.3844 963.3063 572.1344Q963.4938 572.8844 963.4938 574.16565Q963.4938 575.6813 963.1813 576.60315Q962.8844 577.525 962.2594 578.04065Q961.65 578.54065 960.6969 578.54065Q959.4625 578.54065 958.7438 577.65Q957.9 576.5875 957.9 574.16565ZM958.97815 574.16565Q958.97815 576.275 959.47815 576.97815Q959.97815 577.6813 960.6969 577.6813Q961.4313 577.6813 961.91565 576.97815Q962.41565 576.275 962.41565 574.16565Q962.41565 572.04065 961.91565 571.35315Q961.4313 570.65 960.6813 570.65Q959.9625 570.65 959.525 571.2594Q958.97815 572.04065 958.97815 574.16565Z" fill-rule="nonzero"/><path fill="#757575" d="M40.9125 49.678123Q44.115623 49.365623 45.209373 48.271873Q46.06875 47.4125 46.06875 45.85Q46.06875 44.13125 45.209373 43.271873Q44.19375 42.25625 42.396873 42.1Q41.146873 46.1625 39.584373 47.803123L40.053123 48.81875L38.56875 49.9125L38.178123 49.053123Q36.146873 50.771873 34.740623 50.771873Q33.803123 50.771873 33.021873 49.990623Q32.1625 49.13125 32.1625 47.646873Q32.1625 44.990623 33.959373 43.19375Q35.053123 42.1 36.225 41.475L36.38125 38.50625L33.1 38.6625L32.7875 36.94375L36.459373 36.865623Q36.5375 35.06875 36.69375 33.428123L38.178123 33.428123Q38.959373 33.584373 38.334373 34.053123Q38.178123 35.459373 38.1 36.7875Q41.85 36.553123 44.50625 36.084373L44.81875 37.803123Q41.5375 38.19375 38.021873 38.35L37.865623 40.85Q38.959373 40.459373 40.9125 40.38125L41.146873 39.13125L42.63125 39.365623Q43.334373 39.521873 42.7875 39.990623L42.709373 40.5375Q45.13125 40.771873 46.459373 42.1Q47.94375 43.584373 47.94375 45.928123Q47.94375 48.115623 46.615623 49.44375Q45.209373 50.85 41.928123 51.396873L40.9125 49.678123ZM36.459373 43.115623Q35.834373 43.428123 35.053123 44.209373Q33.646873 45.615623 33.646873 47.88125Q33.646873 48.50625 34.115623 48.975Q34.271873 49.13125 34.740623 49.13125Q35.9125 49.13125 37.396873 47.646873Q36.615623 45.303123 36.459373 43.115623ZM38.021873 42.334373Q38.1 44.365623 38.803123 46.240623Q40.053123 44.521873 40.6 41.94375Q39.19375 41.94375 38.021873 42.334373ZM62.334373 40.771873Q63.19375 40.928123 62.490623 41.396873L62.490623 45.928123Q64.44375 46.553123 66.55312 47.646873L65.61562 49.13125Q63.896873 48.115623 62.490623 47.646873Q62.25625 49.2875 61.475 50.06875Q60.5375 51.00625 58.896873 51.00625Q56.709373 51.00625 55.85 50.146873Q55.06875 49.365623 55.06875 48.115623Q55.06875 47.1 55.85 46.31875Q56.865623 45.303123 58.81875 45.303123Q60.146873 45.303123 60.928123 45.5375L60.928123 40.771873L62.334373 40.771873ZM53.975 38.896873Q52.725 39.053123 50.85 39.053123L50.615623 37.4125Q52.56875 37.4125 54.521873 37.25625Q54.9125 35.85 55.459373 33.50625L56.865623 33.975Q57.646873 34.2875 56.865623 34.6L56.1625 37.1Q57.490623 36.94375 58.896873 36.553123L59.2875 38.19375Q57.1 38.6625 55.69375 38.740623Q54.44375 42.725 52.021873 47.4125L50.459373 46.63125Q52.88125 42.334373 53.975 38.896873ZM61.475 36.553123Q63.6625 37.25625 66.70937 38.428123L66.00625 40.06875Q62.725 38.6625 60.85 38.115623L61.475 36.553123ZM60.928123 47.021873Q59.990623 46.709373 58.81875 46.709373Q57.56875 46.709373 57.1 47.178123Q56.709373 47.56875 56.709373 48.115623Q56.709373 48.6625 57.021873 48.975Q57.490623 49.44375 58.6625 49.44375Q59.75625 49.44375 60.225 48.975Q60.928123 48.271873 60.928123 47.021873ZM84.70937 48.584373L84.70937 50.303123L81.27187 50.303123Q78.30312 50.303123 75.64687 48.896873L76.35 47.490623Q78.38125 48.584373 81.27187 48.584373L84.70937 48.584373ZM73.92812 39.44375Q72.75625 46.396873 71.0375 50.459373L69.31875 49.9125Q71.42812 44.990623 72.2875 39.6Q70.4125 39.75625 68.92812 39.75625L68.61562 38.19375Q70.80312 38.19375 72.52187 38.0375Q72.83437 35.615623 73.06875 33.81875L74.63125 34.13125Q75.49062 34.365623 74.7875 34.75625Q74.55312 35.69375 74.1625 37.88125Q75.95937 37.646873 77.44375 37.25625L77.75625 38.81875Q75.725 39.209373 73.92812 39.44375ZM84.31875 42.1Q79.7875 42.25625 77.20937 43.35L76.74062 41.7875Q80.1 40.459373 84.00625 40.459373L84.31875 42.1ZM99.975 39.6Q100.13125 42.56875 99.975 45.5375Q102.31875 46.396873 104.50625 47.959373L103.56875 49.44375Q101.92812 48.19375 99.975 47.25625Q99.975 48.6625 99.11562 49.521873Q98.17812 50.459373 96.38125 50.459373Q94.58437 50.459373 93.64687 49.521873Q92.86562 48.740623 92.86562 47.490623Q92.86562 46.396873 93.49062 45.771873Q94.42812 44.834373 96.30312 44.834373Q97.31875 44.834373 98.33437 45.06875Q98.49062 42.4125 98.33437 39.678123L92.55312 40.06875L92.55312 38.428123L98.17812 38.115623Q98.1 35.928123 97.86562 34.209373L99.50625 34.209373Q100.36562 34.365623 99.6625 34.834373Q99.74062 36.475 99.81875 38.0375L104.0375 37.803123L104.0375 39.44375L99.975 39.6ZM88.17812 50.06875Q87.86562 47.88125 87.86562 44.990623Q87.86562 38.6625 88.80312 34.834373L90.52187 35.146873Q91.06875 35.38125 90.44375 35.69375Q89.58437 38.428123 89.58437 44.990623Q89.58437 47.959373 89.975 49.75625L88.17812 50.06875ZM98.33437 46.63125Q97.00625 46.240623 96.30312 46.240623Q95.20937 46.240623 94.74062 46.709373Q94.35 47.1 94.35 47.490623Q94.35 48.115623 94.6625 48.428123Q95.20937 48.975 96.30312 48.975Q97.39687 48.975 97.86562 48.428123Q98.4125 47.803123 98.33437 46.63125ZM111.5375 49.209373Q109.11562 49.209373 108.17812 48.271873Q107.24062 47.334373 107.24062 45.771873Q107.24062 44.9125 107.55312 43.740623L109.35 43.975Q108.95937 45.225 108.95937 45.771873Q108.95937 46.475 109.42812 46.94375Q109.975 47.490623 111.61562 47.490623L120.13125 47.490623L120.13125 49.209373L111.5375 49.209373ZM108.4125 36.00625L118.56875 36.00625L118.56875 37.725L108.4125 37.725L108.4125 36.00625ZM132.38126 38.584373Q131.05313 46.396873 129.17813 48.271873Q128.1625 49.2875 127.06875 49.2875Q125.81875 49.2875 125.11562 48.584373Q123.24062 46.709373 123.24062 43.896873Q123.24062 40.459373 125.6625 38.0375Q128.31876 35.38125 132.14688 35.38125Q135.58438 35.38125 137.5375 37.334373Q139.725 39.521873 139.725 42.490623Q139.725 45.69375 137.69376 47.725Q136.36563 49.053123 133.63126 50.303123L131.99063 48.6625Q134.725 47.803123 136.2875 46.240623Q137.77188 44.75625 137.77188 42.646873Q137.77188 40.146873 136.13126 38.50625Q134.49063 36.865623 130.975 37.021873L132.38126 37.725Q133.31876 38.115623 132.38126 38.584373ZM130.58438 37.1Q128.55313 37.56875 127.06875 39.053123Q125.0375 41.084373 125.0375 44.053123Q125.0375 45.85 126.20937 47.021873Q126.44375 47.25625 126.9125 47.25625Q127.38125 47.25625 127.92812 46.709373Q129.725 44.9125 130.58438 37.1ZM143.31876 49.053123Q147.69376 48.0375 150.19376 45.69375L143.31876 45.69375L143.31876 44.44375L150.89688 44.44375L150.89688 43.271873L145.81876 43.271873L145.81876 42.021873L150.89688 42.021873L150.89688 40.771873L144.95938 40.771873L144.95938 39.521873L149.02188 39.521873L148.1625 38.0375L143.31876 38.0375L143.31876 36.7875L146.99063 36.7875Q146.44376 36.00625 145.58438 35.303123L146.75626 34.365623Q147.69376 34.9125 148.55313 36.084373L147.69376 36.7875L149.33438 36.7875L149.33438 33.50625L150.81876 33.50625Q151.44376 33.584373 150.89688 33.975L150.89688 36.7875L152.38126 36.7875L152.38126 33.50625L153.86563 33.50625Q154.49063 33.584373 153.94376 33.975L153.94376 36.7875L155.81876 36.7875L154.95938 36.1625Q155.74063 35.06875 156.36563 34.13125L157.5375 34.9125Q158.08438 35.225 157.45938 35.303123Q157.06876 36.00625 156.36563 36.7875L160.11563 36.7875L160.11563 38.0375L155.19376 38.0375L154.33438 39.521873L158.63126 39.521873L158.63126 40.771873L152.45938 40.771873L152.45938 42.021873L157.69376 42.021873L157.69376 43.271873L152.45938 43.271873L152.45938 44.44375L160.19376 44.44375L160.19376 45.69375L153.39688 45.69375Q156.13126 48.115623 160.27188 48.975L159.64688 50.615623Q155.35 49.521873 152.45938 46.865623L152.45938 51.240623L150.89688 51.240623L150.89688 47.021873Q148.1625 49.44375 143.94376 50.615623L143.31876 49.053123ZM150.50626 39.521873L152.92813 39.521873L153.70938 38.0375L149.64688 38.0375L150.50626 39.521873ZM178.1625 41.94375L176.83438 41.94375L176.83438 41.396873L173.24063 41.396873Q175.6625 43.896873 180.74063 45.146873L180.11563 46.865623Q176.9125 46.00625 175.19376 44.75625L175.19376 51.240623L173.63126 51.240623L173.63126 44.44375L174.725 44.44375Q173.31876 43.6625 171.67813 41.7875Q170.50626 43.271873 168.94376 44.365623L169.95938 44.365623Q170.58438 44.44375 170.0375 44.834373L170.0375 47.25625Q170.0375 48.975 169.1 49.75625Q167.61563 51.00625 164.33438 51.396873L163.63126 49.834373Q166.67813 49.6 167.85 48.6625Q168.475 48.19375 168.475 46.94375L168.475 44.75625Q166.44376 46.240623 163.1625 47.021873L162.45938 45.303123Q167.77188 44.209373 170.11563 41.396873L166.52188 41.396873L166.52188 42.25625L165.19376 42.25625L165.19376 34.13125L178.1625 34.13125L178.1625 41.94375ZM176.83438 37.178123L176.83438 35.38125L172.30313 35.38125L172.30313 37.178123L176.83438 37.178123ZM170.975 37.178123L170.975 35.38125L166.52188 35.38125L166.52188 37.178123L170.975 37.178123ZM170.975 38.428123L166.52188 38.428123L166.52188 40.146873L170.975 40.146873L170.975 38.428123ZM176.83438 40.146873L176.83438 38.428123L172.30313 38.428123L172.30313 40.146873L176.83438 40.146873ZM198.475 37.334373Q195.74063 37.334373 194.17813 37.88125Q192.45938 38.50625 190.975 39.990623Q189.49063 41.475 189.49063 43.81875Q189.49063 45.69375 190.6625 46.865623Q192.225 48.428123 196.67813 48.584373L196.05313 50.303123Q191.44376 50.06875 189.64688 48.271873Q187.85 46.475 187.85 43.896873Q187.85 40.225 190.74063 38.115623Q187.06876 38.6625 183.24063 39.209373L182.77188 37.4125Q190.42813 36.865623 198.1625 35.5375L198.475 37.334373ZM196.75626 43.428123Q195.0375 42.178123 193.7875 41.475L194.56876 40.5375Q195.74063 41.240623 197.5375 42.490623L196.75626 43.428123ZM198.31876 41.553123Q196.44376 40.225 195.35 39.6L196.13126 38.6625Q197.225 39.2875 199.1 40.615623L198.31876 41.553123ZM204.6 51.31875L203.0375 51.31875L203.0375 41.084373Q202.33438 42.334373 201.39688 43.428123L200.30313 42.021873Q203.27188 38.81875 203.975 33.50625L205.69376 33.896873Q206.08438 34.053123 205.45938 34.44375Q205.225 36.084373 204.36563 38.50625L204.75626 38.6625Q205.225 38.81875 204.6 39.13125L204.6 51.31875ZM214.67813 49.2875Q215.14688 49.365623 215.06876 48.896873L215.06876 36.396873L206.1625 36.396873L206.1625 34.9125L218.6625 34.9125L218.6625 36.396873L216.63126 36.396873L216.63126 49.75625Q216.63126 51.00625 215.38126 51.00625L213.50626 51.00625L213.19376 49.2875L214.67813 49.2875ZM212.88126 39.365623L212.88126 46.865623L211.31876 46.865623L211.31876 46.553123L208.27188 46.553123L208.27188 47.646873L206.70938 47.646873L206.70938 39.365623L212.88126 39.365623ZM211.31876 40.85L208.27188 40.85L208.27188 45.06875L211.31876 45.06875L211.31876 40.85ZM225.85 37.4125Q224.36563 39.990623 222.17813 41.709373L221.08438 40.303123Q224.2875 37.959373 225.45938 33.50625L227.25626 33.975Q227.56876 34.2875 227.02188 34.365623L226.39688 35.928123L237.4125 35.928123L237.4125 37.4125L231.70938 37.4125L231.70938 40.06875L236.39688 40.06875L236.39688 41.553123L231.70938 41.553123L231.70938 45.06875L238.27188 45.06875L238.27188 46.553123L231.70938 46.553123L231.70938 51.240623L230.14688 51.240623L230.14688 46.553123L221.1625 46.553123L221.1625 45.06875L224.67813 45.06875L224.67813 40.06875L230.14688 40.06875L230.14688 37.4125L225.85 37.4125ZM226.24063 45.06875L230.14688 45.06875L230.14688 41.553123L226.24063 41.553123L226.24063 45.06875ZM253.81876 41.553123Q253.975 43.50625 253.89688 45.5375Q256.31876 46.63125 258.35 47.959373L257.4125 49.44375Q254.67813 47.646873 253.81876 47.25625Q253.81876 48.740623 253.11563 49.44375Q252.1 50.459373 250.225 50.459373Q248.35 50.459373 247.49063 49.6Q246.70938 48.81875 246.70938 47.646873Q246.70938 46.553123 247.56876 45.69375Q248.42813 44.834373 250.14688 44.834373Q251.39688 44.834373 252.25626 45.06875Q252.33438 43.35 252.17813 41.63125L246.55313 41.865623L246.55313 40.225L252.1 39.990623Q252.02188 38.428123 251.86563 37.1L246.86563 37.334373L246.86563 35.69375L257.02188 35.225L257.02188 36.865623L253.50626 37.021873Q253.6625 38.271873 253.74063 39.9125L257.88126 39.678123L257.88126 41.31875L253.81876 41.553123ZM252.17813 46.63125Q251.31876 46.240623 250.14688 46.240623Q249.05313 46.240623 248.6625 46.63125Q248.19376 47.1 248.19376 47.646873Q248.19376 48.19375 248.50626 48.50625Q248.975 48.975 249.99063 48.975Q251.1625 48.975 251.70938 48.428123Q252.25626 47.88125 252.17813 46.63125ZM244.44376 35.615623Q243.50626 39.053123 243.50626 44.521873Q243.50626 47.490623 243.975 49.75625L242.17813 50.06875Q241.86563 47.88125 241.86563 44.678123Q241.86563 39.521873 242.64688 34.6L244.36563 34.990623Q245.30313 35.225 244.44376 35.615623ZM273.89688 41.084373Q266.475 42.4125 263.975 44.9125Q263.11563 45.771873 263.11563 46.709373Q263.11563 47.4125 263.6625 47.959373Q264.20938 48.50625 265.92813 48.50625L273.42813 48.50625L273.42813 50.225L265.85 50.225Q263.27188 50.225 262.25626 49.209373Q261.24063 48.19375 261.24063 46.865623Q261.24063 45.146873 262.49063 43.896873Q263.42813 42.959373 265.61563 41.709373Q265.14688 40.5375 265.06876 39.13125L264.75626 33.975L266.39688 33.975Q267.25626 34.13125 266.55313 34.6L266.70938 38.35Q266.7875 39.990623 267.25626 41.00625Q269.44376 40.06875 273.11563 39.053123L273.89688 41.084373ZM271.86563 34.990623Q273.6625 36.084373 274.9125 36.94375L274.13126 37.959373Q272.725 37.021873 271.08438 36.00625L271.86563 34.990623ZM273.58438 33.428123Q275.30313 34.521873 276.63126 35.38125L275.85 36.396873Q274.20938 35.303123 272.80313 34.44375L273.58438 33.428123ZM288.38126 38.584373Q287.05313 46.396873 285.17813 48.271873Q284.1625 49.2875 283.06876 49.2875Q281.81876 49.2875 281.11563 48.584373Q279.24063 46.709373 279.24063 43.896873Q279.24063 40.459373 281.6625 38.0375Q284.31876 35.38125 288.14688 35.38125Q291.58438 35.38125 293.5375 37.334373Q295.725 39.521873 295.725 42.490623Q295.725 45.69375 293.69376 47.725Q292.36563 49.053123 289.63126 50.303123L287.99063 48.6625Q290.725 47.803123 292.2875 46.240623Q293.77188 44.75625 293.77188 42.646873Q293.77188 40.146873 292.13126 38.50625Q290.49063 36.865623 286.975 37.021873L288.38126 37.725Q289.31876 38.115623 288.38126 38.584373ZM286.58438 37.1Q284.55313 37.56875 283.06876 39.053123Q281.0375 41.084373 281.0375 44.053123Q281.0375 45.85 282.20938 47.021873Q282.44376 47.25625 282.9125 47.25625Q283.38126 47.25625 283.92813 46.709373Q285.725 44.9125 286.58438 37.1ZM299.70938 36.553123L300.33438 37.021873Q301.58438 35.06875 302.36563 33.271873L303.85 34.13125Q304.24063 34.44375 303.61563 34.521873Q302.67813 36.1625 301.42813 37.88125L302.52188 38.81875Q303.61563 37.490623 304.70938 35.615623L306.0375 36.475Q306.50626 36.7875 305.88126 36.865623Q304.00626 39.365623 302.13126 41.475L304.70938 41.31875L304.00626 40.06875L305.33438 39.521873Q306.35 40.85 307.13126 43.115623L305.56876 43.740623L305.17813 42.56875L303.45938 42.725L303.45938 51.31875L301.89688 51.31875L301.89688 42.88125L299.24063 42.959373Q299.1625 43.50625 298.85 43.19375L298.45938 41.475L300.33438 41.475L301.58438 40.06875Q300.17813 38.975 298.77188 37.88125L299.70938 36.553123ZM306.74063 41.240623Q309.24063 40.303123 310.17813 39.521873Q308.85 38.115623 307.9125 35.928123L306.81876 35.928123L306.81876 34.44375L313.92813 34.44375L314.1625 34.209373L315.4125 35.225L315.02188 35.5375Q314.31876 37.56875 312.52188 39.44375Q313.69376 40.225 316.81876 41.00625L316.27188 42.725Q312.75626 41.63125 311.42813 40.459373Q309.7875 41.865623 307.44376 42.725L306.74063 41.240623ZM306.19376 50.69375L306.19376 49.209373L310.49063 49.209373L310.49063 45.85L307.2875 45.85L307.2875 44.365623L310.49063 44.365623L310.49063 42.178123L311.975 42.178123Q312.6 42.25625 312.05313 42.646873L312.05313 44.365623L315.49063 44.365623L315.49063 45.85L312.05313 45.85L312.05313 49.209373L316.19376 49.209373L316.19376 50.69375L306.19376 50.69375ZM309.475 35.928123Q310.17813 37.56875 311.35 38.584373Q312.36563 37.490623 313.14688 35.928123L309.475 35.928123ZM300.95938 45.146873Q300.88126 47.1 300.17813 49.6L298.61563 49.053123Q299.24063 46.709373 299.39688 44.365623L301.11563 44.75625Q301.35 45.06875 300.95938 45.146873ZM305.49063 44.2875Q306.27188 45.69375 306.58438 47.88125L305.02188 48.271873Q304.70938 46.084373 304.08438 44.678123L305.49063 44.2875ZM334.08438 39.209373L331.975 39.209373L331.975 40.69375L335.56876 40.69375L335.56876 45.85L334.24063 45.85L334.24063 45.225L332.13126 45.225Q333.5375 48.0375 336.74063 49.6L335.80313 51.084373Q332.67813 49.2875 331.58438 46.7875Q330.49063 49.990623 326.89688 51.31875L326.19376 49.9125Q330.02188 48.50625 330.56876 45.225L328.45938 45.225L328.45938 46.084373L327.13126 46.084373L327.13126 40.69375L330.64688 40.69375L330.64688 39.209373L328.5375 39.209373L328.5375 38.115623Q327.75626 39.053123 326.58438 39.678123L325.725 38.35Q328.45938 36.865623 330.17813 33.428123L331.81876 33.6625Q332.05313 33.975 331.6625 34.053123Q333.5375 36.475 336.74063 37.88125L335.95938 39.2875Q335.1 38.975 334.08438 38.19375L334.08438 39.209373ZM323.45938 48.35Q323.14688 46.865623 322.83438 45.85L323.69376 45.69375Q324.1625 46.709373 324.39688 48.0375L323.45938 48.35ZM318.30313 49.521873Q318.92813 47.25625 318.92813 45.771873L319.94376 45.928123Q319.7875 48.428123 319.39688 49.9125L318.30313 49.521873ZM320.4125 49.13125Q320.4125 47.490623 320.25626 45.928123L321.11563 45.85Q321.35 47.334373 321.35 48.975L320.4125 49.13125ZM322.13126 49.75625L323.85 49.75625Q324.31876 49.75625 324.475 49.2875Q324.70938 48.6625 324.70938 47.803123L324.7875 44.75625L319.31876 44.75625L319.31876 34.209373L326.19376 34.209373L326.19376 35.459373L323.69376 35.459373L323.69376 37.178123L325.56876 37.178123L325.56876 38.428123L323.69376 38.428123L323.69376 40.303123L325.725 40.303123L325.725 41.553123L323.69376 41.553123L323.69376 43.50625L326.19376 43.50625L326.0375 47.959373Q325.95938 49.75625 325.64688 50.38125Q325.25626 51.240623 324.31876 51.240623L322.2875 51.240623L322.13126 49.75625ZM331.975 41.94375L331.975 43.975L334.24063 43.975L334.24063 41.94375L331.975 41.94375ZM330.64688 41.94375L328.45938 41.94375L328.45938 43.975L330.64688 43.975L330.64688 41.94375ZM322.44376 45.85Q322.99063 47.334373 322.99063 48.584373L322.05313 48.81875Q321.89688 47.021873 321.58438 45.928123L322.44376 45.85ZM322.36563 41.553123L320.64688 41.553123L320.64688 43.50625L322.36563 43.50625L322.36563 41.553123ZM322.36563 38.428123L320.64688 38.428123L320.64688 40.303123L322.36563 40.303123L322.36563 38.428123ZM322.36563 35.459373L320.64688 35.459373L320.64688 37.178123L322.36563 37.178123L322.36563 35.459373ZM333.69376 37.959373Q332.13126 36.865623 330.88126 35.06875Q329.94376 36.7875 328.69376 37.959373L333.69376 37.959373ZM351.975 37.1Q355.17813 40.38125 356.35 44.990623L354.63126 45.69375Q353.225 40.615623 350.56876 38.115623L351.975 37.1ZM349.63126 43.35Q349.63126 47.88125 348.30313 49.209373Q347.52188 49.990623 346.50626 49.990623Q345.02188 49.990623 343.5375 48.271873L344.55313 46.865623Q345.80313 48.115623 346.42813 48.115623Q346.81876 48.115623 347.13126 47.803123Q347.99063 46.94375 347.99063 43.0375Q347.99063 40.85 347.52188 40.38125Q347.2875 40.146873 346.58438 40.146873Q345.88126 40.146873 344.63126 40.303123Q342.99063 46.084373 340.725 50.225L338.92813 49.6Q341.19376 46.084373 342.9125 40.459373Q341.19376 40.69375 339.55313 40.85L339.39688 39.13125Q340.80313 39.13125 343.30313 38.896873Q344.00626 36.475 344.475 33.975L346.11563 34.521873Q347.05313 34.9125 346.0375 35.225Q345.56876 36.865623 345.1 38.740623Q346.0375 38.584373 347.05313 38.584373Q348.14688 38.584373 348.69376 39.13125Q349.63126 40.06875 349.63126 43.35ZM354.00626 33.0375Q355.4125 33.81875 357.13126 35.225L356.19376 36.1625Q354.475 34.834373 353.06876 33.975L354.00626 33.0375ZM354.55313 38.0375Q352.75626 36.553123 351.50626 35.771873L352.44376 34.834373Q353.85 35.615623 355.56876 37.021873L354.55313 38.0375ZM367.9125 49.678123Q371.11563 49.365623 372.20938 48.271873Q373.06876 47.4125 373.06876 45.85Q373.06876 44.13125 372.20938 43.271873Q371.19376 42.25625 369.39688 42.1Q368.14688 46.1625 366.58438 47.803123L367.05313 48.81875L365.56876 49.9125L365.17813 49.053123Q363.14688 50.771873 361.74063 50.771873Q360.80313 50.771873 360.02188 49.990623Q359.1625 49.13125 359.1625 47.646873Q359.1625 44.990623 360.95938 43.19375Q362.05313 42.1 363.225 41.475L363.38126 38.50625L360.1 38.6625L359.7875 36.94375L363.45938 36.865623Q363.5375 35.06875 363.69376 33.428123L365.17813 33.428123Q365.95938 33.584373 365.33438 34.053123Q365.17813 35.459373 365.1 36.7875Q368.85 36.553123 371.50626 36.084373L371.81876 37.803123Q368.5375 38.19375 365.02188 38.35L364.86563 40.85Q365.95938 40.459373 367.9125 40.38125L368.14688 39.13125L369.63126 39.365623Q370.33438 39.521873 369.7875 39.990623L369.70938 40.5375Q372.13126 40.771873 373.45938 42.1Q374.94376 43.584373 374.94376 45.928123Q374.94376 48.115623 373.61563 49.44375Q372.20938 50.85 368.92813 51.396873L367.9125 49.678123ZM363.45938 43.115623Q362.83438 43.428123 362.05313 44.209373Q360.64688 45.615623 360.64688 47.88125Q360.64688 48.50625 361.11563 48.975Q361.27188 49.13125 361.74063 49.13125Q362.9125 49.13125 364.39688 47.646873Q363.61563 45.303123 363.45938 43.115623ZM365.02188 42.334373Q365.1 44.365623 365.80313 46.240623Q367.05313 44.521873 367.6 41.94375Q366.19376 41.94375 365.02188 42.334373ZM387.38126 42.334373Q387.38126 37.021873 387.06876 34.13125L388.63126 34.13125Q389.49063 34.209373 388.7875 34.75625Q389.02188 37.25625 389.02188 42.4125Q389.02188 48.271873 383.475 51.240623L382.14688 49.9125Q387.38126 47.4125 387.38126 42.334373ZM382.06876 44.9125Q381.36563 45.459373 380.50626 45.459373Q379.95938 45.459373 379.49063 44.990623Q378.94376 44.44375 378.94376 40.303123Q378.94376 37.178123 379.25626 34.6L380.975 34.6Q381.6 34.834373 380.975 35.146873Q380.58438 37.021873 380.58438 40.303123Q380.58438 43.6625 380.89688 43.6625Q381.13126 43.6625 381.52188 43.35Q382.06876 42.88125 383.31876 41.240623L384.49063 42.4125Q383.1625 44.053123 382.06876 44.9125ZM401.67813 45.38125Q404.88126 46.084373 407.92813 47.56875L407.06876 49.2875Q404.17813 47.490623 401.67813 46.865623Q401.67813 48.896873 400.6625 49.9125Q399.725 50.85 397.61563 50.85Q395.975 50.85 394.95938 49.834373Q394.25626 49.13125 394.25626 47.88125Q394.25626 46.7875 395.0375 46.00625Q396.05313 44.990623 398.1625 44.990623Q398.7875 44.990623 400.11563 45.06875L400.11563 42.646873L394.17813 42.803123L394.17813 41.240623L400.11563 41.084373L400.11563 38.35L392.77188 38.584373L392.77188 37.021873L400.11563 36.7875L400.11563 33.740623L401.52188 33.740623Q402.38126 33.896873 401.67813 34.365623L401.67813 36.63125L408.08438 36.396873L408.08438 37.959373L401.67813 38.19375L401.67813 41.00625L406.75626 40.85L406.75626 42.4125L401.67813 42.56875L401.67813 45.38125ZM400.0375 46.553123Q399.17813 46.396873 398.31876 46.396873Q396.75626 46.396873 396.13126 47.021873Q395.74063 47.4125 395.74063 48.0375Q395.74063 48.50625 396.13126 48.896873Q396.67813 49.44375 397.85 49.44375Q398.7875 49.44375 399.4125 48.81875Q400.11563 48.115623 400.0375 46.553123ZM419.20938 45.5375Q418.27188 46.084373 417.25626 46.084373Q415.92813 46.084373 415.225 45.38125Q414.2875 44.44375 414.2875 43.271873Q414.2875 42.021873 415.225 41.084373Q416.1625 40.146873 417.56876 40.146873Q418.50626 40.146873 419.36563 40.38125L419.36563 38.6625L410.77188 39.209373L410.45938 37.56875L419.36563 37.178123L419.36563 33.50625L420.77188 33.50625Q421.63126 33.6625 420.92813 34.13125L420.92813 37.1L427.56876 36.63125L427.56876 38.271873L420.92813 38.584373L420.92813 41.553123Q421.24063 42.959373 421.24063 44.678123Q421.1625 48.6625 416.7875 51.396873L415.30313 50.303123Q419.20938 48.0375 419.20938 45.5375ZM417.725 41.475Q416.86563 41.475 416.31876 42.021873Q415.85 42.490623 415.85 43.271873Q415.85 43.975 416.24063 44.365623Q416.63126 44.75625 417.49063 44.75625Q418.35 44.75625 418.89688 44.209373Q419.36563 43.740623 419.36563 43.0375Q419.36563 42.334373 418.89688 41.865623Q418.50626 41.475 417.725 41.475ZM429.92813 49.6Q432.19376 46.084373 433.9125 40.459373Q432.19376 40.69375 430.55313 40.85L430.39688 39.13125Q431.80313 39.13125 434.30313 38.896873Q435.00626 36.475 435.475 33.975L437.11563 34.521873Q438.05313 34.9125 437.0375 35.225Q436.56876 36.865623 436.1 38.740623Q437.0375 38.584373 438.05313 38.584373Q439.14688 38.584373 439.69376 39.13125Q440.63126 40.06875 440.63126 43.35Q440.63126 47.88125 439.30313 49.209373Q438.52188 49.990623 437.50626 49.990623Q436.02188 49.990623 434.5375 48.271873L435.55313 46.865623Q436.80313 48.115623 437.42813 48.115623Q437.81876 48.115623 438.13126 47.803123Q438.99063 46.94375 438.99063 43.0375Q438.99063 40.85 438.52188 40.38125Q438.2875 40.146873 437.58438 40.146873Q436.88126 40.146873 435.63126 40.303123Q433.99063 46.084373 431.725 50.225L429.92813 49.6ZM445.63126 45.69375Q444.225 40.615623 441.56876 38.115623L442.975 37.1Q446.17813 40.38125 447.35 44.990623L445.63126 45.69375ZM452.6625 40.225Q452.6625 39.44375 453.05313 38.6625Q453.36563 38.0375 453.9125 37.490623Q455.475 35.928123 458.75626 35.928123Q461.80313 35.928123 463.05313 37.178123Q464.06876 38.19375 464.06876 39.2875Q464.06876 40.225 463.6 40.928123Q463.05313 41.709373 462.0375 42.178123Q460.475 42.88125 459.77188 43.428123Q459.38126 43.740623 459.38126 44.2875L459.38126 44.9125L457.6625 44.9125L457.6625 43.740623Q457.6625 42.646873 458.44376 42.178123Q460.1625 41.1625 461.17813 40.69375Q462.0375 40.225 462.0375 39.365623Q462.0375 38.740623 461.56876 38.271873Q460.86563 37.56875 458.75626 37.56875Q456.49063 37.56875 455.55313 38.50625Q454.69376 39.365623 454.69376 40.225L454.69376 40.615623L452.6625 40.615623L452.6625 40.225ZM457.42813 47.1L459.61563 47.1L459.61563 49.365623L457.42813 49.365623L457.42813 47.1Z" fill-rule="nonzero"/><path fill="#757575" d="M470.38126 49.6L470.38126 47.6L472.38126 47.6L472.38126 49.6Q472.38126 50.709373 471.99063 51.38125Q471.6 52.06875 470.75626 52.428123L470.25626 51.678123Q470.81876 51.44375 471.08438 50.959373Q471.35 50.490623 471.38126 49.6L470.38126 49.6ZM482.13126 49.6L482.13126 35.2875L484.06876 35.2875L491.58438 46.521873L491.58438 35.2875L493.39688 35.2875L493.39688 49.6L491.45938 49.6L483.94376 38.35L483.94376 49.6L482.13126 49.6ZM504.1625 41.178123L494.70938 41.178123L494.70938 39.5375L504.1625 39.5375L504.1625 41.178123ZM504.1625 45.521873L494.70938 45.521873L494.70938 43.88125L504.1625 43.88125L504.1625 45.521873ZM513.0531 49.6L511.2875 49.6L511.2875 38.396873Q510.6625 39.00625 509.63126 39.615623Q508.6 40.209373 507.77188 40.521873L507.77188 38.81875Q509.25626 38.13125 510.35 37.146873Q511.45938 36.146873 511.9125 35.225L513.0531 35.225L513.0531 49.6ZM526.5531 38.7875L524.8031 38.928123Q524.5687 37.896873 524.14685 37.428123Q523.4281 36.6625 522.3812 36.6625Q521.5375 36.6625 520.9125 37.13125Q520.08435 37.740623 519.6 38.9125Q519.1156 40.06875 519.1 42.209373Q519.7406 41.25625 520.64685 40.7875Q521.5687 40.31875 522.58435 40.31875Q524.33435 40.31875 525.5687 41.615623Q526.8031 42.896873 526.8031 44.94375Q526.8031 46.303123 526.225 47.459373Q525.64685 48.615623 524.6312 49.240623Q523.6156 49.85 522.3187 49.85Q520.1312 49.85 518.7406 48.240623Q517.35 46.615623 517.35 42.896873Q517.35 38.75625 518.8812 36.865623Q520.225 35.225 522.4906 35.225Q524.1781 35.225 525.2562 36.178123Q526.33435 37.115623 526.5531 38.7875ZM519.3812 44.959373Q519.3812 45.865623 519.7562 46.69375Q520.14685 47.521873 520.83435 47.959373Q521.5375 48.396873 522.2875 48.396873Q523.4125 48.396873 524.20935 47.50625Q525.0062 46.6 525.0062 45.053123Q525.0062 43.56875 524.20935 42.725Q523.4281 41.865623 522.225 41.865623Q521.0375 41.865623 520.20935 42.725Q519.3812 43.56875 519.3812 44.959373ZM528.4281 42.5375Q528.4281 40.00625 528.9437 38.459373Q529.475 36.896873 530.5062 36.06875Q531.5375 35.225 533.1 35.225Q534.2562 35.225 535.1156 35.69375Q535.9906 36.146873 536.5531 37.021873Q537.1156 37.896873 537.4437 39.1625Q537.77185 40.4125 537.77185 42.5375Q537.77185 45.053123 537.2406 46.6Q536.725 48.146873 535.6937 49.00625Q534.6781 49.85 533.1 49.85Q531.02185 49.85 529.85 48.365623Q528.4281 46.56875 528.4281 42.5375ZM530.2406 42.5375Q530.2406 46.06875 531.0531 47.240623Q531.8812 48.396873 533.1 48.396873Q534.3031 48.396873 535.1312 47.225Q535.95935 46.053123 535.95935 42.5375Q535.95935 39.00625 535.1312 37.85Q534.3031 36.678123 533.08435 36.678123Q531.8656 36.678123 531.14685 37.709373Q530.2406 39.00625 530.2406 42.5375Z" fill-rule="nonzero"/></svg>