<?xml version="1.0" encoding="UTF-8" standalone="no"?>
<svg
  xmlns="http://www.w3.org/2000/svg"
  height="512"
  width="512"
  version="1.1"
  viewBox="0 0 512 512">
  <path
    d="m 447.83461,166.84329 c -4.02765,46.40612 -30.98364,86.60427 -56.4365,124.12348 -32.66651,44.17024 -66.39272,90.49255 -114.28822,119.25629 -19.43978,11.28333 -47.28751,19.14225 -65.69148,1.7991 C 182.12709,384.88197 176.23348,343.44559 165.66495,306.9392 154.324,270.60963 149.11896,231.64622 130.1742,198.16046 119.29495,173.25261 95.97211,192.02242 82.0678,202.61391 76.0452,194.85247 70.0226,187.09103 64,179.32958 c 30.93815,-25.59834 58.13402,-56.13873 92.71336,-77.02824 19.37965,-13.48708 49.28617,-9.094021 61.31087,12.07934 16.41328,27.20388 15.29775,60.29314 22.05969,90.45728 5.86587,30.4007 9.59921,62.33819 24.73402,89.82312 13.61119,20.48591 32.00217,-6.68632 40.23937,-18.86861 14.76679,-23.45065 32.86881,-47.88972 33.45744,-76.70251 2.14678,-23.81151 -26.08229,-29.89601 -43.77703,-22.72848 -10.66934,5.56386 -12.16245,2.68302 -7.11157,-7.38703 11.81102,-35.19563 38.04814,-69.199503 76.29244,-76.55988 25.36699,-5.20008 58.10488,-4.321246 73.34967,20.16122 9.99778,16.0826 11.28416,35.80526 10.56635,54.2675 z"
    style="fill:#ffffff"/>
</svg>
